<?xml version="1.0" encoding="UTF-8" standalone="no"?>
<!-- Created with Inkscape (http://www.inkscape.org/) -->

<svg
   width="630"
   height="499.99997"
   viewBox="0 0 166.68749 132.29165"
   version="1.1"
   id="svg5"
   xml:space="preserve"
   inkscape:version="1.2.2 (732a01da63, 2022-12-09)"
   sodipodi:docname="cover.svg"
   inkscape:export-filename="cover.png"
   inkscape:export-xdpi="96"
   inkscape:export-ydpi="96"
   xmlns:inkscape="http://www.inkscape.org/namespaces/inkscape"
   xmlns:sodipodi="http://sodipodi.sourceforge.net/DTD/sodipodi-0.dtd"
   xmlns="http://www.w3.org/2000/svg"
   xmlns:svg="http://www.w3.org/2000/svg"><sodipodi:namedview
     id="namedview7"
     pagecolor="#ffffff"
     bordercolor="#000000"
     borderopacity="0.25"
     inkscape:showpageshadow="2"
     inkscape:pageopacity="0.0"
     inkscape:pagecheckerboard="true"
     inkscape:deskcolor="#d1d1d1"
     inkscape:document-units="px"
     showgrid="true"
     inkscape:zoom="0.84096521"
     inkscape:cx="244.95663"
     inkscape:cy="215.82344"
     inkscape:window-width="1920"
     inkscape:window-height="1129"
     inkscape:window-x="-8"
     inkscape:window-y="-8"
     inkscape:window-maximized="1"
     inkscape:current-layer="layer1"><inkscape:grid
       type="xygrid"
       id="grid462"
       originx="50.799997"
       originy="-122.76666"
       empspacing="8" /></sodipodi:namedview><defs
     id="defs2" /><g
     inkscape:label="Layer 1"
     inkscape:groupmode="layer"
     id="layer1"
     transform="translate(50.799995,-122.76666)"><rect
       style="opacity:1;fill:#252525;fill-opacity:1;stroke:none;stroke-width:6.48033;stroke-linecap:round;stroke-linejoin:round"
       id="rect467"
       width="166.6875"
       height="132.29166"
       x="-50.799995"
       y="122.76666"
       rx="3.0344786e-06"
       ry="3.0344786e-06" /><path
       style="fill:#ffffff;stroke:none;stroke-width:0.56227;stroke-linecap:round;stroke-linejoin:round;stroke-dasharray:none;stroke-opacity:1"
       d="m 67.848145,221.72904 -1.647825,-0.1936 -1.373205,-0.29682 -1.373188,-0.2968 -1.024221,-0.17128 -1.024202,-0.17129 0.145988,-0.23646 0.145998,-0.23648 -0.413485,0.15853 -0.413486,0.15853 -0.623062,-0.43594 -0.623106,-0.43597 h -0.488114 -0.488204 v -0.7026 -0.70259 l 0.255623,0.15768 0.255659,0.15768 0.17256,-0.27928 0.172561,-0.27928 h -0.67711 -0.677082 l 0.135582,0.51868 0.135581,0.51868 -0.32931,0.20337 -0.32931,0.20338 -0.205919,-0.3338 -0.205929,-0.33279 -0.173836,0.0191 -0.173827,0.0191 -0.835135,-0.16746 -0.835234,-0.16746 -0.745321,-0.88556 -0.745303,-0.88551 -0.823948,-0.22091 -0.823958,-0.22091 -0.343311,0.0585 -0.34331,0.0585 v -0.40579 -0.4058 l -0.549239,-0.17426 -0.549239,-0.17426 v -0.23744 -0.23746 l -0.532297,-0.16936 -0.532324,-0.16938 -0.312856,-0.94783 -0.312857,-0.94782 h -0.264791 -0.264781 l -0.579304,-0.5401 -0.579304,-0.54007 0.347311,-0.41847 0.347311,-0.41841 0.243468,0.15088 0.243478,0.15088 0.02235,-0.22183 0.02235,-0.22189 0.124178,-0.75514 0.124169,-0.75514 h -0.574924 -0.574923 l 0.177891,0.28804 0.1779,0.28804 -0.204843,0.4671 -0.204842,0.4671 -0.162804,-0.77363 -0.162804,-0.77365 -0.68654,-0.36783 -0.686639,-0.36784 -5.63007,-0.40481 -5.630079,-0.40484 -5.068757,-0.0191 -5.068763,-0.0191 -0.324342,0.26955 -0.324344,0.26955 -2.849555,0.25011 -2.849566,0.25008 -1.232318,0.28124 -1.232327,0.28124 -2.197105,0.49046 -2.197102,0.49045 -2.0962214,-0.0389 -2.0962312,-0.0389 -1.3367424,-0.41941 -1.3367461,-0.41941 -0.8649127,-0.14982 -0.8648177,-0.14982 -0.5769659,0.50019 -0.576966,0.50018 v 0.3114 0.31141 h 0.3066318 0.3066309 l -0.1312687,0.68604 -0.1312687,0.68702 h 0.2022269 0.2022259 l 0.1583216,0.79212 0.1583215,0.79214 0.1757478,0.69968 0.1757468,0.69967 -1.1923319,0.57999 -1.19233551,0.57999 -1.1599539,0.16151 -1.15996749,0.16151 -0.6674662,-0.43791 -0.6674662,-0.43694 -2.7040836,-0.12453 -2.7040838,-0.12453 -0.137304,-0.0487 -0.137303,-0.0487 -1.2358708,0.0291 -1.235868,0.0291 -5.355434,0.11773 -5.355433,0.11773 -3.158339,0.43111 -3.158338,0.43207 -2.654541,0.0291 -2.654543,0.0291 -0.958915,-0.73178 -0.958823,-0.73181 -0.975042,-0.15853 -0.975035,-0.15853 -0.166014,-1.27051 -0.166014,-1.27044 -0.257588,-1.31806 -0.257684,-1.31802 v -1.2062 -1.20608 l -0.236664,-0.146 -0.236666,-0.146 -0.19005,-2.83733 -0.190049,-2.83736 0.01466,-6.98822 0.01466,-6.98821 0.284929,-1.64779 0.284932,-1.64788 0.274907,-3.15829 0.274909,-3.15838 -0.0093,-0.41164 -0.0093,-0.41161 0.01168,-1.5106 0.01168,-1.51049 0.229171,-0.96144 0.229172,-0.96143 0.322786,-2.05984 0.322785,-2.05982 0.275881,-1.51048 0.275883,-1.51047 0.295049,-0.96145 0.295055,-0.96145 0.542613,-1.16718 0.542517,-1.16727 h 0.384288 0.384288 l 0.752615,1.06957 0.752616,1.06956 0.502133,0.31919 0.502133,0.3192 0.370079,-0.30751 0.370081,-0.30752 0.363657,0.0682 0.363657,0.068 1.922469,-0.2277 1.922459,-0.22771 1.235868,-0.0585 1.235871,-0.0585 1.167216,-0.20827 1.167205,-0.20826 v 0.30751 0.30751 l -1.098551,0.17617 -1.098551,0.17617 v 0.20528 0.20529 l 1.579168,0.1343 1.57917,0.13432 0.608203,-0.22771 0.608203,-0.22771 0.120771,0.19551 0.120771,0.19552 2.292044,-0.0292 2.292031,-0.0291 0.441411,0.22381 0.44141,0.22383 1.00042,-0.27638 1.000434,-0.27637 v -0.27442 -0.27441 l 0.929821,0.17426 0.9298208,0.17426 0.18072,-0.2929 0.18072,-0.29195 1.185853,0.16256 1.1858604,0.16258 0.3832164,-0.5469 0.3832183,-0.54691 1.92061,0.2053 1.9206092,0.20529 0.9612531,0.34643 0.96125569,0.34644 0.4119228,0.24619 0.4119228,0.2462 0.4806292,0.16151 0.48062651,0.16151 v 0.35714 0.35712 l 0.3433168,0.11583 0.3433195,0.11581 -0.068112,2.43125 -0.068112,2.43135 -0.233259,0.15386 -0.2333532,0.15385 -0.1770229,2.47176 -0.17702201,2.47172 -0.1535612,2.19714 -0.1535612,2.19701 -0.2544754,1.79962 -0.2544701,1.7996 -0.1513294,4.37974 -0.1513303,4.37977 -0.1176463,2.15585 -0.1176472,2.15587 0.4318758,0.65881 0.431873,0.65881 -0.3748477,0.005 -0.3748495,0.005 0.3667722,0.23257 0.3667704,0.23258 -0.075913,0.1071 -0.075913,0.10711 0.2967073,0.53037 0.2967047,0.53032 0.37329291,-0.39315 0.3732901,-0.39313 0.4083245,-0.82422 0.4083226,-0.82426 1.0186295,-1.37316 1.0186295,-1.37319 0.4955142,-0.4379 0.4955168,-0.43793 0.3498393,-0.52354 0.3498374,-0.52352 0.5386266,-0.89236 0.5386266,-0.89236 h 0.4160089 0.4160118 v -0.4447 -0.44473 l 0.8176209,-0.99747 0.8176208,-0.99755 0.5657761,-0.68606 0.565774,-0.68702 0.470506,-0.72108 0.470508,-0.72107 0.543783,-0.78921 0.543781,-0.79018 1.037654,-1.37319 1.037664,-1.37319 0.272377,-0.33183 0.272378,-0.33185 v -0.18488 -0.18488 l 0.497853,-0.44375 0.497849,-0.44375 0.859174,-1.26196 0.859173,-1.26196 0.977349,-0.85829 0.977352,-0.85829 v -0.26762 -0.26762 l 1.579157,-1.86574 1.57917,-1.86579 0.411923,-0.42916 0.411923,-0.42914 2.23029,-2.45802 2.230278,-2.45791 0.78901,-0.96145 0.78901,-0.96147 0.327069,-0.34449 0.327067,-0.34447 0.173792,-0.54788 0.173792,-0.54788 h 0.288142 0.288142 l -0.140215,-0.53617 -0.140237,-0.53619 0.294079,-0.0982 0.294078,-0.0984 -0.235982,-0.38146 -0.235983,-0.38148 -0.02724,-0.62572 -0.02724,-0.62572 0.354509,-0.13622 0.35451,-0.13622 0.615503,0.23648 0.615598,0.23647 0.769353,0.71721 0.769355,0.71718 h 0.111229 0.111229 l 1.179146,1.09516 1.179147,1.09505 0.203863,0.005 0.203862,0.005 0.727997,0.61794 0.727994,0.61795 0.239192,0.27441 0.239197,0.27442 0.614041,0.97313 0.614043,0.97315 0.45338,0.94977 0.453379,0.94879 0.417178,1.09856 0.417178,1.09855 0.858882,1.7851 0.858873,1.78521 0.36609,0.68701 0.366099,0.68703 0.788128,1.60587 0.788137,1.60585 0.41192,0.15959 0.411929,0.1596 0.186951,0.28026 0.186941,0.28026 0.559257,-0.67243 0.559257,-0.67146 0.0091,-0.30266 0.0091,-0.30263 0.686648,-1.29124 0.686621,-1.29136 v -0.67241 -0.67243 h 0.374941 0.37495 l 0.723627,-0.56928 0.7236,-0.56927 0.0018,-0.59847 0.0018,-0.59849 0.410282,-0.78629 0.410273,-0.78627 2.35e-4,-0.4496 2.54e-4,-0.44958 1.029624,-0.99296 1.029678,-0.99288 0.61792,-0.19275 0.617948,-0.19275 v 0.44277 0.44277 l 1.029896,-0.18489 1.029895,-0.18488 0.411938,-0.32211 0.411911,-0.3221 1.647816,-0.79407 1.647816,-0.79505 0.654918,-0.49631 0.655117,-0.49627 h -0.192325 -0.192326 l -0.531238,0.28415 -0.531211,0.28414 v -0.21701 -0.217 l 0.755248,-0.31334 0.75524,-0.31336 0.7782,-0.17702 0.778327,-0.17702 -0.176389,0.2861 -0.176379,0.28609 H 65.20791 64.658671 l 0.170226,0.27539 0.170225,0.2754 0.478484,-0.25593 0.478475,-0.25593 2.869169,-0.39508 2.869168,-0.3951 3.844916,0.0777 3.844953,0.0777 2.334383,0.13431 2.334446,0.13431 1.098559,0.42333 1.098541,0.42329 0.505227,0.0106 0.505246,0.0106 0.515464,0.61795 0.515472,0.61792 0.01059,-0.34351 0.01059,-0.34352 h 0.392362 0.392363 l 0.380097,0.3805 0.380117,0.3805 1.15001,0.58679 1.15001,0.58679 v 0.26859 0.26955 h 0.39829 0.39829 l 0.283172,0.48072 0.28319,0.48073 0.258845,-0.39411 0.258854,-0.39411 0.43956,0.36492 0.439478,0.36492 0.156622,-0.15661 0.156623,-0.15663 -0.575403,-0.49241 -0.575412,-0.49239 v -0.21313 -0.2131 h 0.336315 0.336305 l 0.922343,1.02985 0.922243,1.02986 0.26147,0.48072 0.261478,0.48072 h -0.326866 -0.326885 l 0.412699,0.48073 0.412798,0.48071 0.237169,0.41164 0.237143,0.41163 -0.734994,-0.48071 -0.735022,-0.48072 h -0.165754 -0.165764 l 0.553022,0.75514 0.553022,0.75515 0.976155,1.04514 0.976146,1.04523 0.02235,0.46515 0.02235,0.46515 0.141319,-0.35226 0.141319,-0.35228 -0.437795,-0.6773 -0.437731,-0.6773 -0.453569,-0.75514 -0.453587,-0.75514 0.76762,0.82423 0.767593,0.82425 -0.151102,-0.61794 -0.151093,-0.61795 h 0.248808 0.248835 v 0.28611 0.28611 l 0.276068,0.33184 0.276076,0.33183 0.822383,1.60713 0.8224,1.60699 v 0.59263 0.59265 l 0.50622,0.31626 0.50623,0.31626 0.44938,1.60373 0.4494,1.6038 0.55204,3.15827 0.55206,3.15839 0.002,3.17774 0.002,3.17765 -0.54932,2.57032 -0.54923,2.57031 v 0.49143 0.49143 l -0.70708,1.58725 -0.70707,1.58736 -0.39149,0.86512 -0.3915,0.86512 v 0.30166 0.30168 l -0.75524,1.44168 -0.755244,1.44177 -0.34331,0.21993 -0.34332,0.21993 v 0.28998 0.29 l -0.67691,0.86316 -0.67681,0.86318 -0.764978,0.94101 -0.764978,0.94102 -1.029877,1.06021 -1.029895,1.0603 v 0.26372 0.26373 l -0.34332,0.0106 -0.343328,0.0106 -1.232195,1.22684 -1.232221,1.22691 h -0.346931 -0.346921 v 0.25106 0.25109 l -1.853805,1.04999 -1.853808,1.04998 -2.334401,1.13606 -2.334428,1.13602 -2.059745,0.6082 -2.0598,0.6082 -1.213288,0.25108 -1.213316,0.25106 -2.906256,0.0777 -2.906292,0.0777 -1.647816,-0.1936 z m 7.885046,-9.04035 2.825836,-0.29096 1.922426,-0.57318 1.922463,-0.57317 0.137282,-0.1664 0.137283,-0.16639 2.446868,-1.19731 2.44684,-1.19725 0.299426,-0.24327 0.299453,-0.24328 1.647814,-1.22333 1.647843,-1.22321 1.283998,-1.45539 1.283998,-1.45544 0.756886,-0.92251 0.756815,-0.92254 0.933031,-1.54902 0.93304,-1.54911 0.558479,-1.51048 0.558479,-1.5105 0.371158,-1.78519 0.371149,-1.7851 0.01059,-1.52868 0.01059,-1.52879 -0.300005,-1.6296 -0.300024,-1.62957 -0.212806,-0.27444 -0.212834,-0.27441 -0.472755,-1.449 -0.472729,-1.44899 -0.835641,-1.57199 -0.835615,-1.57198 -0.843126,-1.23586 -0.843117,-1.23588 -2.277873,-2.26583 -2.277937,-2.26572 h -0.399455 -0.399485 l -0.219631,-0.34448 -0.21963,-0.34448 -2.059646,-1.00057 -2.05979,-1.00068 -0.508947,-0.16745 -0.508839,-0.16747 -1.962863,-0.4097 -1.962826,-0.40968 -3.844917,0.0106 -3.844943,0.0106 -1.510488,0.37562 -1.510534,0.37563 -1.235869,0.44472 -1.235859,0.44473 -1.235869,0.61209 -1.235878,0.61211 -0.1596,0.21602 -0.159601,0.21603 -1.076304,0.56735 -1.076332,0.56732 -0.68663,0.62181 -0.68654,0.62184 -0.48072,0.25399 -0.480728,0.25397 -1.916879,1.85663 -1.916897,1.85664 -0.993432,1.49676 -0.99345,1.49666 h -0.240862 -0.240844 l -0.419024,0.81062 -0.419034,0.81061 v 0.55372 0.5537 l 0.462809,0.97023 0.462828,0.97017 h 0.223821 0.22382 v 0.42818 0.42819 l 1.07044,2.24948 1.070404,2.24948 0.852828,1.83802 0.852774,1.83806 0.266338,0.16448 0.266339,0.16449 0.306829,1.15559 0.30682,1.15568 0.936542,1.41969 0.936543,1.41969 9.05e-4,0.3659 9.05e-4,0.36591 0.556741,0.91277 0.556696,0.91281 0.527139,0.56539 0.527156,0.56538 0.167031,0.76099 0.167039,0.76096 0.670385,0.16832 0.670394,0.1683 v 0.39315 0.39314 l 0.436537,0.24427 0.436545,0.24424 -0.0438,0.11284 -0.0438,0.11284 0.276647,0.7279 0.276665,0.7279 -0.299426,0.97517 -0.299426,0.97518 -0.576019,0.0876 -0.575991,0.0875 -0.605875,-0.37564 -0.605866,-0.37564 -0.264691,0.16343 -0.264683,0.16342 -0.400643,-0.40092 -0.400607,-0.40093 -0.514115,0.37757 -0.514106,0.37757 1.327312,0.57026 1.327285,0.57022 h 0.372995 0.372986 l 0.15046,0.24329 0.15045,0.24329 1.032918,0.19274 1.032954,0.19275 0.290955,0.24036 0.290974,0.24036 2.825935,0.26567 2.825972,0.26566 0.15598,0.15577 0.15598,0.15577 h 0.492712 0.492693 l 2.825809,-0.29097 z m -85.3001892,-2.25929 0.168161,-0.1683 0.131268,-1.18118 0.131269,-1.18119 -0.01466,-0.68703 -0.01466,-0.68703 0.01168,-3.98222 0.01168,-3.98225 -0.0043,-0.91082 -0.0043,-0.91085 -0.316069,-0.3805 -0.316074,-0.38048 0.01551,-7.56898 0.01551,-7.56897 0.256517,-0.47977 0.256514,-0.47975 0.175641,-2.05718 0.175642,-2.05718 0.105384,-0.82424 0.105385,-0.82423 -0.280065,-0.73472 -0.280065,-0.73472 0.26615,-1.7372 0.266147,-1.73733 -0.133606,-0.88069 -0.133606,-0.88067 -0.946267,-0.9744 -0.9462678,-0.9744 -4.173708,0.13048 -4.173717,0.13048 -2.746386,0.28904 -2.746376,0.28901 -1.991123,0.10117 -1.991123,0.10115 v -0.51963 -0.51966 h -0.961237 -0.961256 v 0.49726 0.49728 l 0.6373,1.63126 0.637301,1.63124 0.04671,1.74785 0.04671,1.74791 -0.424283,1.95967 -0.424284,1.95979 -0.254666,1.64778 -0.254668,1.64791 -0.129143,1.09855 -0.129144,1.09847 -0.293982,4.66888 -0.293979,4.66884 -0.2427,2.47175 -0.242696,2.47175 0.0049,0.82425 0.0049,0.82421 -0.171178,2.47174 -0.171179,2.47175 -0.0652,1.60506 -0.0652,1.60508 0.219829,0.13623 0.219828,0.13621 -0.268097,0.32309 -0.268096,0.32308 0.117264,1.21778 0.117264,1.21786 0.206392,0.20635 0.206392,0.20635 2.059464,0.0777 2.059456,0.0778 8.995352,-0.0191 8.9953418,-0.0191 0.168161,-0.1683 z m 4.3135835,-4.76347 -0.1551124,-1.13447 0.6049917,-0.60526 0.6049917,-0.6053 0.1535612,0.15386 0.1535621,0.15386 -0.2835701,0.35032 -0.2835674,0.35034 0.055469,0.68605 0.055469,0.68702 -0.2329667,0.48072 -0.2329659,0.48073 h 0.391101 0.3910965 l 0.1689257,-0.89236 0.1689257,-0.89236 0.1567703,-0.68701 0.1567695,-0.68702 0.1410022,-1.09856 0.1410013,-1.09859 0.044753,-1.07529 0.044753,-1.07531 0.3433177,-0.11476 0.3433177,-0.11475 v -0.26373 -0.2637 l -0.4665154,0.0777 -0.4664186,0.0777 -0.093421,-0.96142 -0.09342,-0.96145 0.00869,-0.96145 0.00869,-0.96144 -0.015512,-1.09858 -0.015512,-1.09856 -0.00679,-0.54886 -0.00679,-0.54883 0.013603,-1.78519 0.013602,-1.7851 -0.017431,-0.68703 -0.017431,-0.68605 0.029196,-0.54983 0.029196,-0.54884 -0.088556,-1.09855 -0.088556,-1.09856 -0.2250822,-0.82423 -0.2250849,-0.82425 -0.2401662,-0.30653 -0.240168,-0.30655 0.4148424,-0.34448 0.4149428,-0.34448 -0.020399,-2.64447 -0.020399,-2.64447 -0.1347747,-0.48072 -0.1347748,-0.48075 h -0.3772813 -0.3772831 l -0.1927703,0.31239 -0.1927694,0.31238 -0.063243,0.58094 -0.063261,0.58096 -0.035024,0.78435 -0.035042,0.78433 -0.4031649,-0.1547 -0.4031677,-0.15471 -0.1634856,0.26468 -0.1634856,0.26468 0.4293426,0.16449 0.4293445,0.16449 v 0.65682 0.65688 h -0.4119246 -0.4119255 v 0.68994 0.68994 l -0.3180179,0.50895 -0.3180179,0.50895 0.1954048,0.50896 0.1954048,0.50895 0.255642,-0.40387 0.2556394,-0.4048 0.00425,-1.21964 0.00425,-1.21971 0.4032653,0.53326 0.4031649,0.53328 0.00869,0.56345 0.00869,0.56344 -0.2766566,0.27636 -0.2766611,0.27638 -0.2536945,2.59328 -0.2536926,2.59326 -0.330671,0.92254 -0.3306664,0.92156 0.3401058,0.21017 0.3401085,0.21017 -0.3031294,0.56638 -0.3031266,0.56634 -0.091465,2.63891 -0.091487,2.63884 0.170094,0.10499 0.170095,0.10519 -0.040862,1.80533 -0.040871,1.80534 0.168161,2e-4 0.1681609,1.9e-4 0.033088,0.61792 0.033088,0.61795 0.2029916,3.55063 0.2029916,3.55067 0.5036918,-0.6666 0.5036892,-0.66659 -0.1551124,-1.13437 z m 18.9471207,-4.50118 1.698601,-0.006 1.922469,-0.28902 1.92246,-0.28904 5.355443,-0.006 5.355433,-0.006 6.04203,0.17915 6.042031,0.17915 2.42379,0.2004 2.423808,0.2004 0.132839,-0.21507 0.13282,-0.21506 h -0.245323 -0.245324 l -1.18812,-2.50016 -1.18812,-2.50005 -0.353338,-3.47328 -0.353347,-3.47328 -0.01059,-2.60905 -0.01059,-2.60905 0.165637,-0.61792 0.165628,-0.61794 0.585919,-0.0106 0.585919,-0.0106 -0.472547,-0.35908 -0.472547,-0.35909 -0.420002,-1.61247 -0.420003,-1.61248 v -0.47875 -0.47879 l -0.3187,-0.69967 -0.318698,-0.69968 h -0.448096 -0.448225 l -1.498837,-2.2486 -1.498828,-2.2486 -0.166991,-0.29194 -0.166993,-0.29193 -0.49892,-0.96147 -0.498921,-0.96145 -0.158046,-0.13728 -0.158044,-0.13728 -0.495613,-0.82425 -0.495612,-0.82423 -0.405307,-0.90404 -0.405307,-0.90401 -0.274713,0.16936 -0.274713,0.17023 0.164059,0.87485 0.164059,0.87484 -0.560522,1.23266 -0.560519,1.23266 -1.31155,2.09095 -1.31156,2.09096 -0.686542,0.89625 -0.686634,0.89625 -0.480629,0.51479 -0.480627,0.51479 v 0.25203 0.25204 l -0.219245,0.0875 -0.219244,0.0875 -1.84053,2.23595 -1.840544,2.23597 v 0.13133 0.13133 l -1.174144,1.20329 -1.174145,1.20337 -0.679631,0.91958 -0.67963,0.9196 -0.437907,0.45348 -0.437909,0.45348 -1.196554,1.78521 -1.196564,1.7851 -0.493959,0.53228 -0.493959,0.5323 v 0.35033 0.35032 l -0.572491,0.30655 -0.572489,0.30653 -0.374848,0.89723 -0.374849,0.89722 -0.835233,0.65978 -0.835234,0.65979 -0.0025,0.48072 -0.0025,0.48073 h -0.411988 -0.411923 v 0.55759 0.55758 l -0.411927,0.15769 -0.411923,0.15769 v 0.2637 0.26372 l -0.685275,0.89821 -0.685277,0.89818 0.164272,0.16449 0.164272,0.16448 0.676226,-0.2569 0.676226,-0.25691 1.698611,-0.006 z m 41.658387,0.47877 v -0.0777 l -0.288032,-2.32724 -0.288068,-2.32722 -0.582299,-1.29864 -0.582308,-1.29874 -1.05225,-0.69677 -1.052231,-0.69674 v -0.27055 -0.27053 h -0.519653 -0.519853 l -0.219631,0.48073 -0.21963,0.48074 -0.02335,0.27442 -0.02335,0.27442 -0.241622,0.38632 -0.241632,0.38635 0.0476,1.25464 0.0476,1.25476 0.68597,1.03655 0.685969,1.03648 h 0.226726 0.226725 l 0.358425,1.08612 0.358406,1.08601 0.440808,0.11774 0.440727,0.11773 1.167205,0.0291 1.167223,0.0291 v -0.0777 z m -60.8214266,-30.95824 0.1788718,-0.96144 0.2046487,-0.36786 0.2046496,-0.36784 -0.2771454,-1.21096 -0.277148,-1.21095 h -0.1889864 -0.1889873 l -0.0506,0.75514 -0.0506,0.75516 -0.099158,3.29567 -0.099159,3.29569 0.2321884,-1.51058 0.2321885,-1.51048 z m 1.6512424,1.99119 0.2103015,-0.48072 0.105576,-1.51057 0.1055761,-1.51049 -0.028218,-1.51048 -0.028219,-1.51049 -0.2585571,-0.26082 -0.2585607,-0.26079 v 0.4671 0.4671 H -4.262333 -4.5544628 l 0.1302062,1.78521 0.1302062,1.78512 h -0.2499992 -0.2499966 v 1.32743 1.32733 l 0.1830576,0.18298 0.1830368,0.18297 h 0.1994846 0.1994856 z m -25.7958948,-8.7336 0.458926,-0.70065 0.362489,0.1392 0.362489,0.13919 0.162318,-0.26275 0.162316,-0.26275 -0.359472,-0.0291 -0.359474,-0.0291 -0.961253,0.0291 -0.961255,0.0291 -0.745898,0.0191 -0.746001,0.0191 0.331349,0.53034 0.331351,0.53037 h 0.192387 0.192388 l 0.177978,-0.28804 0.177979,-0.28806 0.423991,0.3513 0.42399,0.35229 -0.654427,0.18297 -0.654329,0.18298 0.61161,0.0291 0.611609,0.0291 z"
       id="path1573" /><rect
       style="fill:none;stroke-width:0.529167;stroke-linecap:square"
       id="rect6286"
       width="69.849991"
       height="33.86665"
       x="57.150005"
       y="129.11667"
       rx="0"
       ry="0" /></g></svg>
