<?xml version="1.0" encoding="UTF-8" standalone="no"?>
<!-- Created with Inkscape (http://www.inkscape.org/) -->

<svg
   width="1000.0001"
   height="600"
   viewBox="0 0 264.58335 158.75"
   version="1.1"
   id="svg5"
   sodipodi:docname="spiral.svg"
   inkscape:version="1.2.2 (732a01da63, 2022-12-09)"
   xmlns:inkscape="http://www.inkscape.org/namespaces/inkscape"
   xmlns:sodipodi="http://sodipodi.sourceforge.net/DTD/sodipodi-0.dtd"
   xmlns:xlink="http://www.w3.org/1999/xlink"
   xmlns="http://www.w3.org/2000/svg"
   xmlns:svg="http://www.w3.org/2000/svg">
  <sodipodi:namedview
     id="namedview7"
     pagecolor="#ffffff"
     bordercolor="#000000"
     borderopacity="0.25"
     inkscape:showpageshadow="2"
     inkscape:pageopacity="0.0"
     inkscape:pagecheckerboard="true"
     inkscape:deskcolor="#d1d1d1"
     inkscape:document-units="px"
     showgrid="true"
     inkscape:zoom="0.84096521"
     inkscape:cx="576.12371"
     inkscape:cy="155.17883"
     inkscape:window-width="1920"
     inkscape:window-height="1129"
     inkscape:window-x="-8"
     inkscape:window-y="-8"
     inkscape:window-maximized="1"
     inkscape:current-layer="layer1">
    <inkscape:grid
       type="xygrid"
       id="grid182"
       originx="0"
       originy="0" />
  </sodipodi:namedview>
  <defs
     id="defs2">
    <linearGradient
       inkscape:collect="always"
       id="linearGradient30182">
      <stop
         style="stop-color:#000000;stop-opacity:1;"
         offset="0"
         id="stop30178" />
      <stop
         style="stop-color:#ffffff;stop-opacity:1;"
         offset="1"
         id="stop30180" />
    </linearGradient>
    <linearGradient
       inkscape:collect="always"
       id="linearGradient30174">
      <stop
         style="stop-color:#ffffff;stop-opacity:1;"
         offset="0"
         id="stop30170" />
      <stop
         style="stop-color:#000000;stop-opacity:1;"
         offset="1"
         id="stop30172" />
    </linearGradient>
    <radialGradient
       inkscape:collect="always"
       xlink:href="#linearGradient30174"
       id="radialGradient31658"
       cx="132.80453"
       cy="76.421272"
       fx="132.80453"
       fy="76.421272"
       r="81.616875"
       gradientTransform="matrix(1.3136348,-1.5237654e-7,1.1110236e-7,1.4996999,-41.652122,-38.187683)"
       gradientUnits="userSpaceOnUse" />
    <radialGradient
       inkscape:collect="always"
       xlink:href="#linearGradient30182"
       id="radialGradient31660"
       cx="140.22916"
       cy="79.375"
       fx="140.22916"
       fy="79.375"
       r="132.29167"
       gradientTransform="matrix(1.6599999,-1.7723455e-8,1.791644e-8,1,-92.551232,2.4853451e-6)"
       gradientUnits="userSpaceOnUse" />
  </defs>
  <g
     inkscape:label="Layer 1"
     inkscape:groupmode="layer"
     id="layer1">
    <rect
       style="fill:url(#radialGradient31660);fill-opacity:1;stroke-width:0.529167;stroke-linecap:round;stroke-linejoin:round"
       id="rect29274"
       width="264.58334"
       height="158.75"
       x="-8.9940386e-06"
       y="-2.3446653e-06"
       rx="6.0689575e-07"
       ry="1.1165073e-06" />
    <g
       id="g30116"
       transform="matrix(1.1351827,0,0,1.080807,-8.1115768,-13.872004)">
      <path
         id="path30108"
         style="fill:url(#radialGradient31658);fill-rule:evenodd;stroke:none;stroke-width:0.264583;fill-opacity:1"
         transform="translate(0.20186766,9.8540774)"
         d="M 240.01929,149.86176 V 2.9807803 L 141.07846,3.1405918 C 121.523,3.1721783 102.4251,11.945289 89.79324,27.773159 71.104954,51.189796 71.842362,87.865806 96.645556,106.79546 c 18.007904,13.74352 45.964684,12.92497 59.828154,-6.36116 9.54919,-13.284325 8.7016,-33.722221 -5.74882,-43.266966 -9.25074,-6.110275 -23.379,-5.285252 -29.35652,5.012969 -3.43236,5.913349 -2.67929,14.952053 4.15035,18.118506 3.28068,1.521034 8.46113,0.880956 9.58055,-3.156055 0.37928,-1.367817 -0.13507,-3.907412 -2.02124,-3.781051 -0.17391,0.01165 -1.01944,0.23203 -0.763,0.788994 0.25643,0.556964 -0.19288,0.833536 -0.33362,0.936362 -1.52641,1.115209 -3.31885,-0.755957 -3.72962,-2.114649 -1.21235,-4.010082 2.82333,-7.320681 6.40897,-7.789273 7.4645,-0.975504 12.93337,6.260295 13.19427,13.092624 0.45438,11.89864 -11.04403,20.1494 -22.12844,19.93156 C 108.41183,97.867045 96.768607,81.048561 97.736081,64.716865 99.140652,41.006576 122.32871,25.367991 144.89467,27.354586 c 31.08124,2.736248 51.31291,33.336132 48.03933,63.116571 -3.3018,30.037053 -27.71133,53.269623 -56.63333,59.390603 z"
         sodipodi:nodetypes="ccssssssssszsssssssscc" />
    </g>
  </g>
</svg>
