<?xml version="1.0" encoding="UTF-8" standalone="no"?>
<!-- Svg Vector Icons : http://www.onlinewebfonts.com/icon -->

<svg
   version="1.1"
   x="0px"
   y="0px"
   viewBox="0 0 63.999996 63.999996"
   enable-background="new 0 0 1000 1000"
   xml:space="preserve"
   id="svg322"
   sodipodi:docname="back_pressed.svg"
   width="63.999996"
   height="63.999996"
   inkscape:version="1.2.1 (9c6d41e410, 2022-07-14)"
   xmlns:inkscape="http://www.inkscape.org/namespaces/inkscape"
   xmlns:sodipodi="http://sodipodi.sourceforge.net/DTD/sodipodi-0.dtd"
   xmlns="http://www.w3.org/2000/svg"
   xmlns:svg="http://www.w3.org/2000/svg"><defs
   id="defs326" /><sodipodi:namedview
   id="namedview324"
   pagecolor="#ffffff"
   bordercolor="#000000"
   borderopacity="0.25"
   inkscape:showpageshadow="2"
   inkscape:pageopacity="0.0"
   inkscape:pagecheckerboard="true"
   inkscape:deskcolor="#d1d1d1"
   showgrid="false"
   inkscape:zoom="3.776"
   inkscape:cx="17.478814"
   inkscape:cy="91.763771"
   inkscape:window-width="1920"
   inkscape:window-height="1137"
   inkscape:window-x="3832"
   inkscape:window-y="113"
   inkscape:window-maximized="1"
   inkscape:current-layer="svg322" />
<metadata
   id="metadata316"> Svg Vector Icons : http://www.onlinewebfonts.com/icon </metadata>
<g
   id="g320"
   transform="matrix(0.06326531,0,0,0.06326531,0.36734309,0.36734309)"
   style="fill:#1376ff;stroke-width:15.8064;fill-opacity:1"><path
     d="M 500,10 C 229.4,10 10,229.4 10,500 10,770.6 229.4,990 500,990 770.6,990 990,770.6 990,500 990,229.4 770.6,10 500,10 Z m 221.4,635.6 c -6.1,3.4 -13.7,2.6 -19,-2 -0.8,-0.8 -80.5,-70 -202.5,-75.9 v 145.6 c 0,6.7 -4.1,12.8 -10.4,15.3 -1.9,0.8 -4,1.1 -6,1.1 -4.4,0 -8.8,-1.8 -12,-5.2 L 274.6,513.1 c -5.8,-6.3 -5.9,-16 -0.1,-22.3 l 197,-215.1 c 4.6,-5 11.8,-6.6 18.1,-4.1 6.3,2.5 10.4,8.5 10.4,15.3 v 115.4 c 76.6,4.8 139.9,43.9 183.9,113.8 34.9,55.4 45.2,110.1 45.6,112.4 1.3,6.7 -2,13.6 -8.1,17.1 z"
     id="path318"
     style="fill:#1376ff;stroke-width:15.8064;fill-opacity:1" /></g>
</svg>
