<?xml version="1.0" encoding="UTF-8" standalone="no"?>
<!-- Created with Inkscape (http://www.inkscape.org/) -->

<svg
   width="16.933334mm"
   height="16.933334mm"
   viewBox="0 0 16.933334 16.933334"
   version="1.1"
   id="svg5"
   inkscape:version="1.2.1 (9c6d41e410, 2022-07-14)"
   sodipodi:docname="circle_pressed.svg"
   xmlns:inkscape="http://www.inkscape.org/namespaces/inkscape"
   xmlns:sodipodi="http://sodipodi.sourceforge.net/DTD/sodipodi-0.dtd"
   xmlns="http://www.w3.org/2000/svg"
   xmlns:svg="http://www.w3.org/2000/svg">
  <sodipodi:namedview
     id="namedview7"
     pagecolor="#ffffff"
     bordercolor="#000000"
     borderopacity="0.25"
     inkscape:showpageshadow="2"
     inkscape:pageopacity="0.0"
     inkscape:pagecheckerboard="true"
     inkscape:deskcolor="#d1d1d1"
     inkscape:document-units="mm"
     showgrid="true"
     inkscape:zoom="6.7277215"
     inkscape:cx="42.956594"
     inkscape:cy="42.882274"
     inkscape:window-width="1920"
     inkscape:window-height="1137"
     inkscape:window-x="3832"
     inkscape:window-y="113"
     inkscape:window-maximized="1"
     inkscape:current-layer="layer1">
    <inkscape:grid
       type="xygrid"
       id="grid236"
       originx="-7.9374994"
       originy="-26.45833" />
  </sodipodi:namedview>
  <defs
     id="defs2" />
  <g
     inkscape:label="Layer 1"
     inkscape:groupmode="layer"
     id="layer1"
     transform="translate(-7.9375001,-26.458332)">
    <path
       style="fill:#ffffff;stroke-width:0.999995;opacity:1"
       d="m 14.832543,42.831093 c -0.230496,-0.02797 -0.591954,-0.08574 -0.803243,-0.128406 -0.211287,-0.04265 -0.491148,-0.0928 -0.621915,-0.111429 -0.130765,-0.01865 -0.335068,-0.09366 -0.454006,-0.166749 -0.193375,-0.118828 -0.701812,-0.261829 -0.820714,-0.230834 -0.02513,0.0066 -0.08399,-0.03424 -0.130785,-0.09062 -0.0468,-0.05642 -0.140856,-0.102537 -0.209005,-0.102537 -0.06816,0 -0.21748,-0.106578 -0.331849,-0.236832 -0.14706,-0.167493 -0.292329,-0.251087 -0.496165,-0.285529 -0.1707,-0.02887 -0.288223,-0.08699 -0.288223,-0.142621 0,-0.05164 -0.06287,-0.113878 -0.139695,-0.138255 -0.07683,-0.02442 -0.139694,-0.07153 -0.139694,-0.104766 0,-0.03325 -0.06126,-0.07985 -0.136122,-0.103641 -0.07486,-0.02376 -0.157147,-0.109457 -0.182847,-0.190428 -0.0257,-0.08101 -0.1608897,-0.253429 -0.3004226,-0.383229 -0.253697,-0.236015 -0.253697,-0.236015 -0.079076,-0.392842 0.1854609,-0.166569 0.2765001,-0.500465 0.1224532,-0.449112 -0.048142,0.01609 -0.091459,0.06583 -0.096262,0.110662 -0.00484,0.0448 -0.016387,0.10506 -0.025732,0.133876 -0.00936,0.02879 -0.013286,0.07597 -0.00872,0.104766 0.00452,0.02879 -0.023156,0.05239 -0.061575,0.05239 -0.038419,0 -0.069847,-0.08011 -0.069847,-0.177954 0,-0.103189 -0.078467,-0.250682 -0.1867738,-0.351048 -0.1354105,-0.125494 -0.1657229,-0.194148 -0.1102286,-0.249643 0.042098,-0.04208 0.061859,-0.114827 0.043906,-0.161611 -0.052567,-0.136977 0.151664,-0.257736 0.3511922,-0.20766 0.09971,0.02499 0.1812985,0.07977 0.1812985,0.121747 0,0.05115 0.023125,0.05312 0.07031,0.0058 0.082839,-0.08284 -0.228965,-1.040093 -0.4014046,-1.232335 -0.089367,-0.09964 -0.09149,-0.122433 -0.01151,-0.123308 0.066557,-7.26e-4 0.072875,-0.01757 0.019645,-0.05239 -0.2955854,-0.19324 -0.6673797,-1.234233 -0.7639321,-2.138949 -0.177609,-1.66422 -0.1307245,-2.555465 0.1346379,-2.559416 0.1406188,-0.0025 0.1419474,-0.0075 0.023598,-0.09734 -0.1272106,-0.09648 -0.2540113,-0.598917 -0.1511479,-0.598917 0.030808,0 0.1135039,0.05205 0.183757,0.115603 0.1368211,0.123818 0.1810126,0.03547 0.04852,-0.09702 -0.059042,-0.05907 -0.025711,-0.129273 0.1309379,-0.275894 0.1155777,-0.108178 0.2474291,-0.268923 0.2930007,-0.357203 0.055752,-0.108004 0.1233319,-0.147668 0.2065802,-0.121245 0.2117118,0.06716 0.84563,-0.935958 0.84563,-1.338186 0,-0.08961 0.04233,-0.161157 0.09535,-0.161157 0.165792,0 0.463409,-0.283343 0.463856,-0.441613 2.38e-4,-0.08365 0.04738,-0.242119 0.104766,-0.352153 0.05738,-0.110035 0.104367,-0.251475 0.104398,-0.314313 7.7e-5,-0.142092 0.468823,-0.602151 0.680948,-0.66833 0.118279,-0.03687 0.157156,-0.0212 0.157156,0.0636 0,0.129305 0.43831,0.08545 0.628624,-0.06286 0.05762,-0.04496 0.293358,-0.174398 0.523854,-0.287723 0.411913,-0.202538 0.799436,-0.451084 0.703298,-0.451084 -0.02691,0 -0.10973,0.0325 -0.184036,0.07226 -0.0743,0.03976 -0.135103,0.0448 -0.135103,0.01121 0,-0.07548 0.313339,-0.223063 0.474754,-0.223648 0.06542,-2.32e-4 0.208975,-0.04735 0.31901,-0.104766 0.238193,-0.124224 0.460461,-0.143223 0.346889,-0.02962 -0.04108,0.04109 -0.118086,0.08422 -0.171126,0.09587 -0.444649,0.09767 -0.543216,0.133868 -0.510148,0.187374 0.02181,0.03531 0.08834,0.03465 0.156023,-0.0017 0.0649,-0.03473 0.275149,-0.08596 0.467229,-0.113854 0.19208,-0.02789 0.380667,-0.06939 0.419083,-0.09223 0.104398,-0.06204 2.643089,-0.07441 2.724038,-0.01329 0.03842,0.02904 0.227004,0.03258 0.419084,0.0082 0.192079,-0.02459 0.396382,-0.02302 0.454006,0.0033 0.177757,0.08176 0.848222,0.270621 0.960719,0.270621 0.05858,0 0.151239,0.05503 0.205908,0.122227 0.06873,0.08452 0.110209,0.09652 0.134446,0.03886 0.03934,-0.09359 0.233819,-0.0462 0.340572,0.08295 0.03854,0.04661 0.203559,0.152899 0.366697,0.236122 0.163138,0.08323 0.296613,0.182111 0.296613,0.219745 0,0.03762 0.04814,0.06839 0.106963,0.06839 0.05883,0 0.125056,0.04718 0.147168,0.104766 0.02211,0.05767 0.07165,0.104766 0.110051,0.104766 0.03842,0 0.05023,-0.05115 0.02626,-0.113582 -0.03924,-0.102243 -0.02542,-0.101686 0.138282,0.0058 0.225223,0.14757 0.28961,0.105071 0.10033,-0.06624 -0.165781,-0.150027 -0.1801,-0.24485 -0.03698,-0.24485 0.150394,0 0.693619,0.707566 0.59162,0.77061 -0.05824,0.03597 -0.0594,0.06352 -0.0041,0.09764 0.04232,0.02615 0.113211,0.115339 0.157557,0.198198 0.07955,0.148642 0.07819,0.149055 -0.101938,0.03102 -0.357226,-0.234068 -0.251076,-0.0198 0.262732,0.530346 0.136542,0.146201 0.250741,0.319072 0.253773,0.384162 0.0036,0.07623 0.0183,0.08651 0.04149,0.02879 0.01979,-0.04925 -0.01413,-0.167121 -0.07536,-0.261927 -0.322073,-0.498659 -0.352761,-0.573698 -0.141909,-0.346997 0.175035,0.188183 0.190749,0.193521 0.154197,0.05239 -0.02239,-0.08643 -0.0122,-0.157156 0.02261,-0.157156 0.03482,0 0.06331,0.04719 0.06331,0.104766 0,0.05767 0.02716,0.104776 0.06036,0.104776 0.03319,0 0.11343,0.138966 0.178295,0.30881 0.06487,0.169843 0.163428,0.34656 0.219032,0.392709 0.0556,0.04611 0.101097,0.186698 0.101097,0.31234 0,0.136442 0.04131,0.244289 0.102559,0.267801 0.148137,0.05684 0.305678,0.477886 0.420478,1.123777 0.05504,0.309685 0.134401,0.74412 0.176352,0.965408 0.211509,1.115727 -0.04896,3.280876 -0.527175,4.38219 -0.357335,0.82292 -0.608982,1.346964 -0.693963,1.445151 -0.03957,0.0457 -0.150534,0.198445 -0.246575,0.339367 -0.09604,0.140929 -0.253195,0.346592 -0.349235,0.457031 -0.09604,0.110446 -0.316059,0.372316 -0.488931,0.581931 -0.172871,0.209624 -0.34596,0.383016 -0.384642,0.385309 -0.03868,0.0025 -0.165201,0.10633 -0.281154,0.23118 -0.722565,0.778018 -2.603331,1.708266 -4.068922,2.012531 -0.412487,0.08563 -1.707212,0.119447 -2.215073,0.05783 z m -1.571561,-0.795655 c 0,-0.01922 -0.01571,-0.0349 -0.03492,-0.0349 -0.0192,0 -0.03492,0.01567 -0.03492,0.0349 0,0.01922 0.01571,0.0349 0.03492,0.0349 0.01921,0 0.03492,-0.01567 0.03492,-0.0349 z m -0.558777,-0.147842 c 0,-0.01468 -0.08043,-0.02681 -0.17874,-0.02681 -0.0983,0 -0.161139,0.02846 -0.139625,0.06328 0.03579,0.05792 0.318365,0.02549 0.318365,-0.03655 z M 11.372997,41.22825 c -0.04228,-0.07903 -0.123771,-0.161636 -0.181089,-0.183638 -0.05732,-0.02203 -0.08829,-0.0815 -0.06885,-0.132168 0.01953,-0.0509 -0.02558,-0.111535 -0.100761,-0.135394 -0.07487,-0.02376 -0.136129,-0.07771 -0.136129,-0.119983 0,-0.108095 -0.09388,-0.0025 -0.112888,0.127458 -0.0086,0.0589 0.03282,0.125692 0.09213,0.148453 0.05931,0.02277 0.199343,0.13083 0.311175,0.240148 0.240529,0.235123 0.301964,0.252365 0.196401,0.05511 z m -0.9059,-0.450061 c 0,-0.01923 -0.01572,-0.0349 -0.03492,-0.0349 -0.0192,0 -0.03492,0.01567 -0.03492,0.0349 0,0.01922 0.01571,0.0349 0.03492,0.0349 0.0192,0 0.03492,-0.01567 0.03492,-0.0349 z m 6.600555,-0.282411 c 0.268912,-0.02343 0.646086,-0.0896 0.838166,-0.147107 0.34441,-0.103095 1.922778,-0.84437 1.990644,-0.934886 0.0192,-0.02566 0.166888,-0.129231 0.328179,-0.230248 0.454933,-0.284927 1.767235,-1.687336 1.767235,-1.888579 0,-0.0259 0.08406,-0.174068 0.186793,-0.32931 0.574939,-0.868798 0.849233,-3.075582 0.446215,-3.589958 -0.03066,-0.0391 -0.110037,-0.237548 -0.176393,-0.440919 -0.319168,-0.97822 -1.263973,-2.280595 -2.019451,-2.783725 -0.158463,-0.10553 -0.319545,-0.224952 -0.357961,-0.265367 -0.212722,-0.22383 -1.198003,-0.630629 -1.873053,-0.773349 -1.431065,-0.30254 -4.007906,0.09659 -4.552884,0.70519 -0.03842,0.0429 -0.195573,0.151621 -0.349236,0.241599 -0.666122,0.390029 -1.66442,1.303489 -2.039244,1.865943 -0.134405,0.201679 -0.27194,0.366697 -0.305634,0.366697 -0.164402,0 -0.362155,0.705858 -0.222005,0.79243 0.09819,0.06064 0.01179,0.744202 -0.09405,0.744202 -0.284336,0 -0.359943,0.230264 -0.358341,1.091332 8.25e-4,0.456206 -0.02435,0.908048 -0.056,1.004083 -0.120722,0.366302 0.139267,1.187407 0.375976,1.187407 0.03172,0 0.09899,0.125206 0.149506,0.278245 0.07677,0.232624 0.129756,0.285364 0.323111,0.321637 0.243969,0.04579 0.266765,0.08472 0.34391,0.587517 0.05247,0.342007 0.624079,0.977857 0.879056,0.977857 0.06823,0 0.222462,0.122467 0.342744,0.27214 0.141474,0.176048 0.333778,0.313166 0.544607,0.38832 0.179251,0.06386 0.374089,0.141737 0.432973,0.172987 0.05888,0.03127 0.216042,0.08011 0.349236,0.108673 0.133196,0.02855 0.276572,0.07944 0.318615,0.113186 0.04204,0.03374 0.396288,0.08836 0.787208,0.121419 0.390923,0.03308 0.733699,0.08305 0.761724,0.111089 0.02802,0.02806 0.208114,0.03366 0.400194,0.01254 0.192079,-0.02112 0.569254,-0.05767 0.838165,-0.08101 z m 4.435294,-3.140103 c 0,-0.05766 0.051,-0.104765 0.113322,-0.104765 0.09282,0 0.09759,0.01897 0.02637,0.104765 -0.04783,0.05767 -0.09882,0.104766 -0.113323,0.104766 -0.01451,0 -0.02637,-0.04718 -0.02637,-0.104766 z m -11.245392,2.728164 c 0,-0.01691 -0.03143,-0.05024 -0.06985,-0.074 -0.03842,-0.02376 -0.06985,-0.0099 -0.06985,0.03077 0,0.04067 0.03143,0.074 0.06985,0.074 0.03842,0 0.06985,-0.01387 0.06985,-0.03077 z m 1.955721,-0.213666 c 0,-0.01922 -0.01572,-0.0349 -0.03492,-0.0349 -0.0192,0 -0.03492,0.01567 -0.03492,0.0349 0,0.01922 0.01571,0.0349 0.03492,0.0349 0.0192,0 0.03492,-0.01567 0.03492,-0.0349 z m 9.708754,-11.031731 c 0,-0.01691 -0.0363,-0.05321 -0.08064,-0.0806 -0.04996,-0.03085 -0.06168,-0.01914 -0.03081,0.03077 0.04976,0.08052 0.11144,0.108104 0.11144,0.04983 z M 9.1400006,31.767906 c 0,-0.01923 0.015714,-0.0349 0.034918,-0.0349 0.019204,0 0.034918,0.01567 0.034918,0.0349 0,0.01922 -0.015714,0.0349 -0.034918,0.0349 -0.019204,0 -0.034918,-0.01567 -0.034918,-0.0349 z m 0.4889309,-0.454013 c -0.089535,-0.05783 -0.087002,-0.06789 0.017459,-0.06881 0.06723,-5.87e-4 0.1222314,0.03036 0.1222314,0.06881 0,0.08518 -0.00788,0.08518 -0.1396938,0 z m -0.2095422,-0.0349 c 0,-0.01922 0.015714,-0.0349 0.034918,-0.0349 0.019204,0 0.034918,0.01576 0.034918,0.0349 0,0.01922 -0.015714,0.0349 -0.034918,0.0349 -0.019204,0 -0.034918,-0.01567 -0.034918,-0.0349 z m 1.8160257,-3.092114 c 0,-0.06236 0.369846,-0.42409 0.541315,-0.529455 0.05481,-0.03366 0.08731,-0.01485 0.08731,0.05057 0,0.05734 -0.06087,0.123506 -0.135269,0.147116 -0.0744,0.0236 -0.145119,0.112171 -0.157156,0.196788 -0.02125,0.149377 -0.336199,0.27586 -0.336199,0.135014 z m 9.638907,-0.749482 c 0,-0.01923 0.01571,-0.0349 0.03492,-0.0349 0.0192,0 0.03492,0.01567 0.03492,0.0349 0,0.01922 -0.01571,0.0349 -0.03492,0.0349 -0.0192,0 -0.03492,-0.01576 -0.03492,-0.0349 z m -1.850951,-0.244461 c -0.02374,-0.03844 -0.0099,-0.06988 0.03081,-0.06988 0.04068,0 0.07397,0.03143 0.07397,0.06988 0,0.03844 -0.01386,0.06988 -0.03081,0.06988 -0.01694,0 -0.05022,-0.03143 -0.07397,-0.06988 z m 1.157039,-0.09928 c -0.06761,-0.08142 -0.05661,-0.09253 0.06129,-0.06171 0.07903,0.02062 0.143686,0.06534 0.143686,0.09928 0,0.09421 -0.112764,0.07351 -0.204982,-0.03754 z m -1.378221,-0.01715 c 0.02562,-0.02566 0.06752,-0.02566 0.09313,0 0.02561,0.02557 0.0046,0.04652 -0.04656,0.04652 -0.05122,0 -0.07218,-0.02096 -0.04657,-0.04652 z m -3.742643,-0.06954 c 0.04803,-0.01938 0.126598,-0.01938 0.174618,0 0.04803,0.01938 0.0087,0.03522 -0.08731,0.03522 -0.09604,0 -0.135328,-0.01584 -0.08731,-0.03522 z m 3.463254,-3.05e-4 c 0.02561,-0.02557 0.06751,-0.02557 0.09313,0 0.0256,0.02566 0.0046,0.04661 -0.04658,0.04661 -0.05122,0 -0.07217,-0.02096 -0.04657,-0.04661 z"
       id="path445" />
  </g>
</svg>
