<?xml version="1.0" encoding="UTF-8" standalone="no"?>
<svg
   id="Layer_1"
   data-name="Layer 1"
   viewBox="0 0 64.000001 64"
   version="1.1"
   sodipodi:docname="fx_off.svg"
   width="64"
   height="64"
   inkscape:version="1.2.2 (732a01da63, 2022-12-09)"
   xmlns:inkscape="http://www.inkscape.org/namespaces/inkscape"
   xmlns:sodipodi="http://sodipodi.sourceforge.net/DTD/sodipodi-0.dtd"
   xmlns="http://www.w3.org/2000/svg"
   xmlns:svg="http://www.w3.org/2000/svg"
   xmlns:rdf="http://www.w3.org/1999/02/22-rdf-syntax-ns#"
   xmlns:cc="http://creativecommons.org/ns#"
   xmlns:dc="http://purl.org/dc/elements/1.1/">
  <defs
     id="defs427" />
  <sodipodi:namedview
     id="namedview425"
     pagecolor="#ffffff"
     bordercolor="#000000"
     borderopacity="0.25"
     inkscape:showpageshadow="2"
     inkscape:pageopacity="0.0"
     inkscape:pagecheckerboard="true"
     inkscape:deskcolor="#d1d1d1"
     showgrid="true"
     inkscape:zoom="9.8333333"
     inkscape:cx="20.59322"
     inkscape:cy="40.830509"
     inkscape:window-width="1920"
     inkscape:window-height="1137"
     inkscape:window-x="-8"
     inkscape:window-y="-8"
     inkscape:window-maximized="1"
     inkscape:current-layer="Layer_1">
    <inkscape:grid
       type="xygrid"
       id="grid595" />
  </sodipodi:namedview>
  <title
     id="title420">volume-mute</title>
  <path
     id="path422"
     style="fill:#ffffff;stroke-width:1"
     d="m 48.984375,4 c -0.597202,0 -1.192993,0.2276419 -1.648437,0.6835938 l -12.3125,12.4062502 h -7.13086 L 51.328125,34.542969 V 6.328125 C 51.329887,5.7086133 51.079812,5.1145575 50.634766,4.6835938 50.17932,4.2276419 49.581577,4 48.984375,4 Z M 9.5117188,5.8027344 5.9277344,10.615234 57.742188,49.197266 l 3.582031,-4.8125 z M 14.552734,19.623047 c -1.164369,1.316267 -1.876399,3.040843 -1.880859,4.935547 L 12.533203,39.533203 C 12.542818,43.653702 15.879501,46.9904 20,47 h 15 l 12.306641,12.269531 c 1.461581,1.538939 4.050884,0.483518 4.021484,-1.638672 V 47.009766 Z"
     sodipodi:nodetypes="sccccccscccccccccccccc" />
  <metadata
     id="metadata593">
    <rdf:RDF>
      <cc:Work
         rdf:about="">
        <dc:title>volume-mute</dc:title>
      </cc:Work>
    </rdf:RDF>
  </metadata>
  <g
     id="path838">
    <path
       style="color:#000000;fill:#00ff00;stroke-width:10;stroke-linecap:square;-inkscape-stroke:none"
       d="M 10,10 57,45"
       id="path999" />
  </g>
</svg>
