<?xml version="1.0" encoding="UTF-8" standalone="no"?>
<svg
   id="Layer_1"
   data-name="Layer 1"
   viewBox="0 0 64.000001 64"
   version="1.1"
   sodipodi:docname="fx_off.svg"
   width="64"
   height="64"
   inkscape:version="1.2.1 (9c6d41e410, 2022-07-14)"
   xmlns:inkscape="http://www.inkscape.org/namespaces/inkscape"
   xmlns:sodipodi="http://sodipodi.sourceforge.net/DTD/sodipodi-0.dtd"
   xmlns="http://www.w3.org/2000/svg"
   xmlns:svg="http://www.w3.org/2000/svg"
   xmlns:rdf="http://www.w3.org/1999/02/22-rdf-syntax-ns#"
   xmlns:cc="http://creativecommons.org/ns#"
   xmlns:dc="http://purl.org/dc/elements/1.1/">
  <defs
     id="defs427" />
  <sodipodi:namedview
     id="namedview425"
     pagecolor="#ffffff"
     bordercolor="#000000"
     borderopacity="0.25"
     inkscape:showpageshadow="2"
     inkscape:pageopacity="0.0"
     inkscape:pagecheckerboard="true"
     inkscape:deskcolor="#d1d1d1"
     showgrid="true"
     inkscape:zoom="9.8333333"
     inkscape:cx="27.661017"
     inkscape:cy="40.728814"
     inkscape:window-width="1920"
     inkscape:window-height="1137"
     inkscape:window-x="-8"
     inkscape:window-y="-1"
     inkscape:window-maximized="1"
     inkscape:current-layer="Layer_1">
    <inkscape:grid
       type="xygrid"
       id="grid595" />
  </sodipodi:namedview>
  <title
     id="title420">volume-mute</title>
  <path
     id="path422"
     style="stroke-width:1;fill:#ffffff"
     d="M 48.984375 4 C 48.387173 4 47.791382 4.2276419 47.335938 4.6835938 L 35.023438 17.089844 L 27.892578 17.089844 L 51.328125 34.542969 L 51.328125 6.328125 C 51.329887 5.7086133 51.079812 5.1145575 50.634766 4.6835938 C 50.17932 4.2276419 49.581577 4 48.984375 4 z M 9.5117188 5.8027344 L 5.9277344 10.615234 L 57.742188 49.197266 L 61.324219 44.384766 L 9.5117188 5.8027344 z M 14.552734 19.623047 C 13.388365 20.939314 12.676335 22.66389 12.671875 24.558594 L 12.671875 41.890625 C 12.68149 46.011124 16.018173 49.347822 20.138672 49.357422 L 35.138672 49.357422 L 47.306641 59.269531 C 48.768222 60.80847 51.357525 59.753049 51.328125 57.630859 L 51.328125 47.009766 L 14.552734 19.623047 z " />
  <metadata
     id="metadata593">
    <rdf:RDF>
      <cc:Work
         rdf:about="">
        <dc:title>volume-mute</dc:title>
      </cc:Work>
    </rdf:RDF>
  </metadata>
  <g
     id="path838">
    <path
       style="color:#000000;fill:#00ff00;stroke-width:10;stroke-linecap:square;-inkscape-stroke:none"
       d="M 10,10 57,45"
       id="path999" />
  </g>
</svg>
