<?xml version="1.0" encoding="UTF-8" standalone="no"?>
<!-- Created with Inkscape (http://www.inkscape.org/) -->

<svg
   width="432.00003"
   height="432.00003"
   viewBox="0 0 114.30001 114.30001"
   version="1.1"
   id="svg5"
   xml:space="preserve"
   inkscape:version="1.2.1 (9c6d41e410, 2022-07-14)"
   sodipodi:docname="icon_adaptive_fg.svg"
   inkscape:export-filename="icon_adaptive_fg.png"
   inkscape:export-xdpi="96"
   inkscape:export-ydpi="96"
   xmlns:inkscape="http://www.inkscape.org/namespaces/inkscape"
   xmlns:sodipodi="http://sodipodi.sourceforge.net/DTD/sodipodi-0.dtd"
   xmlns="http://www.w3.org/2000/svg"
   xmlns:svg="http://www.w3.org/2000/svg"><sodipodi:namedview
     id="namedview7"
     pagecolor="#ffffff"
     bordercolor="#000000"
     borderopacity="0.25"
     inkscape:showpageshadow="2"
     inkscape:pageopacity="0.0"
     inkscape:pagecheckerboard="true"
     inkscape:deskcolor="#d1d1d1"
     inkscape:document-units="px"
     showgrid="true"
     inkscape:zoom="1.1893044"
     inkscape:cx="169.84718"
     inkscape:cy="236.69298"
     inkscape:window-width="1920"
     inkscape:window-height="1137"
     inkscape:window-x="-8"
     inkscape:window-y="-1"
     inkscape:window-maximized="1"
     inkscape:current-layer="layer1"><inkscape:grid
       type="xygrid"
       id="grid462"
       originx="-57.149995"
       originy="-124.88333"
       empspacing="8" /></sodipodi:namedview><defs
     id="defs2" /><g
     inkscape:label="Layer 1"
     inkscape:groupmode="layer"
     id="layer1"
     transform="translate(-57.149994,-124.88332)"><path
       style="fill:#ffffff;stroke-width:0.999995"
       d="m 130.13239,196.75228 -0.73905,-0.0868 -0.61587,-0.13311 -0.61586,-0.13311 -0.45936,-0.0769 -0.45935,-0.0769 0.0654,-0.10606 0.0655,-0.10606 -0.18544,0.0712 -0.18544,0.0712 -0.27946,-0.19554 -0.27945,-0.19554 h -0.21891 -0.21897 v -0.3151 -0.3151 l 0.11466,0.0707 0.11465,0.0708 0.0774,-0.12527 0.0773,-0.12525 h -0.30366 -0.30368 l 0.0607,0.23262 0.0607,0.23261 -0.14769,0.0912 -0.1477,0.0912 -0.0924,-0.14971 -0.0924,-0.14925 -0.078,0.009 -0.078,0.009 -0.37455,-0.0751 -0.3746,-0.0751 -0.33426,-0.39716 -0.33427,-0.39715 -0.36955,-0.0991 -0.36953,-0.0991 -0.15397,0.0262 -0.15398,0.0262 v -0.18199 -0.182 l -0.24633,-0.0781 -0.24633,-0.0781 v -0.10649 -0.10648 l -0.23873,-0.0759 -0.23873,-0.0759 -0.14032,-0.42509 -0.14031,-0.42509 h -0.11875 -0.11876 l -0.25982,-0.24222 -0.2598,-0.24223 0.15576,-0.18767 0.15577,-0.18768 0.1092,0.0677 0.10919,0.0676 0.01,-0.0995 0.0101,-0.0995 0.0556,-0.33868 0.0556,-0.33868 h -0.25785 -0.25786 l 0.0799,0.12917 0.0798,0.12921 -0.0919,0.20949 -0.0919,0.20949 -0.073,-0.34698 -0.073,-0.34697 -0.30791,-0.16497 -0.30795,-0.16497 -2.52506,-0.18157 -2.52504,-0.18155 -2.27332,-0.009 -2.27329,-0.009 -0.14548,0.1209 -0.14545,0.12089 -1.27802,0.11216 -1.27801,0.11216 -0.55269,0.12614 -0.55269,0.12613 -0.98538,0.21997 -0.98539,0.21996 -0.94014,-0.0175 -0.94015,-0.0175 -0.59952,-0.18811 -0.59952,-0.1881 -0.38792,-0.0672 -0.38786,-0.0672 -0.25876,0.22433 -0.25877,0.22432 v 0.13967 0.13966 h 0.13752 0.13753 l -0.0589,0.30769 -0.0589,0.30812 h 0.0907 0.0907 l 0.071,0.35527 0.071,0.35526 0.0788,0.31381 0.0788,0.3138 -0.53476,0.26011 -0.534752,0.26012 -0.520235,0.0724 -0.520236,0.0724 -0.299355,-0.1964 -0.299355,-0.19596 -1.212765,-0.0558 -1.212764,-0.0558 -0.06158,-0.0218 -0.06158,-0.0218 -0.55428,0.0131 -0.554279,0.0131 -2.401879,0.0529 -2.401878,0.0529 -1.416495,0.19334 -1.416496,0.19378 -1.190543,0.0131 -1.190546,0.0131 -0.430068,-0.3282 -0.430026,-0.32821 -0.437302,-0.0712 -0.437294,-0.0712 -0.07447,-0.56981 -0.07447,-0.56977 -0.115524,-0.59117 -0.11557,-0.59111 v -0.54096 -0.54094 l -0.106144,-0.0655 -0.106142,-0.0655 -0.08523,-1.27254 -0.08523,-1.27253 0.0066,-3.13417 0.0066,-3.13417 0.127791,-0.73903 0.12779,-0.73905 0.123294,-1.41649 0.123293,-1.41651 -0.0043,-0.1846 -0.0043,-0.18463 0.0053,-0.67748 0.0053,-0.67744 0.102781,-0.43121 0.102781,-0.4312 0.144767,-0.92381 0.144767,-0.92382 0.123733,-0.67745 0.123731,-0.67743 0.132329,-0.43121 0.132328,-0.43121 0.243358,-0.52345 0.243317,-0.52352 h 0.17235 0.172351 l 0.337543,0.4797 0.337543,0.47968 0.225203,0.14316 0.225205,0.14315 0.165978,-0.13791 0.165979,-0.13792 0.163097,0.0305 0.163099,0.0306 0.862214,-0.10214 0.862211,-0.10212 0.554278,-0.0262 0.554281,-0.0262 0.52349,-0.0934 0.523484,-0.0934 v 0.13792 0.13792 l -0.492693,0.0789 -0.492695,0.079 v 0.0921 0.0921 l 0.708248,0.0602 0.708247,0.0602 0.272776,-0.10212 0.272776,-0.10213 0.05416,0.0877 0.05416,0.0877 1.027966,-0.0131 1.027962,-0.013 0.19797,0.10039 0.19797,0.10038 0.448683,-0.12395 0.448686,-0.12395 v -0.12308 -0.12307 l 0.41702,0.0781 0.417019,0.0781 0.08105,-0.13137 0.08104,-0.13093 0.531846,0.0728 0.531851,0.0728 0.171871,-0.24528 0.171871,-0.24527 0.861382,0.0921 0.861381,0.0921 0.431116,0.15537 0.431116,0.15536 0.184745,0.11043 0.184746,0.11041 0.215562,0.0725 0.21555,0.0724 v 0.16018 0.16016 l 0.15398,0.0519 0.15398,0.0519 -0.0306,1.09041 -0.0306,1.09044 -0.10462,0.069 -0.10466,0.0689 -0.0794,1.10856 -0.0794,1.10856 -0.0689,0.9854 -0.0689,0.98535 -0.114126,0.80711 -0.11413,0.8071 -0.06787,1.96429 -0.06787,1.96429 -0.05277,0.96689 -0.05276,0.9669 0.193692,0.29547 0.193692,0.29547 -0.168116,0.002 -0.168119,0.002 0.164497,0.10431 0.164493,0.10432 -0.03404,0.0481 -0.03404,0.0481 0.133071,0.23786 0.133066,0.23786 0.16742,-0.17633 0.16742,-0.1763 0.18313,-0.36969 0.18313,-0.36966 0.45685,-0.61587 0.45685,-0.61586 0.22224,-0.1964 0.22224,-0.1964 0.15689,-0.2348 0.15691,-0.23481 0.24156,-0.4002 0.24158,-0.40022 h 0.18657 0.18658 v -0.19976 -0.19946 l 0.3667,-0.44736 0.3667,-0.4474 0.25375,-0.30768 0.25374,-0.30813 0.21103,-0.3234 0.21101,-0.32341 0.24388,-0.35396 0.24389,-0.35438 0.46538,-0.61586 0.46537,-0.61586 0.12218,-0.14883 0.12215,-0.14883 v -0.083 -0.083 l 0.22329,-0.19901 0.22328,-0.19902 0.38534,-0.56598 0.38532,-0.56597 0.43834,-0.38495 0.43834,-0.38494 v -0.12002 -0.12002 l 0.70824,-0.83679 0.70825,-0.83678 0.18474,-0.19247 0.18474,-0.19248 1.00028,-1.10241 1.00026,-1.10235 0.35387,-0.4312 0.35387,-0.4312 0.14668,-0.15452 0.14669,-0.15448 0.078,-0.24573 0.0779,-0.24571 h 0.12923 0.12923 l -0.0629,-0.24048 -0.0629,-0.24048 0.13189,-0.0441 0.13189,-0.0442 -0.10584,-0.17107 -0.10583,-0.17109 -0.0122,-0.28063 -0.0122,-0.28063 0.15899,-0.0611 0.159,-0.0611 0.27605,0.10605 0.2761,0.10606 0.34505,0.32165 0.34504,0.32167 h 0.0499 0.0499 l 0.52884,0.49117 0.52885,0.49112 0.0914,0.002 0.0914,0.002 0.32651,0.27715 0.32649,0.27713 0.10727,0.12308 0.10728,0.12307 0.2754,0.43646 0.27539,0.43642 0.20334,0.42598 0.20333,0.42553 0.18711,0.4927 0.1871,0.4927 0.38521,0.80061 0.38519,0.80064 0.16419,0.30813 0.1642,0.30813 0.35347,0.72021 0.35346,0.72022 0.18476,0.0716 0.18474,0.0715 0.0838,0.1257 0.0838,0.12568 0.25081,-0.30159 0.25084,-0.30112 0.005,-0.13574 0.005,-0.13574 0.30795,-0.5791 0.30795,-0.57917 v -0.30157 l -1e-5,-0.30159 h 0.16817 0.16815 l 0.32455,-0.2553 0.32454,-0.25532 6.4e-4,-0.26842 6.4e-4,-0.26842 0.18401,-0.35266 0.184,-0.35262 1.2e-4,-0.20164 1.1e-4,-0.20164 0.46179,-0.44534 0.46179,-0.44531 0.27714,-0.0864 0.27714,-0.0864 v 0.19856 0.19858 l 0.46191,-0.083 0.46189,-0.083 0.18475,-0.14445 0.18474,-0.14445 0.73905,-0.35615 0.73904,-0.35657 0.29372,-0.22259 0.29381,-0.22258 h -0.0863 -0.0863 l -0.23825,0.12745 -0.23825,0.12745 v -0.0973 -0.0973 l 0.33871,-0.14054 0.33872,-0.14053 0.34902,-0.0795 0.34907,-0.0795 -0.0791,0.12832 -0.0791,0.1283 h -0.24634 -0.24632 l 0.0764,0.12351 0.0763,0.12352 0.2146,-0.11477 0.21461,-0.11479 1.28679,-0.17721 1.2868,-0.17719 1.72442,0.0349 1.72444,0.0349 1.04696,0.0602 1.04699,0.0602 0.49269,0.18985 0.49268,0.18985 0.22661,0.005 0.2266,0.005 0.23118,0.27714 0.23118,0.27714 0.005,-0.15406 0.005,-0.15406 h 0.17597 0.17598 l 0.17048,0.17064 0.17046,0.17065 0.51577,0.26318 0.51577,0.26318 v 0.12045 0.1209 h 0.17864 0.17864 l 0.127,0.21561 0.12701,0.21559 0.11608,-0.17676 0.1161,-0.17676 0.19715,0.16367 0.19709,0.16366 0.0702,-0.0703 0.0702,-0.0702 -0.25806,-0.22083 -0.25808,-0.22085 v -0.0956 -0.0956 h 0.15085 0.15082 l 0.41366,0.46188 0.41362,0.46189 0.11727,0.2156 0.11727,0.2156 h -0.1466 -0.1466 l 0.18509,0.21559 0.18515,0.21561 0.10635,0.18462 0.10636,0.18461 -0.32964,-0.21559 -0.32964,-0.21561 h -0.0743 -0.0743 l 0.24801,0.33867 0.24805,0.33868 0.43778,0.46874 0.4378,0.46879 0.01,0.20862 0.01,0.20861 0.0634,-0.15799 0.0634,-0.15799 -0.19636,-0.30377 -0.1963,-0.30377 -0.20343,-0.33867 -0.20344,-0.33868 0.34427,0.36967 0.34427,0.36966 -0.0677,-0.27714 -0.0678,-0.27714 h 0.1116 0.11159 v 0.12831 0.12832 l 0.12382,0.14883 0.12382,0.14883 0.36883,0.72078 0.36885,0.72073 v 0.2658 0.26579 l 0.22703,0.14185 0.22703,0.14185 0.20155,0.71925 0.20155,0.71929 0.24759,1.41648 0.2476,1.41651 0.002,1.42519 0.002,1.42515 -0.24637,1.15277 -0.24632,1.15277 v 0.2204 0.22041 l -0.31712,0.71189 -0.31711,0.71191 -0.17559,0.38799 -0.17559,0.388 v 0.1353 0.13529 l -0.33871,0.6466 -0.33872,0.64662 -0.15398,0.0986 -0.15398,0.0986 v 0.13007 0.13006 l -0.30358,0.38711 -0.30356,0.38714 -0.34307,0.42203 -0.34309,0.42204 -0.46189,0.4755 -0.46192,0.47554 v 0.11829 0.11827 l -0.15397,0.005 -0.15398,0.005 -0.55262,0.55023 -0.55265,0.55026 h -0.1556 -0.15559 v 0.1126 0.1126 l -0.83142,0.47092 -0.83142,0.47093 -1.04698,0.5095 -1.04696,0.5095 -0.92379,0.27278 -0.92381,0.27276 -0.54415,0.1126 -0.54415,0.11261 -1.30345,0.0349 -1.30344,0.0349 -0.73905,-0.0869 z m 3.53639,-4.05453 1.26736,-0.13049 0.86221,-0.25707 0.86222,-0.25707 0.0616,-0.0746 0.0617,-0.0747 1.0974,-0.53699 1.0974,-0.53695 0.13429,-0.10912 0.1343,-0.10911 0.73903,-0.54864 0.73905,-0.54861 0.57586,-0.65275 0.57587,-0.65274 0.33946,-0.41374 0.33943,-0.41375 0.41846,-0.69472 0.41844,-0.69478 0.2505,-0.67744 0.25046,-0.67744 0.16645,-0.80065 0.16647,-0.80062 0.005,-0.68559 0.005,-0.68565 -0.13455,-0.73086 -0.13455,-0.73088 -0.0954,-0.12307 -0.0954,-0.12307 -0.21204,-0.64986 -0.21202,-0.64988 -0.37478,-0.705 -0.37477,-0.70504 -0.37813,-0.55428 -0.37812,-0.55427 -1.02164,-1.01622 -1.02162,-1.01617 h -0.17916 -0.17916 l -0.0985,-0.15448 -0.0985,-0.15452 -0.92373,-0.44874 -0.92382,-0.44879 -0.22825,-0.0751 -0.22821,-0.0751 -0.88033,-0.18373 -0.88032,-0.18374 -1.72443,0.005 -1.72443,0.005 -0.67744,0.16848 -0.67747,0.16846 -0.55428,0.19946 -0.55427,0.19945 -0.55429,0.27452 -0.55427,0.27452 -0.0716,0.0969 -0.0715,0.0969 -0.48272,0.25445 -0.48274,0.25445 -0.30794,0.27888 -0.30791,0.27888 -0.21561,0.11392 -0.2156,0.1139 -0.85969,0.8327 -0.85972,0.83268 -0.44556,0.67129 -0.44556,0.67123 h -0.10802 -0.10802 l -0.18793,0.36357 -0.18793,0.36356 v 0.24832 0.24835 l 0.20757,0.43513 0.20757,0.43513 h 0.10039 0.10037 v 0.19203 0.19203 l 0.48008,1.00888 0.48007,1.00888 0.38251,0.82435 0.38246,0.82435 0.11945,0.0739 0.11945,0.0738 0.13761,0.51828 0.13761,0.51832 0.42003,0.63671 0.42003,0.63673 5.1e-4,0.16409 4.8e-4,0.16411 0.24969,0.40938 0.24968,0.40939 0.23642,0.25357 0.23643,0.25356 0.075,0.3413 0.0749,0.3413 0.30067,0.0754 0.30066,0.0754 v 0.17632 0.17632 l 0.19578,0.10955 0.19579,0.10955 -0.0197,0.0507 -0.0196,0.0506 0.12408,0.32645 0.12408,0.32646 -0.13429,0.43736 -0.13429,0.43737 -0.25833,0.0393 -0.25834,0.0392 -0.27172,-0.16848 -0.27174,-0.16846 -0.1187,0.0734 -0.11871,0.0733 -0.17968,-0.17982 -0.17968,-0.17982 -0.23057,0.16935 -0.23059,0.16934 0.5953,0.25575 0.59527,0.25575 h 0.16729 0.16729 l 0.0676,0.1091 0.0676,0.10912 0.46325,0.0864 0.46326,0.0864 0.1305,0.1078 0.13049,0.1078 1.26743,0.11915 1.26742,0.11914 0.07,0.0698 0.07,0.0698 h 0.22097 0.22098 l 1.26736,-0.1305 z m -38.256595,-1.01328 0.07542,-0.0754 0.05888,-0.52974 0.05888,-0.52976 -0.0066,-0.30813 -0.0066,-0.30813 0.0053,-1.78598 0.0053,-1.78602 -0.0018,-0.40852 -0.0018,-0.40849 -0.141759,-0.17066 -0.141755,-0.17065 0.0069,-3.39463 0.0069,-3.39465 0.115046,-0.21515 0.115046,-0.21516 0.07878,-0.92265 0.07877,-0.92263 0.04726,-0.36966 0.04727,-0.36967 -0.125608,-0.3295 -0.125608,-0.32953 0.119367,-0.77913 0.119367,-0.77918 -0.05993,-0.39498 -0.05993,-0.39497 -0.424394,-0.43702 -0.424396,-0.437 -1.871882,0.0586 -1.871884,0.0586 -1.231736,0.12962 -1.231733,0.12962 -0.893006,0.0454 -0.893008,0.0454 v -0.23306 -0.23306 h -0.43114 -0.431116 v 0.22303 0.22302 l 0.285825,0.7316 0.285825,0.73161 0.02095,0.78389 0.02095,0.78393 -0.190288,0.87891 -0.190289,0.87894 -0.114216,0.73904 -0.114217,0.73906 -0.05791,0.49271 -0.05791,0.49264 -0.131849,2.09397 -0.131849,2.09394 -0.108849,1.10858 -0.108846,1.10855 0.0022,0.36966 0.0022,0.36967 -0.07676,1.10856 -0.07678,1.10856 -0.02924,0.71987 -0.02923,0.71985 0.09859,0.0611 0.09859,0.0611 -0.120241,0.14489 -0.120238,0.1449 0.0526,0.54617 0.0526,0.5462 0.09257,0.0925 0.09257,0.0925 0.923658,0.0348 0.923652,0.0349 4.034359,-0.009 4.034355,-0.009 0.07542,-0.0754 z m 1.934615,-2.13639 -0.06958,-0.50879 0.271335,-0.27148 0.271335,-0.27146 0.06887,0.069 0.06887,0.069 -0.127179,0.15712 -0.127179,0.15713 0.02488,0.30769 0.02487,0.30812 -0.104483,0.2156 -0.104485,0.21561 h 0.175406 0.175405 l 0.07576,-0.40022 0.07577,-0.40022 0.07031,-0.30812 0.07031,-0.30814 0.06325,-0.49269 0.06324,-0.4927 0.02008,-0.48227 0.02007,-0.48227 0.153977,-0.0515 0.153976,-0.0515 v -0.11828 -0.11828 l -0.20923,0.0349 -0.209186,0.0349 -0.0419,-0.43121 -0.0419,-0.43121 0.004,-0.4312 0.004,-0.43119 -0.0069,-0.49271 -0.0069,-0.4927 -0.003,-0.24616 -0.0031,-0.24615 0.0061,-0.80064 0.0061,-0.8006 -0.0079,-0.30813 -0.0079,-0.3077 0.01309,-0.24659 0.0131,-0.24615 -0.03971,-0.4927 -0.03971,-0.49269 -0.100949,-0.36967 -0.100948,-0.36966 -0.107714,-0.13748 -0.107714,-0.13748 0.186055,-0.15451 0.186099,-0.15449 -0.0091,-1.18603 -0.0092,-1.18602 -0.06045,-0.21561 -0.06045,-0.2156 H 97.73709 97.567884 l -0.08646,0.14009 -0.08645,0.1401 -0.02837,0.26056 -0.02836,0.26055 -0.01571,0.35178 -0.01571,0.35177 -0.180818,-0.0693 -0.180818,-0.0694 -0.07333,0.11871 -0.07333,0.11871 0.192558,0.0739 0.192558,0.0738 v 0.29459 0.29461 h -0.184808 -0.184745 v 0.30942 0.30944 l -0.14263,0.22827 -0.142628,0.22825 0.08765,0.22825 0.08764,0.22827 0.114654,-0.18112 0.114653,-0.18157 0.0018,-0.54699 0.0018,-0.54703 0.180862,0.23917 0.180818,0.23917 0.004,0.2527 0.004,0.25269 -0.124081,0.12396 -0.124081,0.12394 -0.113779,1.16308 -0.11378,1.16306 -0.148303,0.41375 -0.148303,0.41332 0.152537,0.0943 0.152537,0.0943 -0.135953,0.254 -0.135951,0.25401 -0.04102,1.18354 -0.04104,1.18349 0.0763,0.0471 0.0763,0.0471 -0.01834,0.80969 -0.01834,0.80968 0.07542,9e-5 0.07542,8e-5 0.01483,0.27714 0.01484,0.27714 0.09105,1.59244 0.09104,1.59245 0.225902,-0.29896 0.2259,-0.29896 -0.06958,-0.50878 z m 8.49767,-2.01876 0.76181,-0.004 0.86221,-0.12963 0.86221,-0.12963 2.40189,-0.003 2.40187,-0.004 2.70981,0.0803 2.70982,0.0803 1.08705,0.0899 1.08706,0.0899 0.0595,-0.0965 0.0595,-0.0965 h -0.11003 -0.11003 l -0.53287,-1.1213 -0.53285,-1.12127 -0.15847,-1.55774 -0.15848,-1.55774 -0.005,-1.17014 -0.005,-1.17015 0.0743,-0.27714 0.0743,-0.27714 0.26279,-0.005 0.26278,-0.005 -0.21194,-0.16105 -0.21193,-0.16105 -0.18836,-0.72318 -0.18838,-0.72318 v -0.21473 -0.21473 l -0.14293,-0.3138 -0.14295,-0.31381 h -0.20088 -0.20103 l -0.67221,-1.00848 -0.67222,-1.00847 -0.075,-0.13095 -0.0749,-0.13092 -0.22375,-0.43119 -0.22378,-0.43122 -0.0709,-0.0616 -0.0709,-0.0617 -0.22227,-0.36967 -0.22228,-0.36966 -0.18178,-0.40546 -0.18178,-0.40546 -0.1232,0.0759 -0.12321,0.0763 0.0736,0.39237 0.0737,0.39237 -0.25138,0.55283 -0.2514,0.55284 -0.58823,0.93778 -0.58823,0.93778 -0.3079,0.40197 -0.30796,0.40196 -0.21555,0.23087 -0.21556,0.23088 v 0.11304 0.11304 l -0.0983,0.0392 -0.0983,0.0393 -0.82547,1.00281 -0.82546,1.00281 v 0.0589 0.0589 l -0.5266,0.53967 -0.5266,0.5397 -0.30481,0.41244 -0.3048,0.41243 -0.1964,0.20338 -0.1964,0.20338 -0.53665,0.80065 -0.53666,0.80061 -0.22153,0.23873 -0.22155,0.23874 v 0.15712 0.15711 l -0.25675,0.13748 -0.25675,0.13749 -0.16812,0.4024 -0.16812,0.4024 -0.3746,0.2959 -0.3746,0.2959 -9e-4,0.2156 -8.9e-4,0.21561 h -0.18424 -0.18474 v 0.25008 0.25008 l -0.18474,0.0708 -0.18475,0.0707 v 0.11827 0.11828 l -0.30734,0.40282 -0.30734,0.40285 0.0737,0.0738 0.0737,0.0738 0.30328,-0.11521 0.30329,-0.11522 0.76181,-0.004 z m 18.68352,0.21473 v -0.0349 l -0.12918,-1.04374 -0.1292,-1.04375 -0.26116,-0.58243 -0.26117,-0.58249 -0.47191,-0.31249 -0.47193,-0.31248 v -0.12133 -0.12134 h -0.23306 -0.23314 l -0.0985,0.21561 -0.0985,0.2156 -0.0105,0.12307 -0.0105,0.12308 -0.10838,0.17327 -0.10837,0.17327 0.0215,0.5627 0.0214,0.56276 0.30765,0.46489 0.30765,0.46485 h 0.10167 0.10171 l 0.16074,0.48712 0.16074,0.48705 0.19771,0.0529 0.19766,0.0529 0.52349,0.0131 0.52349,0.0131 v -0.0349 z m -27.278027,-13.88458 0.08022,-0.43119 0.09179,-0.16498 0.09179,-0.16497 -0.124298,-0.54311 -0.124298,-0.54311 h -0.08476 -0.08476 l -0.0227,0.33868 -0.0227,0.33868 -0.04447,1.47808 -0.04447,1.4781 0.104135,-0.67749 0.104135,-0.67744 z m 0.74057,0.89305 0.09431,-0.21559 0.04736,-0.6775 0.04736,-0.67744 -0.01265,-0.67745 -0.01265,-0.67744 -0.115962,-0.11696 -0.115963,-0.11697 v 0.2095 0.20948 h -0.13102 -0.131019 l 0.05839,0.80065 0.05839,0.80061 h -0.112121 -0.112122 v 0.59535 0.5953 l 0.0821,0.082 0.0821,0.0821 h 0.08948 0.08947 z m -11.569296,-3.91696 0.205825,-0.31424 0.162574,0.0625 0.162574,0.0624 0.0728,-0.11785 0.07279,-0.11784 -0.161221,-0.0131 -0.161222,-0.0131 -0.431116,0.0131 -0.431117,0.0131 -0.334531,0.009 -0.334575,0.009 0.148608,0.23785 0.148609,0.23787 h 0.08629 0.08629 l 0.07982,-0.12919 0.07983,-0.1292 0.190156,0.15756 0.190158,0.15799 -0.293507,0.082 -0.293463,0.0821 0.274303,0.0131 0.274303,0.0131 z"
       id="path302" /></g></svg>
