<?xml version="1.0" encoding="UTF-8" standalone="no"?>
<!-- Created with Inkscape (http://www.inkscape.org/) -->

<svg
   width="64"
   height="64"
   viewBox="0 0 16.933333 16.933333"
   version="1.1"
   id="svg5"
   xml:space="preserve"
   inkscape:version="1.2.1 (9c6d41e410, 2022-07-14)"
   sodipodi:docname="icon.svg"
   xmlns:inkscape="http://www.inkscape.org/namespaces/inkscape"
   xmlns:sodipodi="http://sodipodi.sourceforge.net/DTD/sodipodi-0.dtd"
   xmlns="http://www.w3.org/2000/svg"
   xmlns:svg="http://www.w3.org/2000/svg"><sodipodi:namedview
     id="namedview7"
     pagecolor="#ffffff"
     bordercolor="#000000"
     borderopacity="0.25"
     inkscape:showpageshadow="2"
     inkscape:pageopacity="0.0"
     inkscape:pagecheckerboard="0"
     inkscape:deskcolor="#d1d1d1"
     inkscape:document-units="px"
     showgrid="true"
     inkscape:zoom="4.7572176"
     inkscape:cx="-35.840278"
     inkscape:cy="84.187866"
     inkscape:window-width="1920"
     inkscape:window-height="1137"
     inkscape:window-x="-8"
     inkscape:window-y="-1"
     inkscape:window-maximized="1"
     inkscape:current-layer="layer1"><inkscape:grid
       type="xygrid"
       id="grid462"
       originx="-57.149998"
       originy="-124.88333"
       empspacing="8" /></sodipodi:namedview><defs
     id="defs2" /><g
     inkscape:label="Layer 1"
     inkscape:groupmode="layer"
     id="layer1"
     transform="translate(-57.149997,-124.88333)"><rect
       style="fill:#252525;fill-opacity:1;stroke-width:0.529167;stroke-linecap:square"
       id="rect356"
       width="16.933332"
       height="16.933332"
       x="57.149998"
       y="124.88333"
       ry="0"
       rx="0" /><path
       style="fill:#ffffff;stroke-width:0.999997"
       d="m 69.244516,136.72376 -0.169334,-0.0199 -0.141113,-0.0305 -0.14111,-0.0305 -0.10525,-0.0176 -0.10525,-0.0176 0.015,-0.0243 0.015,-0.0243 -0.04249,0.0163 -0.04249,0.0163 -0.06403,-0.0448 -0.06403,-0.0448 h -0.05016 -0.05017 v -0.0722 -0.0722 l 0.02627,0.0162 0.02627,0.0162 0.01773,-0.0287 0.01773,-0.0287 h -0.06958 -0.06958 l 0.01393,0.0533 0.01393,0.0533 -0.03384,0.0209 -0.03384,0.0209 -0.02117,-0.0343 -0.02117,-0.0342 -0.01787,0.002 -0.01787,0.002 -0.08582,-0.0172 -0.08583,-0.0172 -0.07659,-0.091 -0.07659,-0.091 -0.08467,-0.0227 -0.08467,-0.0227 -0.03528,0.006 -0.03528,0.006 v -0.0417 -0.0417 l -0.05644,-0.0179 -0.05644,-0.0179 v -0.0244 -0.0244 l -0.0547,-0.0174 -0.0547,-0.0174 -0.03215,-0.0974 -0.03215,-0.0974 h -0.02721 -0.02721 l -0.05953,-0.0555 -0.05953,-0.0555 0.03569,-0.043 0.03569,-0.043 0.02502,0.0155 0.02502,0.0155 0.0023,-0.0228 0.0023,-0.0228 0.01276,-0.0776 0.01276,-0.0776 h -0.05908 -0.05908 l 0.01828,0.0296 0.01828,0.0296 -0.02105,0.048 -0.02105,0.048 -0.01673,-0.0795 -0.01673,-0.0795 -0.07055,-0.0378 -0.07056,-0.0378 -0.578555,-0.0416 -0.578556,-0.0416 -0.520874,-0.002 -0.520874,-0.002 -0.03333,0.0277 -0.03333,0.0277 -0.292825,0.0257 -0.292826,0.0257 -0.126635,0.0289 -0.126636,0.0289 -0.225778,0.0504 -0.225778,0.0504 -0.215411,-0.004 -0.215412,-0.004 -0.137366,-0.0431 -0.137366,-0.0431 -0.08888,-0.0154 -0.08887,-0.0154 -0.05929,0.0514 -0.05929,0.0514 v 0.032 0.032 h 0.03151 0.03151 l -0.01349,0.0705 -0.01349,0.0706 h 0.02078 0.02078 l 0.01627,0.0814 0.01627,0.0814 0.01806,0.0719 0.01806,0.0719 -0.122526,0.0596 -0.122526,0.0596 -0.119199,0.0166 -0.1192,0.0166 -0.06859,-0.045 -0.06859,-0.0449 -0.277876,-0.0128 -0.277876,-0.0128 -0.01411,-0.005 -0.01411,-0.005 -0.127,0.003 -0.127,0.003 -0.550333,0.0121 -0.550333,0.0121 -0.324556,0.0443 -0.324556,0.0444 -0.272785,0.003 -0.272785,0.003 -0.09854,-0.0752 -0.09853,-0.0752 -0.100197,-0.0163 -0.100196,-0.0163 -0.01706,-0.13056 -0.01706,-0.13055 -0.02647,-0.13545 -0.02648,-0.13544 v -0.12395 -0.12394 l -0.02432,-0.015 -0.02432,-0.015 -0.01953,-0.29157 -0.01953,-0.29157 0.0015,-0.71812 0.0015,-0.71812 0.02928,-0.16933 0.02928,-0.16934 0.02825,-0.32455 0.02825,-0.32456 -9.67e-4,-0.0423 -9.66e-4,-0.0423 0.0012,-0.15523 0.0012,-0.15522 0.02355,-0.0988 0.02355,-0.0988 0.03317,-0.21167 0.03317,-0.21167 0.02835,-0.15522 0.02835,-0.15522 0.03032,-0.0988 0.03032,-0.0988 0.05576,-0.11994 0.05575,-0.11995 h 0.03949 0.03949 l 0.07734,0.10991 0.07734,0.10991 0.0516,0.0328 0.0516,0.0328 0.03803,-0.0316 0.03803,-0.0316 0.03737,0.007 0.03737,0.007 0.197556,-0.0234 0.197555,-0.0234 0.127,-0.006 0.127,-0.006 0.119945,-0.0214 0.119944,-0.0214 v 0.0316 0.0316 l -0.112889,0.0181 -0.112889,0.0181 v 0.0211 0.0211 l 0.162278,0.0138 0.162278,0.0138 0.0625,-0.0234 0.0625,-0.0234 0.01241,0.0201 0.01241,0.0201 0.235534,-0.003 0.235533,-0.003 0.04536,0.023 0.04536,0.023 0.102805,-0.0284 0.102806,-0.0284 v -0.0282 -0.0282 l 0.09555,0.0179 0.09555,0.0179 0.01857,-0.0301 0.01857,-0.03 0.12186,0.0167 0.121861,0.0167 0.03938,-0.0562 0.03938,-0.0562 0.197365,0.0211 0.197365,0.0211 0.09878,0.0356 0.09878,0.0356 0.04233,0.0253 0.04233,0.0253 0.04939,0.0166 0.04939,0.0166 v 0.0367 0.0367 l 0.03528,0.0119 0.03528,0.0119 -0.007,0.24984 -0.007,0.24985 -0.02397,0.0158 -0.02398,0.0158 -0.01819,0.254 -0.01819,0.254 -0.01578,0.22578 -0.01578,0.22577 -0.02615,0.18493 -0.02615,0.18493 -0.01555,0.45007 -0.01555,0.45007 -0.01209,0.22154 -0.01209,0.22154 0.04438,0.0677 0.04438,0.0677 -0.03852,3.3e-4 -0.03852,3.4e-4 0.03769,0.0239 0.03769,0.0239 -0.0078,0.011 -0.0078,0.011 0.03049,0.0545 0.03049,0.0545 0.03836,-0.0404 0.03836,-0.0404 0.04196,-0.0847 0.04196,-0.0847 0.104676,-0.14111 0.104676,-0.14111 0.05092,-0.045 0.05092,-0.045 0.03595,-0.0538 0.03595,-0.0538 0.05535,-0.0917 0.05535,-0.0917 h 0.04275 0.04275 v -0.0457 -0.0457 l 0.08402,-0.1025 0.08402,-0.10251 0.05814,-0.0705 0.05814,-0.0706 0.04835,-0.0741 0.04835,-0.0741 0.05588,-0.0811 0.05588,-0.0812 0.106631,-0.14111 0.106632,-0.14111 0.02799,-0.0341 0.02799,-0.0341 v -0.019 -0.019 l 0.05116,-0.0456 0.05116,-0.0456 0.08829,-0.12968 0.08829,-0.12968 0.100434,-0.0882 0.100434,-0.0882 v -0.0275 -0.0275 l 0.162277,-0.19173 0.162278,-0.19173 0.04233,-0.0441 0.04233,-0.0441 0.229188,-0.25259 0.229187,-0.25258 0.08108,-0.0988 0.08108,-0.0988 0.03361,-0.0354 0.03361,-0.0354 0.01786,-0.0563 0.01786,-0.0563 h 0.02961 0.02961 l -0.01441,-0.0551 -0.01441,-0.0551 0.03022,-0.0101 0.03022,-0.0101 -0.02425,-0.0392 -0.02425,-0.0392 -0.0028,-0.0643 -0.0028,-0.0643 0.03643,-0.014 0.03643,-0.014 0.06325,0.0243 0.06326,0.0243 0.07906,0.0737 0.07906,0.0737 h 0.01143 0.01143 l 0.121171,0.11254 0.121171,0.11253 0.02095,3.4e-4 0.02095,3.3e-4 0.07481,0.0635 0.07481,0.0635 0.02458,0.0282 0.02458,0.0282 0.0631,0.1 0.0631,0.1 0.04659,0.0976 0.04659,0.0975 0.04287,0.11289 0.04287,0.11289 0.08826,0.18344 0.08826,0.18345 0.03762,0.0706 0.03762,0.0706 0.08099,0.16502 0.08099,0.16502 0.04233,0.0164 0.04233,0.0164 0.01921,0.0288 0.01921,0.0288 0.05747,-0.0691 0.05747,-0.069 9.33e-4,-0.0311 9.34e-4,-0.0311 0.07056,-0.13269 0.07056,-0.1327 v -0.0691 l -10e-7,-0.0691 h 0.03853 0.03853 l 0.07436,-0.0585 0.07436,-0.0585 1.69e-4,-0.0615 1.69e-4,-0.0615 0.04216,-0.0808 0.04216,-0.0808 2.5e-5,-0.0462 2.6e-5,-0.0462 0.105808,-0.10204 0.10581,-0.10203 0.0635,-0.0198 0.0635,-0.0198 v 0.0455 0.0455 l 0.105834,-0.019 0.105833,-0.019 0.04233,-0.0331 0.04233,-0.0331 0.169333,-0.0816 0.169333,-0.0817 0.0673,-0.051 0.06732,-0.051 h -0.01977 -0.01977 l -0.05459,0.0292 -0.05459,0.0292 v -0.0223 -0.0223 l 0.07761,-0.0322 0.07761,-0.0322 0.07997,-0.0182 0.07998,-0.0182 -0.01813,0.0294 -0.01813,0.0294 h -0.05644 -0.05644 l 0.0175,0.0283 0.0175,0.0283 0.04917,-0.0263 0.04917,-0.0263 0.29484,-0.0406 0.29484,-0.0406 0.39511,0.008 0.395114,0.008 0.239886,0.0138 0.23989,0.0138 0.11289,0.0435 0.112887,0.0435 0.05192,10e-4 0.05192,0.001 0.05297,0.0635 0.05297,0.0635 10e-4,-0.0353 0.001,-0.0353 h 0.04032 0.04032 l 0.03906,0.0391 0.03906,0.0391 0.118176,0.0603 0.118177,0.0603 v 0.0276 0.0277 h 0.04093 0.04093 l 0.0291,0.0494 0.0291,0.0494 0.0266,-0.0405 0.0266,-0.0405 0.04517,0.0375 0.04516,0.0375 0.0161,-0.0161 0.0161,-0.0161 -0.05913,-0.0506 -0.05913,-0.0506 v -0.0219 -0.0219 h 0.03456 0.03456 l 0.09478,0.10583 0.09477,0.10583 0.02687,0.0494 0.02687,0.0494 h -0.03359 -0.03359 l 0.04241,0.0494 0.04242,0.0494 0.02437,0.0423 0.02437,0.0423 -0.07553,-0.0494 -0.07553,-0.0494 h -0.01703 -0.01703 l 0.05683,0.0776 0.05683,0.0776 0.10031,0.1074 0.10031,0.10741 0.0023,0.0478 0.0023,0.0478 0.01453,-0.0362 0.01453,-0.0362 -0.04499,-0.0696 -0.04498,-0.0696 -0.04661,-0.0776 -0.04661,-0.0776 0.07888,0.0847 0.07888,0.0847 -0.01553,-0.0635 -0.01553,-0.0635 h 0.02557 0.02557 v 0.0294 0.0294 l 0.02837,0.0341 0.02837,0.0341 0.08451,0.16515 0.08451,0.16514 v 0.0609 0.0609 l 0.05202,0.0325 0.05202,0.0325 0.04618,0.1648 0.04618,0.16481 0.05673,0.32455 0.05673,0.32456 2.93e-4,0.32655 2.93e-4,0.32654 -0.05645,0.26413 -0.05644,0.26413 v 0.0505 0.0505 l -0.07266,0.16311 -0.07266,0.16312 -0.04023,0.0889 -0.04023,0.0889 v 0.031 0.031 l -0.07761,0.14815 -0.07761,0.14816 -0.03528,0.0226 -0.03528,0.0226 v 0.0298 0.0298 l -0.06956,0.0887 -0.06955,0.0887 -0.07861,0.0967 -0.07861,0.0967 -0.105833,0.10895 -0.105833,0.10896 v 0.0271 0.0271 l -0.03528,0.001 -0.03528,0.001 -0.126623,0.12607 -0.126627,0.12608 h -0.03565 -0.03565 v 0.0258 0.0258 l -0.1905,0.1079 -0.190499,0.1079 -0.23989,0.11674 -0.239887,0.11674 -0.211666,0.0625 -0.211667,0.0625 -0.12468,0.0258 -0.12468,0.0258 -0.298653,0.008 -0.298654,0.008 -0.169333,-0.0199 z m 0.81028,-0.929 0.290386,-0.0299 0.197554,-0.0589 0.197556,-0.0589 0.0141,-0.0171 0.0141,-0.0171 0.251444,-0.12304 0.251443,-0.12303 0.03077,-0.025 0.03077,-0.025 0.169332,-0.12571 0.169334,-0.1257 0.131946,-0.14956 0.131947,-0.14956 0.07778,-0.0948 0.07777,-0.0948 0.09588,-0.15918 0.09588,-0.15919 0.05739,-0.15522 0.05739,-0.15522 0.03814,-0.18345 0.03814,-0.18344 10e-4,-0.15709 0.001,-0.1571 -0.03083,-0.16746 -0.03083,-0.16746 -0.02187,-0.0282 -0.02187,-0.0282 -0.04858,-0.1489 -0.04858,-0.1489 -0.08587,-0.16154 -0.08587,-0.16154 -0.08664,-0.127 -0.08664,-0.127 -0.23408,-0.23284 -0.234083,-0.23283 h -0.04105 -0.04105 l -0.02257,-0.0354 -0.02257,-0.0354 -0.211653,-0.10282 -0.211667,-0.10283 -0.0523,-0.0172 -0.05229,-0.0172 -0.201707,-0.0421 -0.201703,-0.0421 -0.39511,0.001 -0.395113,0.001 -0.15522,0.0386 -0.155224,0.0386 -0.127,0.0457 -0.127,0.0457 -0.127,0.0629 -0.127,0.0629 -0.0164,0.0222 -0.0164,0.0222 -0.110603,0.0583 -0.110607,0.0583 -0.07056,0.0639 -0.07055,0.0639 -0.0494,0.0261 -0.0494,0.0261 -0.19698,0.19079 -0.196983,0.19079 -0.102089,0.15381 -0.102089,0.1538 h -0.02475 -0.02475 l -0.04306,0.0833 -0.04306,0.0833 v 0.0569 0.0569 l 0.04756,0.0997 0.04756,0.0997 h 0.023 0.023 v 0.044 0.044 l 0.109999,0.23116 0.109998,0.23116 0.08764,0.18888 0.08763,0.18888 0.02737,0.0169 0.02737,0.0169 0.03153,0.11875 0.03153,0.11876 0.09624,0.14589 0.09624,0.14589 1.14e-4,0.0376 1.13e-4,0.0376 0.05721,0.0938 0.05721,0.0938 0.05417,0.0581 0.05417,0.0581 0.01717,0.0782 0.01717,0.0782 0.06889,0.0173 0.06889,0.0173 v 0.0404 0.0404 l 0.04486,0.0251 0.04486,0.0251 -0.0045,0.0116 -0.0045,0.0116 0.02843,0.0748 0.02843,0.0748 -0.03077,0.10021 -0.03077,0.10021 -0.05919,0.009 -0.05919,0.009 -0.06226,-0.0386 -0.06226,-0.0386 -0.0272,0.0168 -0.0272,0.0168 -0.04117,-0.0412 -0.04117,-0.0412 -0.05283,0.0388 -0.05283,0.0388 0.136397,0.0586 0.136393,0.0586 h 0.03833 0.03833 l 0.01547,0.025 0.01547,0.025 0.106143,0.0198 0.106147,0.0198 0.0299,0.0247 0.0299,0.0247 0.2904,0.0273 0.2904,0.0273 0.01603,0.016 0.01603,0.016 h 0.05063 0.05063 l 0.290387,-0.0299 z m -8.765585,-0.23217 0.01728,-0.0173 0.01349,-0.12138 0.01349,-0.12138 -0.0015,-0.0706 -0.0015,-0.0706 0.0012,-0.40922 0.0012,-0.40922 -4.33e-4,-0.0936 -4.34e-4,-0.0936 -0.03248,-0.0391 -0.03248,-0.0391 0.0016,-0.7778 0.0016,-0.7778 0.02636,-0.0493 0.02636,-0.0493 0.01805,-0.2114 0.01805,-0.2114 0.01083,-0.0847 0.01083,-0.0847 -0.02878,-0.0755 -0.02878,-0.0755 0.02735,-0.17852 0.02735,-0.17853 -0.01373,-0.0905 -0.01373,-0.0905 -0.09724,-0.10013 -0.09724,-0.10013 -0.428897,0.0134 -0.428898,0.0134 -0.282223,0.0297 -0.282222,0.0297 -0.204611,0.0104 -0.204611,0.0104 v -0.0534 -0.0534 h -0.09878 -0.09878 v 0.0511 0.0511 l 0.06549,0.16763 0.06549,0.16763 0.0048,0.17961 0.0048,0.17962 -0.0436,0.20138 -0.0436,0.20139 -0.02617,0.16933 -0.02617,0.16934 -0.01327,0.11289 -0.01327,0.11288 -0.03021,0.47978 -0.03021,0.47978 -0.02494,0.254 -0.02494,0.254 5e-4,0.0847 5e-4,0.0847 -0.01759,0.254 -0.01759,0.254 -0.0067,0.16494 -0.0067,0.16494 0.02259,0.014 0.02259,0.014 -0.02755,0.0332 -0.02755,0.0332 0.01205,0.12514 0.01205,0.12515 0.02121,0.0212 0.02121,0.0212 0.211634,0.008 0.211633,0.008 0.924377,-0.002 0.924376,-0.002 0.01728,-0.0173 z m 0.443271,-0.4895 -0.01594,-0.11658 0.06217,-0.0622 0.06217,-0.0622 0.01578,0.0158 0.01578,0.0158 -0.02914,0.036 -0.02914,0.036 0.0057,0.0705 0.0057,0.0706 -0.02394,0.0494 -0.02394,0.0494 h 0.04019 0.04019 l 0.01736,-0.0917 0.01736,-0.0917 0.01611,-0.0706 0.01611,-0.0706 0.01449,-0.11289 0.01449,-0.11289 0.0046,-0.1105 0.0046,-0.1105 0.03528,-0.0118 0.03528,-0.0118 v -0.0271 -0.0271 l -0.04794,0.008 -0.04793,0.008 -0.0096,-0.0988 -0.0096,-0.0988 9e-4,-0.0988 9e-4,-0.0988 -0.0016,-0.11289 -0.0016,-0.11289 -7e-4,-0.0564 -7e-4,-0.0564 0.0014,-0.18345 0.0014,-0.18344 -0.0018,-0.0706 -0.0018,-0.0705 0.003,-0.0565 0.003,-0.0564 -0.0091,-0.11289 -0.0091,-0.11289 -0.02313,-0.0847 -0.02313,-0.0847 -0.02468,-0.0315 -0.02468,-0.0315 0.04263,-0.0354 0.04264,-0.0354 -0.0021,-0.27175 -0.0021,-0.27175 -0.01385,-0.0494 -0.01385,-0.0494 h -0.03877 -0.03877 l -0.01981,0.0321 -0.01981,0.0321 -0.0065,0.0597 -0.0065,0.0597 -0.0036,0.0806 -0.0036,0.0806 -0.04143,-0.0159 -0.04143,-0.0159 -0.0168,0.0272 -0.0168,0.0272 0.04412,0.0169 0.04412,0.0169 v 0.0675 0.0675 h -0.04233 -0.04233 v 0.0709 0.0709 l -0.03268,0.0523 -0.03268,0.0523 0.02008,0.0523 0.02008,0.0523 0.02627,-0.0415 0.02627,-0.0416 4.34e-4,-0.12533 4.33e-4,-0.12534 0.04144,0.0548 0.04143,0.0548 9e-4,0.0579 9e-4,0.0579 -0.02843,0.0284 -0.02843,0.0284 -0.02607,0.26649 -0.02607,0.26649 -0.03398,0.0948 -0.03398,0.0947 0.03495,0.0216 0.03495,0.0216 -0.03115,0.0582 -0.03115,0.0582 -0.0094,0.27118 -0.0094,0.27117 0.01748,0.0108 0.01748,0.0108 -0.0042,0.18552 -0.0042,0.18552 0.01728,2e-5 0.01728,2e-5 0.0034,0.0635 0.0034,0.0635 0.02086,0.36487 0.02086,0.36487 0.05176,-0.0685 0.05176,-0.0685 -0.01594,-0.11657 z m 1.947037,-0.46255 0.174551,-6.7e-4 0.197556,-0.0297 0.197555,-0.0297 0.550334,-6.6e-4 0.550333,-6.7e-4 0.620889,0.0184 0.620889,0.0184 0.249073,0.0206 0.249074,0.0206 0.01365,-0.0221 0.01365,-0.0221 h -0.02521 -0.02521 l -0.122093,-0.25692 -0.122093,-0.25691 -0.03631,-0.35692 -0.03631,-0.35692 -0.0011,-0.26811 -0.0011,-0.26811 0.01702,-0.0635 0.01702,-0.0635 0.06021,-0.001 0.06021,-10e-4 -0.04856,-0.0369 -0.04856,-0.0369 -0.04316,-0.1657 -0.04316,-0.1657 v -0.0492 -0.0492 l -0.03275,-0.0719 -0.03275,-0.0719 h -0.04603 -0.04606 l -0.154023,-0.23107 -0.154022,-0.23107 -0.01716,-0.03 -0.01716,-0.03 -0.05127,-0.0988 -0.05127,-0.0988 -0.01624,-0.0141 -0.01624,-0.0141 -0.05093,-0.0847 -0.05093,-0.0847 -0.04165,-0.0929 -0.04165,-0.0929 -0.02823,0.0174 -0.02823,0.0175 0.01686,0.0899 0.01686,0.0899 -0.0576,0.12667 -0.0576,0.12667 -0.134777,0.21487 -0.134778,0.21487 -0.07055,0.0921 -0.07056,0.0921 -0.04939,0.0529 -0.04939,0.0529 v 0.0259 0.0259 l -0.02253,0.009 -0.02253,0.009 -0.189136,0.22977 -0.189137,0.22977 v 0.0135 0.0135 l -0.120657,0.12365 -0.120657,0.12366 -0.06984,0.0945 -0.06984,0.0945 -0.045,0.0466 -0.045,0.0466 -0.12296,0.18345 -0.122961,0.18344 -0.05076,0.0547 -0.05076,0.0547 v 0.036 0.036 l -0.05883,0.0315 -0.05883,0.0315 -0.03852,0.0922 -0.03852,0.0922 -0.08583,0.0678 -0.08583,0.0678 -2.54e-4,0.0494 -2.54e-4,0.0494 h -0.04233 -0.04233 v 0.0573 0.0573 l -0.04233,0.0162 -0.04233,0.0162 v 0.0271 0.0271 l -0.07042,0.0923 -0.07042,0.0923 0.01688,0.0169 0.01688,0.0169 0.06949,-0.0264 0.06949,-0.0264 0.174552,-6.7e-4 z m 4.280883,0.0492 v -0.008 l -0.0296,-0.23915 -0.0296,-0.23915 -0.05984,-0.13345 -0.05984,-0.13346 -0.10813,-0.0716 -0.108129,-0.0716 v -0.0278 -0.0278 h -0.0534 -0.05342 l -0.02257,0.0494 -0.02257,0.0494 -0.0024,0.0282 -0.0024,0.0282 -0.02483,0.0397 -0.02483,0.0397 0.0049,0.12893 0.0049,0.12894 0.07049,0.10652 0.07049,0.10651 h 0.0233 0.0233 l 0.03683,0.11161 0.03683,0.1116 0.0453,0.0121 0.04529,0.0121 0.119944,0.003 0.119945,0.003 v -0.008 z m -6.250108,-3.18132 0.01838,-0.0988 0.02103,-0.0378 0.02103,-0.0378 -0.02848,-0.12444 -0.02848,-0.12444 h -0.01942 -0.01942 l -0.0052,0.0776 -0.0052,0.0776 -0.01019,0.33867 -0.01019,0.33867 0.02386,-0.15523 0.02386,-0.15522 z m 0.169684,0.20462 0.02161,-0.0494 0.01085,-0.15523 0.01085,-0.15522 -0.0029,-0.15522 -0.0029,-0.15522 -0.02657,-0.0268 -0.02657,-0.0268 v 0.048 0.048 h -0.03002 -0.03002 l 0.01338,0.18345 0.01338,0.18344 h -0.02569 -0.02569 v 0.13641 0.1364 l 0.01881,0.0188 0.01881,0.0188 h 0.0205 0.0205 z m -2.650828,-0.89748 0.04716,-0.072 0.03725,0.0143 0.03725,0.0143 0.01668,-0.027 0.01668,-0.027 -0.03694,-0.003 -0.03694,-0.003 -0.09878,0.003 -0.09878,0.003 -0.07665,0.002 -0.07666,0.002 0.03405,0.0545 0.03405,0.0545 h 0.01977 0.01977 l 0.01829,-0.0296 0.01829,-0.0296 0.04357,0.0361 0.04357,0.0362 -0.06725,0.0188 -0.06724,0.0188 0.06285,0.003 0.06285,0.003 z"
       id="path302" /></g></svg>
