<?xml version="1.0" encoding="UTF-8" standalone="no"?>
<!-- Created with Inkscape (http://www.inkscape.org/) -->

<svg
   width="263.99997"
   height="127.99994"
   viewBox="0 0 69.849989 33.866649"
   version="1.1"
   id="svg5"
   xml:space="preserve"
   inkscape:version="1.2.1 (9c6d41e410, 2022-07-14)"
   sodipodi:docname="logo.svg"
   inkscape:export-filename="icon.png"
   inkscape:export-xdpi="192"
   inkscape:export-ydpi="192"
   xmlns:inkscape="http://www.inkscape.org/namespaces/inkscape"
   xmlns:sodipodi="http://sodipodi.sourceforge.net/DTD/sodipodi-0.dtd"
   xmlns="http://www.w3.org/2000/svg"
   xmlns:svg="http://www.w3.org/2000/svg"><sodipodi:namedview
     id="namedview7"
     pagecolor="#ffffff"
     bordercolor="#000000"
     borderopacity="0.25"
     inkscape:showpageshadow="2"
     inkscape:pageopacity="0.0"
     inkscape:pagecheckerboard="true"
     inkscape:deskcolor="#d1d1d1"
     inkscape:document-units="px"
     showgrid="true"
     inkscape:zoom="2.3786088"
     inkscape:cx="83.662349"
     inkscape:cy="83.452142"
     inkscape:window-width="1920"
     inkscape:window-height="1137"
     inkscape:window-x="-8"
     inkscape:window-y="-1"
     inkscape:window-maximized="1"
     inkscape:current-layer="layer1"><inkscape:grid
       type="xygrid"
       id="grid462"
       originx="-57.150003"
       originy="-129.11667"
       empspacing="8" /></sodipodi:namedview><defs
     id="defs2" /><g
     inkscape:label="Layer 1"
     inkscape:groupmode="layer"
     id="layer1"
     transform="translate(-57.150005,-129.11667)"><path
       style="fill:#ffffff;stroke-width:0.52916664;stroke:#252525;stroke-linecap:round;stroke-linejoin:round;stroke-dasharray:none;stroke-opacity:1"
       d="m 108.68788,161.49305 -0.7754,-0.0911 -0.64618,-0.13967 -0.64617,-0.13966 -0.48196,-0.0806 -0.48195,-0.0806 0.0687,-0.11127 0.0687,-0.11128 -0.19457,0.0746 -0.19457,0.0746 -0.29319,-0.20514 -0.29321,-0.20515 h -0.22969 -0.22973 v -0.33062 -0.33061 l 0.12029,0.0742 0.1203,0.0742 0.0812,-0.13142 0.0812,-0.13142 h -0.31862 -0.31861 l 0.0638,0.24407 0.0638,0.24407 -0.15496,0.0957 -0.15496,0.0957 -0.0969,-0.15707 -0.0969,-0.1566 -0.0818,0.009 -0.0818,0.009 -0.39298,-0.0788 -0.39303,-0.0788 -0.35072,-0.41671 -0.35071,-0.41669 -0.38772,-0.10395 -0.38772,-0.10395 -0.16155,0.0275 -0.16155,0.0275 v -0.19095 -0.19095 l -0.25845,-0.082 -0.25845,-0.082 v -0.11173 -0.11174 l -0.25048,-0.0797 -0.250488,-0.0797 -0.147219,-0.44601 -0.147221,-0.44601 h -0.124598 -0.124599 l -0.272597,-0.25415 -0.272598,-0.25414 0.163431,-0.19691 0.16343,-0.19689 0.114571,0.071 0.11457,0.071 0.01053,-0.10439 0.01053,-0.10441 0.05843,-0.35534 0.05843,-0.35534 h -0.270536 -0.270537 l 0.08371,0.13554 0.08371,0.13554 -0.09639,0.2198 -0.09639,0.2198 -0.07661,-0.36404 -0.07661,-0.36405 -0.32306,-0.17309 -0.323105,-0.17309 -2.649294,-0.19049 -2.649299,-0.1905 -2.385163,-0.009 -2.385165,-0.009 -0.152623,0.12684 -0.152624,0.12684 -1.340891,0.11769 -1.340896,0.11768 -0.579882,0.13234 -0.579886,0.13234 -1.033873,0.23079 -1.033872,0.23079 -0.986401,-0.0183 -0.986406,-0.0183 -0.62902,-0.19736 -0.629021,-0.19736 -0.406995,-0.0705 -0.40695,-0.0705 -0.271498,0.23537 -0.271498,0.23537 v 0.14653 0.14654 h 0.144289 0.144289 l -0.06177,0.32282 -0.06177,0.32329 h 0.09516 0.09516 l 0.0745,0.37274 0.0745,0.37275 0.0827,0.32924 0.0827,0.32924 -0.561066,0.27292 -0.561067,0.27292 -0.54583,0.076 -0.545836,0.076 -0.314084,-0.20606 -0.314084,-0.20561 -1.272438,-0.0586 -1.272438,-0.0586 -0.06461,-0.0229 -0.06461,-0.0229 -0.581553,0.0137 -0.581552,0.0137 -2.520062,0.0554 -2.520061,0.0554 -1.486193,0.20286 -1.486193,0.20332 -1.249125,0.0137 -1.249126,0.0137 -0.451229,-0.34435 -0.451185,-0.34436 -0.458817,-0.0746 -0.458814,-0.0746 -0.07812,-0.59785 -0.07812,-0.59782 -0.121211,-0.62023 -0.121256,-0.62021 v -0.56759 -0.56754 l -0.111365,-0.0687 -0.111366,-0.0687 -0.08943,-1.33514 -0.08943,-1.33515 0.0069,-3.28839 0.0069,-3.28838 0.134077,-0.77539 0.134078,-0.77543 0.129361,-1.48617 0.129361,-1.48621 -0.0044,-0.1937 -0.0044,-0.19369 0.0055,-0.71083 0.0055,-0.71078 0.107839,-0.45242 0.107839,-0.45241 0.151891,-0.96928 0.15189,-0.96927 0.129819,-0.71078 0.12982,-0.71077 0.138839,-0.45242 0.138841,-0.45242 0.255333,-0.54923 0.255288,-0.54927 h 0.180831 0.180831 l 0.354152,0.5033 0.354152,0.50329 0.236285,0.1502 0.236284,0.1502 0.174145,-0.1447 0.174146,-0.14471 0.171123,0.0321 0.171123,0.032 0.90464,-0.10715 0.904636,-0.10715 0.581552,-0.0275 0.581553,-0.0275 0.549247,-0.098 0.549242,-0.098 v 0.1447 0.1447 l -0.516936,0.0829 -0.516936,0.0829 v 0.0966 0.0966 l 0.743096,0.0632 0.743097,0.0632 0.286197,-0.10715 0.286197,-0.10715 0.05683,0.092 0.05683,0.092 1.078548,-0.0137 1.078542,-0.0137 0.207711,0.10532 0.207711,0.10532 0.470759,-0.13005 0.470766,-0.13005 v -0.12913 -0.12913 l 0.437538,0.082 0.437538,0.082 0.08504,-0.13783 0.08504,-0.13738 0.558017,0.0765 0.55802,0.0765 0.180327,-0.25735 0.180328,-0.25735 0.903765,0.0966 0.903765,0.0966 0.452329,0.16302 0.45233,0.16302 0.193835,0.11585 0.193835,0.11585 0.226166,0.076 0.226164,0.076 v 0.16806 0.16805 l 0.161552,0.0545 0.161553,0.0545 -0.03205,1.14405 -0.03205,1.1441 -0.109763,0.0724 -0.109807,0.0724 -0.0833,1.16311 -0.0833,1.1631 -0.07226,1.03389 -0.07226,1.03383 -0.119746,0.84683 -0.119744,0.84682 -0.07121,2.06094 -0.07121,2.06095 -0.05536,1.01446 -0.05536,1.01447 0.203224,0.31001 0.203223,0.31001 -0.176389,0.002 -0.17639,0.002 0.172589,0.10944 0.172588,0.10944 -0.03572,0.0504 -0.03572,0.0504 0.139619,0.24957 0.139618,0.24955 0.175657,-0.185 0.175656,-0.18499 0.192142,-0.38785 0.192141,-0.38786 0.479328,-0.64616 0.479328,-0.64617 0.23317,-0.20606 0.233171,-0.20607 0.164621,-0.24636 0.16462,-0.24635 0.253457,-0.41991 0.253457,-0.41991 h 0.195758 0.195759 v -0.20926 -0.20927 l 0.384741,-0.46937 0.384741,-0.46941 0.266232,-0.32283 0.266232,-0.32329 0.221402,-0.33931 0.221403,-0.33931 0.255883,-0.37137 0.255883,-0.37183 0.48828,-0.64617 0.488285,-0.64617 0.12817,-0.15615 0.128171,-0.15615 v -0.087 -0.087 l 0.23427,-0.20881 0.234269,-0.20881 0.404294,-0.59383 0.404294,-0.59383 0.459903,-0.40388 0.459904,-0.40388 v -0.12593 -0.12593 l 0.743091,-0.87795 0.743097,-0.87797 0.193835,-0.20194 0.193835,-0.20194 1.049489,-1.15665 1.049483,-1.1566 0.371278,-0.45242 0.371278,-0.45243 0.153906,-0.1621 0.153905,-0.1621 0.08178,-0.25781 0.08178,-0.25781 h 0.135588 0.135589 l -0.06598,-0.2523 -0.06599,-0.25231 0.138382,-0.0462 0.138382,-0.0463 -0.111044,-0.1795 -0.111045,-0.17951 -0.01282,-0.29444 -0.01282,-0.29444 0.166818,-0.0641 0.166819,-0.0641 0.289632,0.11128 0.289677,0.11127 0.362028,0.33749 0.362029,0.33748 h 0.05234 0.05234 l 0.554861,0.51534 0.554861,0.51529 0.09593,0.002 0.09593,0.002 0.342567,0.29078 0.342566,0.29078 0.112555,0.12913 0.112557,0.12913 0.288944,0.45792 0.288945,0.45792 0.213343,0.44693 0.213343,0.44646 0.196308,0.51694 0.196308,0.51694 0.404157,0.84 0.404157,0.84005 0.172267,0.32328 0.172269,0.32329 0.370865,0.75566 0.370866,0.75565 0.193836,0.0751 0.193836,0.0751 0.08797,0.13188 0.08797,0.13188 0.263164,-0.31642 0.263165,-0.31596 0.0043,-0.14242 0.0043,-0.14241 0.323108,-0.60761 0.3231,-0.60766 v -0.31641 -0.31642 h 0.17643 0.17644 l 0.34051,-0.26788 0.3405,-0.26788 7.8e-4,-0.28162 7.7e-4,-0.28162 0.19306,-0.37 0.19306,-0.36999 1.1e-4,-0.21156 1.2e-4,-0.21156 0.4845,-0.46725 0.48453,-0.46721 0.29077,-0.0907 0.29078,-0.0907 v 0.20835 0.20835 l 0.48463,-0.087 0.48463,-0.087 0.19384,-0.15157 0.19383,-0.15157 0.7754,-0.37366 0.7754,-0.37412 0.30818,-0.23354 0.30827,-0.23353 h -0.0905 -0.0905 l -0.24998,0.13371 -0.24997,0.13371 v -0.10212 -0.10211 l 0.35539,-0.14745 0.35539,-0.14745 0.36619,-0.0833 0.36625,-0.0833 -0.083,0.13463 -0.083,0.13462 h -0.25844 -0.25845 l 0.0801,0.12959 0.0801,0.12959 0.22516,-0.12043 0.22515,-0.12043 1.35012,-0.18591 1.35012,-0.18592 1.80927,0.0366 1.80929,0.0366 1.09847,0.0632 1.0985,0.0632 0.51694,0.1992 0.51693,0.19919 0.23774,0.005 0.23775,0.005 0.24256,0.29078 0.24256,0.29077 0.005,-0.16164 0.005,-0.16165 h 0.18463 0.18463 l 0.17886,0.17905 0.17887,0.17905 0.54115,0.27612 0.54115,0.27612 v 0.12639 0.12684 h 0.18742 0.18742 l 0.13325,0.22621 0.13326,0.22621 0.1218,-0.18545 0.12181,-0.18546 0.20684,0.17172 0.2068,0.17172 0.0737,-0.0737 0.0737,-0.0737 -0.27076,-0.23171 -0.27077,-0.2317 v -0.10029 -0.10028 h 0.15826 0.15825 l 0.43402,0.48461 0.43397,0.48461 0.12304,0.22621 0.12304,0.22621 h -0.15381 -0.15382 l 0.1942,0.22621 0.19425,0.22621 0.1116,0.1937 0.11159,0.1937 -0.34586,-0.22621 -0.34587,-0.22621 h -0.078 -0.078 l 0.26023,0.35534 0.26023,0.35535 0.45934,0.4918 0.45934,0.49185 0.0105,0.21888 0.0105,0.21888 0.0665,-0.16576 0.0665,-0.16577 -0.20601,-0.31871 -0.20598,-0.31871 -0.21343,-0.35534 -0.21344,-0.35534 0.36121,0.38785 0.3612,0.38786 -0.0711,-0.29078 -0.0711,-0.29078 h 0.11708 0.11709 v 0.13463 0.13463 l 0.12991,0.15615 0.12991,0.15615 0.38698,0.75625 0.38699,0.75619 v 0.27887 0.27888 l 0.23821,0.14882 0.23821,0.14882 0.21146,0.75465 0.21147,0.75469 0.25977,1.48616 0.25978,1.48622 0.001,1.49532 10e-4,1.49528 -0.25849,1.20949 -0.25845,1.20949 v 0.23125 0.23125 l -0.33272,0.7469 -0.33272,0.74695 -0.18422,0.40709 -0.18422,0.40709 v 0.14195 0.14196 l -0.35539,0.6784 -0.35539,0.67844 -0.16155,0.10349 -0.16155,0.10349 v 0.13646 0.13646 l -0.31853,0.40617 -0.31848,0.40618 -0.35997,0.4428 -0.35997,0.44281 -0.48462,0.49889 -0.48463,0.49894 v 0.1241 0.1241 l -0.16155,0.005 -0.16156,0.005 -0.57982,0.5773 -0.57984,0.57734 h -0.16325 -0.16325 v 0.11814 0.11815 l -0.87233,0.49409 -0.87233,0.49408 -1.09848,0.53458 -1.09849,0.53457 -0.96924,0.2862 -0.96926,0.28619 -0.57093,0.11815 -0.57094,0.11814 -1.36757,0.0366 -1.36759,0.0366 -0.7754,-0.0911 z m 3.7104,-4.25404 1.32973,-0.13691 0.90462,-0.26972 0.90464,-0.26971 0.0646,-0.0783 0.0646,-0.0783 1.1514,-0.56341 1.15139,-0.56338 0.1409,-0.11447 0.14091,-0.11448 0.7754,-0.57565 0.77541,-0.5756 0.6042,-0.68485 0.6042,-0.68487 0.35616,-0.4341 0.35613,-0.43411 0.43905,-0.72891 0.43905,-0.72895 0.2628,-0.71078 0.2628,-0.71078 0.17465,-0.84004 0.17465,-0.84 0.005,-0.71934 0.005,-0.71939 -0.14117,-0.76683 -0.14118,-0.76681 -0.10014,-0.12914 -0.10015,-0.12913 -0.22246,-0.68184 -0.22245,-0.68184 -0.39322,-0.73972 -0.39321,-0.73971 -0.39674,-0.58155 -0.39674,-0.58156 -1.07188,-1.06621 -1.07191,-1.06616 h -0.18797 -0.18798 l -0.10335,-0.1621 -0.10335,-0.1621 -0.96919,-0.47083 -0.96926,-0.47088 -0.23949,-0.0788 -0.23944,-0.0788 -0.92365,-0.19279 -0.92363,-0.19278 -1.80927,0.005 -1.80928,0.005 -0.71078,0.17675 -0.7108,0.17676 -0.58155,0.20927 -0.58155,0.20927 -0.58155,0.28803 -0.58156,0.28803 -0.0751,0.10165 -0.0751,0.10166 -0.50647,0.26697 -0.50648,0.26696 -0.3231,0.2926 -0.32306,0.29261 -0.22621,0.11952 -0.22621,0.11951 -0.90201,0.87366 -0.90202,0.87366 -0.46747,0.70432 -0.46748,0.70427 h -0.11334 -0.11333 l -0.19718,0.38145 -0.19718,0.38144 v 0.26056 0.26055 l 0.21778,0.45655 0.21779,0.45653 h 0.10532 0.10532 v 0.20148 0.20149 l 0.50371,1.05852 0.50369,1.05852 0.40131,0.8649 0.40128,0.86492 0.12533,0.0774 0.12533,0.0774 0.14438,0.54378 0.14438,0.54382 0.4407,0.66805 0.4407,0.66805 5.2e-4,0.17218 5.2e-4,0.17218 0.26198,0.42952 0.26196,0.42953 0.24805,0.26605 0.24806,0.26605 0.0786,0.35809 0.0786,0.35808 0.31546,0.0792 0.31546,0.0792 v 0.185 0.185 l 0.20542,0.11494 0.20542,0.11493 -0.0206,0.0531 -0.0206,0.0531 0.13018,0.34252 0.13019,0.34252 -0.1409,0.45888 -0.1409,0.45888 -0.27105,0.0412 -0.27104,0.0412 -0.2851,-0.17676 -0.2851,-0.17676 -0.12455,0.0769 -0.12455,0.0769 -0.18853,-0.18866 -0.18851,-0.18866 -0.24192,0.17767 -0.24192,0.17767 0.62458,0.26834 0.62457,0.26833 h 0.17552 0.17551 l 0.0708,0.11448 0.0708,0.11448 0.48605,0.0907 0.48607,0.0907 0.13691,0.1131 0.13692,0.11311 1.32978,0.12501 1.32979,0.12501 0.0734,0.0733 0.0734,0.0733 h 0.23185 0.23184 l 1.32972,-0.13692 z m -40.138994,-1.06313 0.07913,-0.0792 0.06177,-0.55582 0.06177,-0.55582 -0.0069,-0.32329 -0.0069,-0.32329 0.0055,-1.87388 0.0055,-1.87389 -0.002,-0.4286 -0.002,-0.42861 -0.14873,-0.17905 -0.148732,-0.17904 0.0073,-3.56167 0.0073,-3.56167 0.120707,-0.22576 0.120706,-0.22575 0.08265,-0.96803 0.08265,-0.96803 0.04959,-0.38786 0.04959,-0.38785 -0.131788,-0.34573 -0.131788,-0.34573 0.12524,-0.81746 0.125239,-0.81752 -0.06287,-0.41442 -0.06287,-0.41441 -0.445277,-0.45851 -0.445277,-0.45852 -1.963987,0.0614 -1.963991,0.0614 -1.292344,0.13601 -1.292339,0.136 -0.936946,0.0476 -0.936946,0.0476 v -0.24452 -0.24453 h -0.452328 -0.45233 v 0.23399 0.234 l 0.299889,0.76761 0.299889,0.7676 0.02198,0.82247 0.02198,0.8225 -0.199651,0.92215 -0.199652,0.9222 -0.119836,0.77538 -0.119837,0.77544 -0.06077,0.51694 -0.06077,0.5169 -0.138337,2.19699 -0.138335,2.19698 -0.114205,1.16311 -0.114204,1.16311 0.0023,0.38786 0.0023,0.38784 -0.08055,1.16311 -0.08055,1.16311 -0.03068,0.75528 -0.03068,0.75529 0.103443,0.0641 0.103443,0.0641 -0.126156,0.15203 -0.126156,0.15203 0.05518,0.57304 0.05518,0.57308 0.09712,0.0971 0.09712,0.0971 0.969105,0.0366 0.969101,0.0366 4.232867,-0.009 4.232863,-0.009 0.07913,-0.0792 z m 2.029807,-2.24151 -0.07299,-0.53384 0.284686,-0.28481 0.284686,-0.28483 0.07226,0.0724 0.07226,0.0724 -0.133437,0.16485 -0.133436,0.16485 0.0261,0.32283 0.0261,0.32329 -0.109625,0.22621 -0.109625,0.22621 h 0.184037 0.184035 l 0.07949,-0.41991 0.07949,-0.41991 0.07377,-0.32328 0.07377,-0.32329 0.06635,-0.51694 0.06635,-0.51695 0.02106,-0.50599 0.02106,-0.506 0.161552,-0.054 0.161552,-0.054 v -0.1241 -0.12409 l -0.219524,0.0366 -0.219479,0.0366 -0.04396,-0.45241 -0.04396,-0.45242 0.0041,-0.45242 0.0041,-0.45242 -0.0073,-0.51695 -0.0073,-0.51694 -0.0032,-0.25827 -0.0032,-0.25826 0.0064,-0.84004 0.0064,-0.84 -0.0082,-0.32329 -0.0082,-0.32283 0.01374,-0.25873 0.01374,-0.25826 -0.04167,-0.51694 -0.04167,-0.51694 -0.105915,-0.38785 -0.105916,-0.38786 -0.113013,-0.14424 -0.113014,-0.14425 0.195209,-0.1621 0.195256,-0.1621 -0.0096,-1.24438 -0.0096,-1.24439 -0.06342,-0.22621 -0.06342,-0.22622 h -0.177534 -0.177535 l -0.09071,0.147 -0.09071,0.14699 -0.02976,0.27337 -0.02977,0.27338 -0.01648,0.36908 -0.01649,0.36908 -0.189714,-0.0728 -0.189715,-0.0728 -0.07693,0.12455 -0.07693,0.12455 0.202032,0.0774 0.202033,0.0774 v 0.30908 0.3091 h -0.193836 -0.193836 v 0.32466 0.32466 l -0.149647,0.23949 -0.149647,0.23949 0.09195,0.2395 0.09195,0.23949 0.120295,-0.19004 0.120294,-0.19049 0.002,-0.57391 0.002,-0.57395 0.189761,0.25093 0.189714,0.25094 0.0041,0.26514 0.0041,0.26513 -0.130184,0.13005 -0.130186,0.13005 -0.119379,1.2203 -0.119378,1.22029 -0.155601,0.43411 -0.155599,0.43365 0.160041,0.0989 0.160042,0.0989 -0.142641,0.26651 -0.14264,0.2665 -0.04304,1.24177 -0.04305,1.24174 0.08004,0.0494 0.08004,0.0495 -0.01923,0.84952 -0.01923,0.84952 0.07913,1e-4 0.07913,9e-5 0.01557,0.29077 0.01557,0.29078 0.09552,1.67079 0.09552,1.67081 0.237018,-0.31368 0.237017,-0.31367 -0.07299,-0.53379 z m 8.915788,-2.11808 0.799296,-0.003 0.90464,-0.136 0.904636,-0.13601 2.520066,-0.003 2.520061,-0.003 2.843148,0.0843 2.843148,0.0843 1.140544,0.0943 1.140549,0.0943 0.06251,-0.1012 0.0625,-0.1012 H 98.830539 98.7151 l -0.559084,-1.17648 -0.559083,-1.17643 -0.166269,-1.63439 -0.16627,-1.63439 -0.005,-1.22772 -0.005,-1.22772 0.07794,-0.29077 0.07794,-0.29078 0.275711,-0.005 0.275711,-0.005 -0.222363,-0.16897 -0.222364,-0.16897 -0.197637,-0.75877 -0.197636,-0.75877 v -0.22528 -0.2253 l -0.149968,-0.32924 -0.149967,-0.32924 h -0.210857 -0.210917 l -0.705295,-1.05811 -0.705291,-1.0581 -0.07858,-0.13738 -0.07858,-0.13737 -0.234773,-0.45243 -0.234773,-0.45242 -0.07437,-0.0646 -0.07437,-0.0646 -0.233216,-0.38786 -0.233216,-0.38785 -0.190722,-0.42541 -0.190722,-0.42539 -0.129269,0.0797 -0.12927,0.0801 0.0772,0.41167 0.0772,0.41167 -0.26376,0.58004 -0.263759,0.58004 -0.617165,0.98392 -0.61717,0.98393 -0.32306,0.42174 -0.323104,0.42174 -0.226165,0.24224 -0.226165,0.24224 v 0.1186 0.1186 l -0.103168,0.0412 -0.103168,0.0412 -0.866083,1.05215 -0.866089,1.05216 v 0.0618 0.0618 l -0.552507,0.56622 -0.552508,0.56626 -0.319808,0.43272 -0.319808,0.43273 -0.206062,0.21339 -0.206063,0.21339 -0.563053,0.84005 -0.563057,0.84 -0.232438,0.25047 -0.232438,0.25048 v 0.16485 0.16485 l -0.269392,0.14425 -0.269392,0.14424 -0.176389,0.4222 -0.176389,0.4222 -0.393029,0.31047 -0.393029,0.31047 -0.0012,0.22621 -0.0012,0.22621 h -0.193835 -0.193835 v 0.26238 0.26238 l -0.193837,0.0742 -0.193835,0.0742 v 0.12409 0.1241 l -0.322464,0.42266 -0.322465,0.42265 0.0773,0.0774 0.0773,0.0774 0.318206,-0.12089 0.318206,-0.12089 0.799301,-0.003 z m 19.602839,0.22529 v -0.0366 l -0.13554,-1.09511 -0.13555,-1.0951 -0.27401,-0.61109 -0.27401,-0.61114 -0.49515,-0.32787 -0.49514,-0.32786 v -0.12731 -0.1273 h -0.24453 -0.24462 l -0.10335,0.22621 -0.10335,0.22622 -0.011,0.12913 -0.011,0.12913 -0.1137,0.18179 -0.1137,0.1818 0.0224,0.59039 0.0224,0.59044 0.32279,0.48776 0.32279,0.48773 h 0.10669 0.10669 l 0.16866,0.51108 0.16865,0.51104 0.20743,0.0554 0.20739,0.0554 0.54924,0.0137 0.54925,0.0137 v -0.0366 z m -28.62023,-14.56776 0.08417,-0.45242 0.0963,-0.1731 0.0963,-0.17309 -0.130414,-0.56983 -0.130415,-0.56983 h -0.08893 -0.08893 l -0.02381,0.35534 -0.02381,0.35535 -0.04666,1.55082 -0.04666,1.55082 0.109259,-0.71082 0.109259,-0.71077 z m 0.777011,0.93698 0.09896,-0.22621 0.04968,-0.71082 0.04968,-0.71078 -0.01328,-0.71077 -0.01328,-0.71078 -0.121667,-0.12273 -0.121669,-0.12272 v 0.2198 0.2198 h -0.137467 -0.137465 l 0.06127,0.84005 0.06127,0.84001 h -0.11764 -0.117639 v 0.62464 0.62459 l 0.08614,0.0861 0.08613,0.0861 h 0.09387 0.09387 z m -12.138558,-4.1097 0.215953,-0.3297 0.170573,0.0655 0.170574,0.0655 0.07638,-0.12364 0.07638,-0.12364 -0.169154,-0.0137 -0.169154,-0.0137 -0.452329,0.0137 -0.45233,0.0137 -0.350991,0.009 -0.351039,0.009 0.15592,0.24956 0.155921,0.24957 h 0.09053 0.09053 l 0.08375,-0.13554 0.08375,-0.13555 0.199514,0.16531 0.199513,0.16577 -0.307948,0.0861 -0.307902,0.0861 0.2878,0.0137 0.2878,0.0137 z"
       id="path302" /><path
       style="fill:#ffffff;stroke-width:0.26458332;stroke:none;stroke-linecap:round;stroke-linejoin:round;stroke-dasharray:none;stroke-opacity:1"
       d="m 108.68788,161.49305 -0.7754,-0.0911 -0.64618,-0.13967 -0.64617,-0.13966 -0.48196,-0.0806 -0.48195,-0.0806 0.0687,-0.11127 0.0687,-0.11128 -0.19457,0.0746 -0.19457,0.0746 -0.29319,-0.20514 -0.29321,-0.20515 h -0.22969 -0.22973 v -0.33062 -0.33061 l 0.12029,0.0742 0.1203,0.0742 0.0812,-0.13142 0.0812,-0.13142 h -0.31862 -0.31861 l 0.0638,0.24407 0.0638,0.24407 -0.15496,0.0957 -0.15496,0.0957 -0.0969,-0.15707 -0.0969,-0.1566 -0.0818,0.009 -0.0818,0.009 -0.39298,-0.0788 -0.39303,-0.0788 -0.35072,-0.41671 -0.35071,-0.41669 -0.38772,-0.10395 -0.38772,-0.10395 -0.16155,0.0275 -0.16155,0.0275 v -0.19095 -0.19095 l -0.25845,-0.082 -0.25845,-0.082 v -0.11173 -0.11174 l -0.25048,-0.0797 -0.250488,-0.0797 -0.147219,-0.44601 -0.147221,-0.44601 h -0.124598 -0.124599 l -0.272597,-0.25415 -0.272598,-0.25414 0.163431,-0.19691 0.16343,-0.19689 0.114571,0.071 0.11457,0.071 0.01053,-0.10439 0.01053,-0.10441 0.05843,-0.35534 0.05843,-0.35534 h -0.270536 -0.270537 l 0.08371,0.13554 0.08371,0.13554 -0.09639,0.2198 -0.09639,0.2198 -0.07661,-0.36404 -0.07661,-0.36405 -0.32306,-0.17309 -0.323105,-0.17309 -2.649294,-0.19049 -2.649299,-0.1905 -2.385163,-0.009 -2.385165,-0.009 -0.152623,0.12684 -0.152624,0.12684 -1.340891,0.11769 -1.340896,0.11768 -0.579882,0.13234 -0.579886,0.13234 -1.033873,0.23079 -1.033872,0.23079 -0.986401,-0.0183 -0.986406,-0.0183 -0.62902,-0.19736 -0.629021,-0.19736 -0.406995,-0.0705 -0.40695,-0.0705 -0.271498,0.23537 -0.271498,0.23537 v 0.14653 0.14654 h 0.144289 0.144289 l -0.06177,0.32282 -0.06177,0.32329 h 0.09516 0.09516 l 0.0745,0.37274 0.0745,0.37275 0.0827,0.32924 0.0827,0.32924 -0.561066,0.27292 -0.561067,0.27292 -0.54583,0.076 -0.545836,0.076 -0.314084,-0.20606 -0.314084,-0.20561 -1.272438,-0.0586 -1.272438,-0.0586 -0.06461,-0.0229 -0.06461,-0.0229 -0.581553,0.0137 -0.581552,0.0137 -2.520062,0.0554 -2.520061,0.0554 -1.486193,0.20286 -1.486193,0.20332 -1.249125,0.0137 -1.249126,0.0137 -0.451229,-0.34435 -0.451185,-0.34436 -0.458817,-0.0746 -0.458814,-0.0746 -0.07812,-0.59785 -0.07812,-0.59782 -0.121211,-0.62023 -0.121256,-0.62021 v -0.56759 -0.56754 l -0.111365,-0.0687 -0.111366,-0.0687 -0.08943,-1.33514 -0.08943,-1.33515 0.0069,-3.28839 0.0069,-3.28838 0.134077,-0.77539 0.134078,-0.77543 0.129361,-1.48617 0.129361,-1.48621 -0.0044,-0.1937 -0.0044,-0.19369 0.0055,-0.71083 0.0055,-0.71078 0.107839,-0.45242 0.107839,-0.45241 0.151891,-0.96928 0.15189,-0.96927 0.129819,-0.71078 0.12982,-0.71077 0.138839,-0.45242 0.138841,-0.45242 0.255333,-0.54923 0.255288,-0.54927 h 0.180831 0.180831 l 0.354152,0.5033 0.354152,0.50329 0.236285,0.1502 0.236284,0.1502 0.174145,-0.1447 0.174146,-0.14471 0.171123,0.0321 0.171123,0.032 0.90464,-0.10715 0.904636,-0.10715 0.581552,-0.0275 0.581553,-0.0275 0.549247,-0.098 0.549242,-0.098 v 0.1447 0.1447 l -0.516936,0.0829 -0.516936,0.0829 v 0.0966 0.0966 l 0.743096,0.0632 0.743097,0.0632 0.286197,-0.10715 0.286197,-0.10715 0.05683,0.092 0.05683,0.092 1.078548,-0.0137 1.078542,-0.0137 0.207711,0.10532 0.207711,0.10532 0.470759,-0.13005 0.470766,-0.13005 v -0.12913 -0.12913 l 0.437538,0.082 0.437538,0.082 0.08504,-0.13783 0.08504,-0.13738 0.558017,0.0765 0.55802,0.0765 0.180327,-0.25735 0.180328,-0.25735 0.903765,0.0966 0.903765,0.0966 0.452329,0.16302 0.45233,0.16302 0.193835,0.11585 0.193835,0.11585 0.226166,0.076 0.226164,0.076 v 0.16806 0.16805 l 0.161552,0.0545 0.161553,0.0545 -0.03205,1.14405 -0.03205,1.1441 -0.109763,0.0724 -0.109807,0.0724 -0.0833,1.16311 -0.0833,1.1631 -0.07226,1.03389 -0.07226,1.03383 -0.119746,0.84683 -0.119744,0.84682 -0.07121,2.06094 -0.07121,2.06095 -0.05536,1.01446 -0.05536,1.01447 0.203224,0.31001 0.203223,0.31001 -0.176389,0.002 -0.17639,0.002 0.172589,0.10944 0.172588,0.10944 -0.03572,0.0504 -0.03572,0.0504 0.139619,0.24957 0.139618,0.24955 0.175657,-0.185 0.175656,-0.18499 0.192142,-0.38785 0.192141,-0.38786 0.479328,-0.64616 0.479328,-0.64617 0.23317,-0.20606 0.233171,-0.20607 0.164621,-0.24636 0.16462,-0.24635 0.253457,-0.41991 0.253457,-0.41991 h 0.195758 0.195759 v -0.20926 -0.20927 l 0.384741,-0.46937 0.384741,-0.46941 0.266232,-0.32283 0.266232,-0.32329 0.221402,-0.33931 0.221403,-0.33931 0.255883,-0.37137 0.255883,-0.37183 0.48828,-0.64617 0.488285,-0.64617 0.12817,-0.15615 0.128171,-0.15615 v -0.087 -0.087 l 0.23427,-0.20881 0.234269,-0.20881 0.404294,-0.59383 0.404294,-0.59383 0.459903,-0.40388 0.459904,-0.40388 v -0.12593 -0.12593 l 0.743091,-0.87795 0.743097,-0.87797 0.193835,-0.20194 0.193835,-0.20194 1.049489,-1.15665 1.049483,-1.1566 0.371278,-0.45242 0.371278,-0.45243 0.153906,-0.1621 0.153905,-0.1621 0.08178,-0.25781 0.08178,-0.25781 h 0.135588 0.135589 l -0.06598,-0.2523 -0.06599,-0.25231 0.138382,-0.0462 0.138382,-0.0463 -0.111044,-0.1795 -0.111045,-0.17951 -0.01282,-0.29444 -0.01282,-0.29444 0.166818,-0.0641 0.166819,-0.0641 0.289632,0.11128 0.289677,0.11127 0.362028,0.33749 0.362029,0.33748 h 0.05234 0.05234 l 0.554861,0.51534 0.554861,0.51529 0.09593,0.002 0.09593,0.002 0.342567,0.29078 0.342566,0.29078 0.112555,0.12913 0.112557,0.12913 0.288944,0.45792 0.288945,0.45792 0.213343,0.44693 0.213343,0.44646 0.196308,0.51694 0.196308,0.51694 0.404157,0.84 0.404157,0.84005 0.172267,0.32328 0.172269,0.32329 0.370865,0.75566 0.370866,0.75565 0.193836,0.0751 0.193836,0.0751 0.08797,0.13188 0.08797,0.13188 0.263164,-0.31642 0.263165,-0.31596 0.0043,-0.14242 0.0043,-0.14241 0.323108,-0.60761 0.3231,-0.60766 v -0.31641 -0.31642 h 0.17643 0.17644 l 0.34051,-0.26788 0.3405,-0.26788 7.8e-4,-0.28162 7.7e-4,-0.28162 0.19306,-0.37 0.19306,-0.36999 1.1e-4,-0.21156 1.2e-4,-0.21156 0.4845,-0.46725 0.48453,-0.46721 0.29077,-0.0907 0.29078,-0.0907 v 0.20835 0.20835 l 0.48463,-0.087 0.48463,-0.087 0.19384,-0.15157 0.19383,-0.15157 0.7754,-0.37366 0.7754,-0.37412 0.30818,-0.23354 0.30827,-0.23353 h -0.0905 -0.0905 l -0.24998,0.13371 -0.24997,0.13371 v -0.10212 -0.10211 l 0.35539,-0.14745 0.35539,-0.14745 0.36619,-0.0833 0.36625,-0.0833 -0.083,0.13463 -0.083,0.13462 h -0.25844 -0.25845 l 0.0801,0.12959 0.0801,0.12959 0.22516,-0.12043 0.22515,-0.12043 1.35012,-0.18591 1.35012,-0.18592 1.80927,0.0366 1.80929,0.0366 1.09847,0.0632 1.0985,0.0632 0.51694,0.1992 0.51693,0.19919 0.23774,0.005 0.23775,0.005 0.24256,0.29078 0.24256,0.29077 0.005,-0.16164 0.005,-0.16165 h 0.18463 0.18463 l 0.17886,0.17905 0.17887,0.17905 0.54115,0.27612 0.54115,0.27612 v 0.12639 0.12684 h 0.18742 0.18742 l 0.13325,0.22621 0.13326,0.22621 0.1218,-0.18545 0.12181,-0.18546 0.20684,0.17172 0.2068,0.17172 0.0737,-0.0737 0.0737,-0.0737 -0.27076,-0.23171 -0.27077,-0.2317 v -0.10029 -0.10028 h 0.15826 0.15825 l 0.43402,0.48461 0.43397,0.48461 0.12304,0.22621 0.12304,0.22621 h -0.15381 -0.15382 l 0.1942,0.22621 0.19425,0.22621 0.1116,0.1937 0.11159,0.1937 -0.34586,-0.22621 -0.34587,-0.22621 h -0.078 -0.078 l 0.26023,0.35534 0.26023,0.35535 0.45934,0.4918 0.45934,0.49185 0.0105,0.21888 0.0105,0.21888 0.0665,-0.16576 0.0665,-0.16577 -0.20601,-0.31871 -0.20598,-0.31871 -0.21343,-0.35534 -0.21344,-0.35534 0.36121,0.38785 0.3612,0.38786 -0.0711,-0.29078 -0.0711,-0.29078 h 0.11708 0.11709 v 0.13463 0.13463 l 0.12991,0.15615 0.12991,0.15615 0.38698,0.75625 0.38699,0.75619 v 0.27887 0.27888 l 0.23821,0.14882 0.23821,0.14882 0.21146,0.75465 0.21147,0.75469 0.25977,1.48616 0.25978,1.48622 0.001,1.49532 10e-4,1.49528 -0.25849,1.20949 -0.25845,1.20949 v 0.23125 0.23125 l -0.33272,0.7469 -0.33272,0.74695 -0.18422,0.40709 -0.18422,0.40709 v 0.14195 0.14196 l -0.35539,0.6784 -0.35539,0.67844 -0.16155,0.10349 -0.16155,0.10349 v 0.13646 0.13646 l -0.31853,0.40617 -0.31848,0.40618 -0.35997,0.4428 -0.35997,0.44281 -0.48462,0.49889 -0.48463,0.49894 v 0.1241 0.1241 l -0.16155,0.005 -0.16156,0.005 -0.57982,0.5773 -0.57984,0.57734 h -0.16325 -0.16325 v 0.11814 0.11815 l -0.87233,0.49409 -0.87233,0.49408 -1.09848,0.53458 -1.09849,0.53457 -0.96924,0.2862 -0.96926,0.28619 -0.57093,0.11815 -0.57094,0.11814 -1.36757,0.0366 -1.36759,0.0366 -0.7754,-0.0911 z m 3.7104,-4.25404 1.32973,-0.13691 0.90462,-0.26972 0.90464,-0.26971 0.0646,-0.0783 0.0646,-0.0783 1.1514,-0.56341 1.15139,-0.56338 0.1409,-0.11447 0.14091,-0.11448 0.7754,-0.57565 0.77541,-0.5756 0.6042,-0.68485 0.6042,-0.68487 0.35616,-0.4341 0.35613,-0.43411 0.43905,-0.72891 0.43905,-0.72895 0.2628,-0.71078 0.2628,-0.71078 0.17465,-0.84004 0.17465,-0.84 0.005,-0.71934 0.005,-0.71939 -0.14117,-0.76683 -0.14118,-0.76681 -0.10014,-0.12914 -0.10015,-0.12913 -0.22246,-0.68184 -0.22245,-0.68184 -0.39322,-0.73972 -0.39321,-0.73971 -0.39674,-0.58155 -0.39674,-0.58156 -1.07188,-1.06621 -1.07191,-1.06616 h -0.18797 -0.18798 l -0.10335,-0.1621 -0.10335,-0.1621 -0.96919,-0.47083 -0.96926,-0.47088 -0.23949,-0.0788 -0.23944,-0.0788 -0.92365,-0.19279 -0.92363,-0.19278 -1.80927,0.005 -1.80928,0.005 -0.71078,0.17675 -0.7108,0.17676 -0.58155,0.20927 -0.58155,0.20927 -0.58155,0.28803 -0.58156,0.28803 -0.0751,0.10165 -0.0751,0.10166 -0.50647,0.26697 -0.50648,0.26696 -0.3231,0.2926 -0.32306,0.29261 -0.22621,0.11952 -0.22621,0.11951 -0.90201,0.87366 -0.90202,0.87366 -0.46747,0.70432 -0.46748,0.70427 h -0.11334 -0.11333 l -0.19718,0.38145 -0.19718,0.38144 v 0.26056 0.26055 l 0.21778,0.45655 0.21779,0.45653 h 0.10532 0.10532 v 0.20148 0.20149 l 0.50371,1.05852 0.50369,1.05852 0.40131,0.8649 0.40128,0.86492 0.12533,0.0774 0.12533,0.0774 0.14438,0.54378 0.14438,0.54382 0.4407,0.66805 0.4407,0.66805 5.2e-4,0.17218 5.2e-4,0.17218 0.26198,0.42952 0.26196,0.42953 0.24805,0.26605 0.24806,0.26605 0.0786,0.35809 0.0786,0.35808 0.31546,0.0792 0.31546,0.0792 v 0.185 0.185 l 0.20542,0.11494 0.20542,0.11493 -0.0206,0.0531 -0.0206,0.0531 0.13018,0.34252 0.13019,0.34252 -0.1409,0.45888 -0.1409,0.45888 -0.27105,0.0412 -0.27104,0.0412 -0.2851,-0.17676 -0.2851,-0.17676 -0.12455,0.0769 -0.12455,0.0769 -0.18853,-0.18866 -0.18851,-0.18866 -0.24192,0.17767 -0.24192,0.17767 0.62458,0.26834 0.62457,0.26833 h 0.17552 0.17551 l 0.0708,0.11448 0.0708,0.11448 0.48605,0.0907 0.48607,0.0907 0.13691,0.1131 0.13692,0.11311 1.32978,0.12501 1.32979,0.12501 0.0734,0.0733 0.0734,0.0733 h 0.23185 0.23184 l 1.32972,-0.13692 z m -40.138994,-1.06313 0.07913,-0.0792 0.06177,-0.55582 0.06177,-0.55582 -0.0069,-0.32329 -0.0069,-0.32329 0.0055,-1.87388 0.0055,-1.87389 -0.002,-0.4286 -0.002,-0.42861 -0.14873,-0.17905 -0.148732,-0.17904 0.0073,-3.56167 0.0073,-3.56167 0.120707,-0.22576 0.120706,-0.22575 0.08265,-0.96803 0.08265,-0.96803 0.04959,-0.38786 0.04959,-0.38785 -0.131788,-0.34573 -0.131788,-0.34573 0.12524,-0.81746 0.125239,-0.81752 -0.06287,-0.41442 -0.06287,-0.41441 -0.445277,-0.45851 -0.445277,-0.45852 -1.963987,0.0614 -1.963991,0.0614 -1.292344,0.13601 -1.292339,0.136 -0.936946,0.0476 -0.936946,0.0476 v -0.24452 -0.24453 h -0.452328 -0.45233 v 0.23399 0.234 l 0.299889,0.76761 0.299889,0.7676 0.02198,0.82247 0.02198,0.8225 -0.199651,0.92215 -0.199652,0.9222 -0.119836,0.77538 -0.119837,0.77544 -0.06077,0.51694 -0.06077,0.5169 -0.138337,2.19699 -0.138335,2.19698 -0.114205,1.16311 -0.114204,1.16311 0.0023,0.38786 0.0023,0.38784 -0.08055,1.16311 -0.08055,1.16311 -0.03068,0.75528 -0.03068,0.75529 0.103443,0.0641 0.103443,0.0641 -0.126156,0.15203 -0.126156,0.15203 0.05518,0.57304 0.05518,0.57308 0.09712,0.0971 0.09712,0.0971 0.969105,0.0366 0.969101,0.0366 4.232867,-0.009 4.232863,-0.009 0.07913,-0.0792 z m 2.029807,-2.24151 -0.07299,-0.53384 0.284686,-0.28481 0.284686,-0.28483 0.07226,0.0724 0.07226,0.0724 -0.133437,0.16485 -0.133436,0.16485 0.0261,0.32283 0.0261,0.32329 -0.109625,0.22621 -0.109625,0.22621 h 0.184037 0.184035 l 0.07949,-0.41991 0.07949,-0.41991 0.07377,-0.32328 0.07377,-0.32329 0.06635,-0.51694 0.06635,-0.51695 0.02106,-0.50599 0.02106,-0.506 0.161552,-0.054 0.161552,-0.054 v -0.1241 -0.12409 l -0.219524,0.0366 -0.219479,0.0366 -0.04396,-0.45241 -0.04396,-0.45242 0.0041,-0.45242 0.0041,-0.45242 -0.0073,-0.51695 -0.0073,-0.51694 -0.0032,-0.25827 -0.0032,-0.25826 0.0064,-0.84004 0.0064,-0.84 -0.0082,-0.32329 -0.0082,-0.32283 0.01374,-0.25873 0.01374,-0.25826 -0.04167,-0.51694 -0.04167,-0.51694 -0.105915,-0.38785 -0.105916,-0.38786 -0.113013,-0.14424 -0.113014,-0.14425 0.195209,-0.1621 0.195256,-0.1621 -0.0096,-1.24438 -0.0096,-1.24439 -0.06342,-0.22621 -0.06342,-0.22622 h -0.177534 -0.177535 l -0.09071,0.147 -0.09071,0.14699 -0.02976,0.27337 -0.02977,0.27338 -0.01648,0.36908 -0.01649,0.36908 -0.189714,-0.0728 -0.189715,-0.0728 -0.07693,0.12455 -0.07693,0.12455 0.202032,0.0774 0.202033,0.0774 v 0.30908 0.3091 h -0.193836 -0.193836 v 0.32466 0.32466 l -0.149647,0.23949 -0.149647,0.23949 0.09195,0.2395 0.09195,0.23949 0.120295,-0.19004 0.120294,-0.19049 0.002,-0.57391 0.002,-0.57395 0.189761,0.25093 0.189714,0.25094 0.0041,0.26514 0.0041,0.26513 -0.130184,0.13005 -0.130186,0.13005 -0.119379,1.2203 -0.119378,1.22029 -0.155601,0.43411 -0.155599,0.43365 0.160041,0.0989 0.160042,0.0989 -0.142641,0.26651 -0.14264,0.2665 -0.04304,1.24177 -0.04305,1.24174 0.08004,0.0494 0.08004,0.0495 -0.01923,0.84952 -0.01923,0.84952 0.07913,1e-4 0.07913,9e-5 0.01557,0.29077 0.01557,0.29078 0.09552,1.67079 0.09552,1.67081 0.237018,-0.31368 0.237017,-0.31367 -0.07299,-0.53379 z m 8.915788,-2.11808 0.799296,-0.003 0.90464,-0.136 0.904636,-0.13601 2.520066,-0.003 2.520061,-0.003 2.843148,0.0843 2.843148,0.0843 1.140544,0.0943 1.140549,0.0943 0.06251,-0.1012 0.0625,-0.1012 H 98.830539 98.7151 l -0.559084,-1.17648 -0.559083,-1.17643 -0.166269,-1.63439 -0.16627,-1.63439 -0.005,-1.22772 -0.005,-1.22772 0.07794,-0.29077 0.07794,-0.29078 0.275711,-0.005 0.275711,-0.005 -0.222363,-0.16897 -0.222364,-0.16897 -0.197637,-0.75877 -0.197636,-0.75877 v -0.22528 -0.2253 l -0.149968,-0.32924 -0.149967,-0.32924 h -0.210857 -0.210917 l -0.705295,-1.05811 -0.705291,-1.0581 -0.07858,-0.13738 -0.07858,-0.13737 -0.234773,-0.45243 -0.234773,-0.45242 -0.07437,-0.0646 -0.07437,-0.0646 -0.233216,-0.38786 -0.233216,-0.38785 -0.190722,-0.42541 -0.190722,-0.42539 -0.129269,0.0797 -0.12927,0.0801 0.0772,0.41167 0.0772,0.41167 -0.26376,0.58004 -0.263759,0.58004 -0.617165,0.98392 -0.61717,0.98393 -0.32306,0.42174 -0.323104,0.42174 -0.226165,0.24224 -0.226165,0.24224 v 0.1186 0.1186 l -0.103168,0.0412 -0.103168,0.0412 -0.866083,1.05215 -0.866089,1.05216 v 0.0618 0.0618 l -0.552507,0.56622 -0.552508,0.56626 -0.319808,0.43272 -0.319808,0.43273 -0.206062,0.21339 -0.206063,0.21339 -0.563053,0.84005 -0.563057,0.84 -0.232438,0.25047 -0.232438,0.25048 v 0.16485 0.16485 l -0.269392,0.14425 -0.269392,0.14424 -0.176389,0.4222 -0.176389,0.4222 -0.393029,0.31047 -0.393029,0.31047 -0.0012,0.22621 -0.0012,0.22621 h -0.193835 -0.193835 v 0.26238 0.26238 l -0.193837,0.0742 -0.193835,0.0742 v 0.12409 0.1241 l -0.322464,0.42266 -0.322465,0.42265 0.0773,0.0774 0.0773,0.0774 0.318206,-0.12089 0.318206,-0.12089 0.799301,-0.003 z m 19.602839,0.22529 v -0.0366 l -0.13554,-1.09511 -0.13555,-1.0951 -0.27401,-0.61109 -0.27401,-0.61114 -0.49515,-0.32787 -0.49514,-0.32786 v -0.12731 -0.1273 h -0.24453 -0.24462 l -0.10335,0.22621 -0.10335,0.22622 -0.011,0.12913 -0.011,0.12913 -0.1137,0.18179 -0.1137,0.1818 0.0224,0.59039 0.0224,0.59044 0.32279,0.48776 0.32279,0.48773 h 0.10669 0.10669 l 0.16866,0.51108 0.16865,0.51104 0.20743,0.0554 0.20739,0.0554 0.54924,0.0137 0.54925,0.0137 v -0.0366 z m -28.62023,-14.56776 0.08417,-0.45242 0.0963,-0.1731 0.0963,-0.17309 -0.130414,-0.56983 -0.130415,-0.56983 h -0.08893 -0.08893 l -0.02381,0.35534 -0.02381,0.35535 -0.04666,1.55082 -0.04666,1.55082 0.109259,-0.71082 0.109259,-0.71077 z m 0.777011,0.93698 0.09896,-0.22621 0.04968,-0.71082 0.04968,-0.71078 -0.01328,-0.71077 -0.01328,-0.71078 -0.121667,-0.12273 -0.121669,-0.12272 v 0.2198 0.2198 h -0.137467 -0.137465 l 0.06127,0.84005 0.06127,0.84001 h -0.11764 -0.117639 v 0.62464 0.62459 l 0.08614,0.0861 0.08613,0.0861 h 0.09387 0.09387 z m -12.138558,-4.1097 0.215953,-0.3297 0.170573,0.0655 0.170574,0.0655 0.07638,-0.12364 0.07638,-0.12364 -0.169154,-0.0137 -0.169154,-0.0137 -0.452329,0.0137 -0.45233,0.0137 -0.350991,0.009 -0.351039,0.009 0.15592,0.24956 0.155921,0.24957 h 0.09053 0.09053 l 0.08375,-0.13554 0.08375,-0.13555 0.199514,0.16531 0.199513,0.16577 -0.307948,0.0861 -0.307902,0.0861 0.2878,0.0137 0.2878,0.0137 z"
       id="path1573" /><rect
       style="fill:none;stroke-width:0.529167;stroke-linecap:square"
       id="rect6286"
       width="69.849991"
       height="33.86665"
       x="57.150005"
       y="129.11667"
       rx="0"
       ry="0" /></g></svg>
