<?xml version="1.0" encoding="UTF-8" standalone="no"?>
<svg
   version="1.1"
   id="Layer_1"
   x="0px"
   y="0px"
   viewBox="0 0 63.999998 64.000001"
   xml:space="preserve"
   sodipodi:docname="music.svg"
   width="64"
   height="64"
   inkscape:version="1.2.1 (9c6d41e410, 2022-07-14)"
   xmlns:inkscape="http://www.inkscape.org/namespaces/inkscape"
   xmlns:sodipodi="http://sodipodi.sourceforge.net/DTD/sodipodi-0.dtd"
   xmlns="http://www.w3.org/2000/svg"
   xmlns:svg="http://www.w3.org/2000/svg"><defs
     id="defs11" /><sodipodi:namedview
     id="namedview9"
     pagecolor="#ffffff"
     bordercolor="#000000"
     borderopacity="0.25"
     inkscape:showpageshadow="2"
     inkscape:pageopacity="0.0"
     inkscape:pagecheckerboard="true"
     inkscape:deskcolor="#d1d1d1"
     showgrid="true"
     inkscape:zoom="10.864401"
     inkscape:cx="12.149772"
     inkscape:cy="25.266003"
     inkscape:window-width="1920"
     inkscape:window-height="1137"
     inkscape:window-x="-8"
     inkscape:window-y="-1"
     inkscape:window-maximized="1"
     inkscape:current-layer="Layer_1"><inkscape:grid
       type="xygrid"
       id="grid420"
       originx="0"
       originy="0" /></sodipodi:namedview><style
     type="text/css"
     id="style2">.st0{fill-rule:evenodd;clip-rule:evenodd;}</style><g
     id="path642"><path
       style="color:#000000;fill:#000000;stroke-width:6;stroke-linecap:square;-inkscape-stroke:none"
       d="M 10,10 57,45"
       id="path3506" /></g><path
     class="st0"
     d="m 45.46915,40.103297 c 1.337842,-0.234367 2.602446,-0.195306 3.710803,0.06347 V 14.117909 L 21.617474,22.032662 V 52.28059 c 0.01465,0.16601 0.02441,0.336902 0.02441,0.502912 0,0 0,0.0049 0,0.0049 0,4.072118 -4.272306,8.11494 -9.545553,9.027993 -5.2683613,0.908153 -9.5455498,-1.65523 -9.5455498,-5.732231 0,-4.072119 4.2771885,-8.114941 9.5455528,-9.023111 1.98235,-0.341785 3.827986,-0.190423 5.356251,0.346667 V 10.172739 h 0.229484 L 53.349724,1.9992073 V 43.950814 c 0.06347,0.307606 0.09765,0.620095 0.09765,0.932583 0,0 0,0 0,0.0049 0,3.403197 -3.57409,6.781981 -7.973344,7.53879 -4.404138,0.761691 -7.973344,-1.381786 -7.973344,-4.784984 -0.0049,-3.403197 3.564324,-6.781981 7.968462,-7.538789 z"
     id="path4-8"
     style="clip-rule:evenodd;fill:#ffffff;fill-rule:evenodd;stroke-width:0.999998" /></svg>
