<?xml version="1.0" encoding="UTF-8" standalone="no"?>
<svg
   version="1.1"
   id="Layer_1"
   x="0px"
   y="0px"
   viewBox="0 0 63.999998 64.000001"
   xml:space="preserve"
   sodipodi:docname="music-off.svg"
   width="64"
   height="64"
   inkscape:version="1.2.1 (9c6d41e410, 2022-07-14)"
   xmlns:inkscape="http://www.inkscape.org/namespaces/inkscape"
   xmlns:sodipodi="http://sodipodi.sourceforge.net/DTD/sodipodi-0.dtd"
   xmlns="http://www.w3.org/2000/svg"
   xmlns:svg="http://www.w3.org/2000/svg"><defs
     id="defs11" /><sodipodi:namedview
     id="namedview9"
     pagecolor="#ffffff"
     bordercolor="#000000"
     borderopacity="0.25"
     inkscape:showpageshadow="2"
     inkscape:pageopacity="0.0"
     inkscape:pagecheckerboard="true"
     inkscape:deskcolor="#d1d1d1"
     showgrid="true"
     inkscape:zoom="10.864401"
     inkscape:cx="5.7527332"
     inkscape:cy="39.993001"
     inkscape:window-width="1920"
     inkscape:window-height="1137"
     inkscape:window-x="-8"
     inkscape:window-y="-1"
     inkscape:window-maximized="1"
     inkscape:current-layer="Layer_1"><inkscape:grid
       type="xygrid"
       id="grid420"
       originx="0"
       originy="0" /></sodipodi:namedview><style
     type="text/css"
     id="style2">.st0{fill-rule:evenodd;clip-rule:evenodd;}</style><path
     id="path4"
     style="fill:#ffffff;stroke-width:0.999998"
     class="st0"
     d="M 53.351562 2 L 18.388672 10.011719 C 22.349407 12.961261 26.74595 16.23614 30.9375 19.357422 L 49.181641 14.119141 L 49.181641 32.945312 C 50.627119 34.02174 51.903714 34.970609 53.351562 36.048828 L 53.351562 2 z M 9.3847656 5.8027344 L 5.8027344 10.615234 L 57.615234 49.197266 L 61.197266 44.384766 L 9.3847656 5.8027344 z M 17.453125 21.783203 L 17.453125 47.408203 C 15.924864 46.871115 14.080002 46.720715 12.097656 47.0625 C 6.829303 47.970668 2.5507812 52.011873 2.5507812 56.083984 C 2.5507812 60.160977 6.829306 62.724557 12.097656 61.816406 C 17.370893 60.903355 21.642578 56.861172 21.642578 52.789062 L 21.642578 52.785156 C 21.642578 52.619146 21.633791 52.44726 21.619141 52.28125 L 21.619141 24.886719 C 20.212621 23.839327 18.877625 22.844005 17.453125 21.783203 z M 43.021484 40.824219 C 39.816887 42.175635 37.498004 44.900123 37.501953 47.642578 C 37.501953 51.04577 41.070481 53.189425 45.474609 52.427734 C 48.538828 51.900594 51.198591 50.099742 52.533203 47.90625 C 49.487874 45.63832 46.091573 43.110442 43.021484 40.824219 z " /></svg>
