<?xml version="1.0" encoding="UTF-8" standalone="no"?>
<!-- Created with Inkscape (http://www.inkscape.org/) -->

<svg
   width="46"
   height="64"
   viewBox="0 0 46 64"
   version="1.1"
   id="svg8"
   inkscape:version="1.2.2 (732a01da63, 2022-12-09)"
   sodipodi:docname="reset.svg"
   xmlns:inkscape="http://www.inkscape.org/namespaces/inkscape"
   xmlns:sodipodi="http://sodipodi.sourceforge.net/DTD/sodipodi-0.dtd"
   xmlns="http://www.w3.org/2000/svg"
   xmlns:svg="http://www.w3.org/2000/svg"
   xmlns:rdf="http://www.w3.org/1999/02/22-rdf-syntax-ns#"
   xmlns:cc="http://creativecommons.org/ns#"
   xmlns:dc="http://purl.org/dc/elements/1.1/">
  <defs
     id="defs2">
    <clipPath
       clipPathUnits="userSpaceOnUse"
       id="clipPath942">
      <path
         inkscape:connector-curvature="0"
         id="path944"
         d="m 23.70493,29.953132 c 13.664981,6.855641 1.143893,22.437606 -17.834851,17.162808 -10.136601,-2.817284 -0.98336,1.733669 -0.98336,1.733669 0,0 4.73523,4.253357 13.356547,4.17353 8.621318,-0.07983 19.262593,-4.17353 19.262593,-4.17353 L 32.300781,29.9375 Z"
         style="fill:#ffc938;fill-opacity:1;stroke:none;stroke-width:1px;stroke-linecap:butt;stroke-linejoin:miter;stroke-opacity:1"
         sodipodi:nodetypes="cscsccc" />
    </clipPath>
    <clipPath
       clipPathUnits="userSpaceOnUse"
       id="clipPath942-5">
      <path
         inkscape:connector-curvature="0"
         id="path944-6"
         d="m 23.70493,29.953132 c 13.664981,6.855641 1.143893,22.437606 -17.834851,17.162808 -10.136601,-2.817284 -0.98336,1.733669 -0.98336,1.733669 0,0 4.73523,4.253357 13.356547,4.17353 8.621318,-0.07983 19.262593,-4.17353 19.262593,-4.17353 L 32.300781,29.9375 Z"
         style="fill:#ffc938;fill-opacity:1;stroke:none;stroke-width:1px;stroke-linecap:butt;stroke-linejoin:miter;stroke-opacity:1"
         sodipodi:nodetypes="cscsccc" />
    </clipPath>
  </defs>
  <sodipodi:namedview
     id="base"
     pagecolor="#ffffff"
     bordercolor="#666666"
     borderopacity="1.0"
     inkscape:pageopacity="0.0"
     inkscape:pageshadow="2"
     inkscape:zoom="11.2"
     inkscape:cx="19.017857"
     inkscape:cy="36.116071"
     inkscape:document-units="px"
     inkscape:current-layer="layer1"
     showgrid="true"
     units="px"
     inkscape:window-width="1920"
     inkscape:window-height="1137"
     inkscape:window-x="-8"
     inkscape:window-y="-8"
     inkscape:window-maximized="1"
     inkscape:showpageshadow="2"
     inkscape:pagecheckerboard="true"
     inkscape:deskcolor="#d1d1d1">
    <inkscape:grid
       type="xygrid"
       id="grid1350"
       empspacing="8"
       originx="256"
       originy="-160" />
  </sodipodi:namedview>
  <metadata
     id="metadata5">
    <rdf:RDF>
      <cc:Work
         rdf:about="">
        <dc:format>image/svg+xml</dc:format>
        <dc:type
           rdf:resource="http://purl.org/dc/dcmitype/StillImage" />
      </cc:Work>
    </rdf:RDF>
  </metadata>
  <g
     inkscape:groupmode="layer"
     id="layer1"
     inkscape:label="Layer 1"
     transform="translate(256,-160)">
    <g
       id="g299"
       transform="matrix(0.53951698,0,0,0.53951698,-101.99013,88.412737)">
      <path
         id="rect243"
         style="fill:#ffffff;fill-opacity:1;fill-rule:evenodd;stroke:none;stroke-width:126.22;stroke-linecap:butt;stroke-linejoin:miter;stroke-miterlimit:4;stroke-dasharray:none;stroke-dashoffset:0;stroke-opacity:1"
         d="m -208.75652,162.34473 c -0.88242,-0.0238 -1.74745,0.4248 -2.22152,1.24591 -2.37716,4.11749 -4.75436,8.23496 -7.1316,12.35241 -9e-5,1.6e-4 -2.2e-4,3.1e-4 -3.1e-4,4.7e-4 l -1.24434,2.15536 c 1.49551,0.8634 2.99099,1.72683 4.48647,2.59026 l 2.15584,1.2448 1.24466,-2.15598 c 2.37729,-4.11742 4.75442,-8.23493 7.1316,-12.35241 0.68955,-1.19434 0.28331,-2.71093 -0.91103,-3.40048 l -2.33079,-1.34561 c -0.37323,-0.21549 -0.77786,-0.32389 -1.17896,-0.33472 z"
         sodipodi:nodetypes="sccccccccccs" />
      <rect
         style="fill:#ffffff;fill-opacity:1;fill-rule:evenodd;stroke:none;stroke-width:126.22;stroke-linecap:butt;stroke-linejoin:miter;stroke-miterlimit:4;stroke-dasharray:none;stroke-dashoffset:0;stroke-opacity:1"
         id="rect245"
         width="28.123003"
         height="8.3427086"
         x="-111.14352"
         y="265.98917"
         rx="2.489356"
         ry="2.489356"
         transform="rotate(30.000001)" />
      <path
         inkscape:connector-curvature="0"
         style="fill:#ffffff;fill-opacity:1;fill-rule:evenodd;stroke:none;stroke-width:126.22;stroke-linecap:butt;stroke-linejoin:miter;stroke-miterlimit:4;stroke-dasharray:none;stroke-dashoffset:0;stroke-opacity:1"
         d="m -234.31344,183.5558 c -5.4148,8.97024 -11.60986,12.82078 -17.68656,17.44514 2.52318,3.00684 5.24223,5.60362 8.11588,7.87321 l 9.40233,-9.14669 -6.30083,11.42289 c 7.43251,5.08806 15.77846,8.25238 24.55853,10.50581 -0.72486,-8.65737 2.27178,-16.46172 6.26679,-24.03833 z"
         id="path247" />
    </g>
  </g>
</svg>
