<?xml version="1.0" encoding="UTF-8" standalone="no"?>
<!-- Svg Vector Icons : http://www.onlinewebfonts.com/icon -->

<svg
   version="1.1"
   x="0px"
   y="0px"
   viewBox="0 0 64 63.999996"
   enable-background="new 0 0 1000 1000"
   xml:space="preserve"
   id="svg8"
   sodipodi:docname="retry_pressed.svg"
   inkscape:version="1.2.2 (732a01da63, 2022-12-09)"
   width="64"
   height="63.999996"
   xmlns:inkscape="http://www.inkscape.org/namespaces/inkscape"
   xmlns:sodipodi="http://sodipodi.sourceforge.net/DTD/sodipodi-0.dtd"
   xmlns="http://www.w3.org/2000/svg"
   xmlns:svg="http://www.w3.org/2000/svg"><defs
   id="defs12" /><sodipodi:namedview
   id="namedview10"
   pagecolor="#ffffff"
   bordercolor="#000000"
   borderopacity="0.25"
   inkscape:showpageshadow="2"
   inkscape:pageopacity="0.0"
   inkscape:pagecheckerboard="true"
   inkscape:deskcolor="#d1d1d1"
   showgrid="true"
   inkscape:zoom="10.680141"
   inkscape:cx="1.685371"
   inkscape:cy="27.293647"
   inkscape:window-width="1920"
   inkscape:window-height="1129"
   inkscape:window-x="-8"
   inkscape:window-y="-8"
   inkscape:window-maximized="1"
   inkscape:current-layer="svg8"><inkscape:grid
     type="xygrid"
     id="grid462" /></sodipodi:namedview>
<metadata
   id="metadata2"> Svg Vector Icons : http://www.onlinewebfonts.com/icon </metadata>
<path
   d="m 32,1.9999981 c -16.567347,0 -30,13.4326529 -30,29.9999999 0,16.567347 13.432653,30 30,30 16.567347,0 30,-13.432653 30,-30 C 62,15.432651 48.567347,1.9999981 32,1.9999981 Z M 45.108163,44.642855 C 41.606122,48.144896 36.953061,50.073467 32,50.073467 c -4.953061,0 -9.606122,-1.928571 -13.108163,-5.430612 -3.502041,-3.502041 -5.430612,-8.155103 -5.430612,-13.108164 0,-4.953061 1.928571,-9.606122 5.430612,-13.108162 C 22.393878,14.924488 27.046939,12.995916 32,12.995916 V 8.5326511 L 41.281633,16.044896 32,23.551018 v -5.412245 c -7.383674,0 -13.389796,6.006123 -13.389796,13.395918 0,7.383674 6.006122,13.395919 13.395918,13.395919 7.383674,0 13.395918,-6.006122 13.395918,-13.395919 h 5.14898 c -0.01224,4.953061 -1.940816,9.606123 -5.442857,13.108164 z"
   id="path4"
   style="fill:#1376ff;fill-opacity:1;stroke-width:0.967741" />
</svg>
