<?xml version="1.0" encoding="UTF-8" standalone="no"?>
<svg
   version="1.1"
   id="Layer_1"
   x="0px"
   y="0px"
   viewBox="0 0 63.999998 64.000001"
   xml:space="preserve"
   sodipodi:docname="settings_pressed.svg"
   width="64"
   height="64"
   inkscape:version="1.2.1 (9c6d41e410, 2022-07-14)"
   xmlns:inkscape="http://www.inkscape.org/namespaces/inkscape"
   xmlns:sodipodi="http://sodipodi.sourceforge.net/DTD/sodipodi-0.dtd"
   xmlns="http://www.w3.org/2000/svg"
   xmlns:svg="http://www.w3.org/2000/svg"><defs
     id="defs11" /><sodipodi:namedview
     id="namedview9"
     pagecolor="#ffffff"
     bordercolor="#000000"
     borderopacity="0.25"
     inkscape:showpageshadow="2"
     inkscape:pageopacity="0.0"
     inkscape:pagecheckerboard="true"
     inkscape:deskcolor="#d1d1d1"
     showgrid="true"
     inkscape:zoom="5.4322006"
     inkscape:cx="63.878347"
     inkscape:cy="26.048375"
     inkscape:window-width="1920"
     inkscape:window-height="1137"
     inkscape:window-x="-8"
     inkscape:window-y="-1"
     inkscape:window-maximized="1"
     inkscape:current-layer="Layer_1"><inkscape:grid
       type="xygrid"
       id="grid294" /></sodipodi:namedview><style
     type="text/css"
     id="style2">.st0{fill-rule:evenodd;clip-rule:evenodd;}</style><g
     id="g6"
     transform="matrix(0.50724045,0,0,0.50455729,1.0000004,1)"
     style="stroke-width:1.97668;fill:#1376ff;fill-opacity:1"><path
       class="st0"
       d="m 122.23,12.35 v 10.54 c 0,1.29 -1.21,2.35 -2.69,2.35 H 77.85 c -2.84,5.92 -8.89,10.01 -15.9,10.01 -7,0 -13.05,-4.09 -15.89,-10.01 H 2.69 C 1.22,25.24 0,24.18 0,22.89 V 12.35 C 0,11.06 1.21,10 2.69,10 H 46.06 C 48.9,4.08 54.95,0 61.95,0 68.95,0 75,4.09 77.84,10 h 41.69 c 1.49,0 2.7,1.06 2.7,2.35 z M 49.57,112.88 c -2.84,5.92 -8.89,10 -15.9,10 -7,0 -13.05,-4.08 -15.89,-10 H 2.69 C 1.21,112.88 0,111.82 0,110.53 V 99.99 C 0,98.7 1.21,97.64 2.69,97.64 h 15.09 c 2.84,-5.92 8.89,-10.01 15.89,-10.01 7,0 13.05,4.09 15.89,10.01 h 69.97 c 1.48,0 2.69,1.06 2.69,2.35 v 10.54 c 0,1.29 -1.22,2.35 -2.69,2.35 z m 54.55,-43.15 c -2.84,5.92 -8.89,10.01 -15.89,10.01 -7,0 -13.05,-4.09 -15.9,-10.01 H 2.69 C 1.22,69.73 0,68.67 0,67.38 V 56.85 C 0,55.56 1.21,54.5 2.69,54.5 h 69.64 c 2.84,-5.92 8.89,-10 15.89,-10 7,0 13.05,4.09 15.89,10 h 15.42 c 1.48,0 2.69,1.06 2.69,2.35 v 10.53 c 0,1.29 -1.21,2.35 -2.69,2.35 z"
       id="path4"
       style="stroke-width:1.97668;fill:#1376ff;fill-opacity:1" /></g></svg>
