<?xml version="1.0" encoding="UTF-8" standalone="no"?>
<!-- Created with Inkscape (http://www.inkscape.org/) -->

<svg
   width="16.933334mm"
   height="16.933334mm"
   viewBox="0 0 16.933334 16.933334"
   version="1.1"
   id="svg5"
   inkscape:version="1.2.1 (9c6d41e410, 2022-07-14)"
   sodipodi:docname="square_disabled.svg"
   xmlns:inkscape="http://www.inkscape.org/namespaces/inkscape"
   xmlns:sodipodi="http://sodipodi.sourceforge.net/DTD/sodipodi-0.dtd"
   xmlns="http://www.w3.org/2000/svg"
   xmlns:svg="http://www.w3.org/2000/svg">
  <sodipodi:namedview
     id="namedview7"
     pagecolor="#ffffff"
     bordercolor="#000000"
     borderopacity="0.25"
     inkscape:showpageshadow="2"
     inkscape:pageopacity="0.0"
     inkscape:pagecheckerboard="true"
     inkscape:deskcolor="#d1d1d1"
     inkscape:document-units="mm"
     showgrid="true"
     inkscape:zoom="4.7572175"
     inkscape:cx="-27.747312"
     inkscape:cy="45.93021"
     inkscape:window-width="1920"
     inkscape:window-height="1137"
     inkscape:window-x="-8"
     inkscape:window-y="-1"
     inkscape:window-maximized="1"
     inkscape:current-layer="layer1">
    <inkscape:grid
       type="xygrid"
       id="grid236"
       originx="-7.9374994"
       originy="-26.45833" />
  </sodipodi:namedview>
  <defs
     id="defs2" />
  <g
     inkscape:label="Layer 1"
     inkscape:groupmode="layer"
     id="layer1"
     transform="translate(-7.9375001,-26.458332)">
    <path
       style="fill:#ffffff;stroke-width:1;opacity:0.3"
       d="m 12.098634,42.633894 c -0.01942,-0.05064 -0.151374,-0.137572 -0.293221,-0.193229 -0.141849,-0.05567 -0.257906,-0.129125 -0.257906,-0.163265 0,-0.03418 -0.08111,-0.04176 -0.180253,-0.01683 -0.171413,0.04298 -0.18275,0.02387 -0.231151,-0.390088 -0.02799,-0.239436 -0.08029,-0.569568 -0.11622,-0.733635 -0.03593,-0.164067 -0.06615,-0.450987 -0.06714,-0.637611 -9.69e-4,-0.186624 -0.04232,-0.379809 -0.09182,-0.42931 -0.124827,-0.124818 -0.178354,-4.83018 -0.06379,-5.607486 0.0978,-0.663567 0.219806,-2.036962 0.255054,-2.871105 0.01386,-0.328134 0.06583,-0.797952 0.11548,-1.044047 0.04965,-0.246096 0.120877,-0.648797 0.158286,-0.894893 0.166551,-1.095652 0.510841,-2.125368 0.710624,-2.125368 0.107317,0 0.714502,0.785083 0.653987,0.845594 -0.08612,0.08614 0.183333,0.263235 0.338677,0.222613 0.09209,-0.02404 0.158904,-0.0062 0.158904,0.04175 0,0.0458 -0.05593,0.08324 -0.12429,0.08324 -0.06836,0 -0.101918,0.02238 -0.07458,0.04968 0.04167,0.04167 0.344372,0.05629 0.64631,0.03109 0.04102,-0.0035 0.07458,-0.04343 0.07458,-0.08887 0,-0.05135 -0.07203,-0.06456 -0.190346,-0.03488 -0.175057,0.04395 -0.183583,0.03515 -0.106142,-0.109554 0.04729,-0.08834 0.1297,-0.13988 0.187957,-0.117525 0.05707,0.02193 0.123589,0.008 0.147831,-0.03153 0.05084,-0.08226 -0.0052,-0.09026 -0.55207,-0.079 -0.346514,0.0071 -0.388444,-0.0071 -0.309046,-0.102419 0.05053,-0.06086 0.163817,-0.108726 0.25176,-0.10633 0.270621,0.0071 2.011943,-0.14897 2.229334,-0.200153 0.119188,-0.0281 0.20508,-0.01708 0.20508,0.02624 0,0.08297 -0.24631,0.163961 -0.503377,0.16552 -0.333547,0.0018 -0.15887,0.15037 0.186435,0.158332 0.194827,0.0044 0.790489,0.02343 1.323696,0.04201 1.397838,0.04879 1.446965,0.04624 1.647865,-0.08535 0.12933,-0.08474 0.219995,-0.09856 0.311299,-0.04748 0.09057,0.05064 0.163415,0.04078 0.245309,-0.03329 0.08813,-0.0798 0.176683,-0.08815 0.3638,-0.03453 0.26864,0.07707 0.526561,-0.008 0.526561,-0.173879 0,-0.127152 0.842793,-0.07725 1.167172,0.06915 0.129248,0.05831 0.29704,0.107246 0.372873,0.108717 0.163649,0.0035 0.480682,0.258417 0.645079,0.519336 0.11471,0.182062 0.117465,0.418248 0.01218,1.044047 -0.06946,0.412901 -0.173141,1.374487 -0.257283,2.386376 -0.04263,0.512695 -0.09269,1.032852 -0.111236,1.155899 -0.03543,0.235023 -0.0923,1.383577 -0.145484,2.938082 -0.02653,0.775755 -0.01151,0.955341 0.09336,1.115735 0.06999,0.107052 0.08398,0.165881 0.03177,0.133705 -0.05127,-0.03162 -0.09322,-0.02941 -0.09322,0.0053 0,0.09058 0.235501,0.421075 0.349727,0.49079 0.126807,0.07742 0.121191,0.350567 -0.01078,0.524728 -0.06267,0.08271 -0.08845,0.231254 -0.06511,0.375115 0.03249,0.200205 0.0078,0.254718 -0.154878,0.341767 -0.199969,0.107026 -0.266555,0.397312 -0.112915,0.49227 0.04434,0.02739 0.06029,0.13079 0.03545,0.229756 -0.03025,0.120547 -0.0096,0.193618 0.06278,0.221363 0.184577,0.07082 0.342164,0.500347 0.293528,0.800048 -0.0313,0.192833 -0.01692,0.273867 0.04858,0.273867 0.05901,0 0.07999,0.06818 0.05738,0.186438 -0.0196,0.102543 -0.0125,0.186439 0.01579,0.186439 0.142451,0 0.23116,0.774293 0.09772,0.852993 -0.530893,0.31315 -1.046264,0.404489 -1.309716,0.232143 -0.104025,-0.06809 -0.441236,-0.121515 -0.910912,-0.144407 -0.410158,-0.02 -0.745743,-0.04043 -0.745743,-0.04536 0,-0.0053 -0.192984,-0.0155 -0.428853,-0.02343 -0.235869,-0.008 -0.428831,0.01277 -0.428803,0.04589 2.9e-5,0.0332 -0.03046,0.04149 -0.06775,0.01841 -0.09267,-0.05725 -2.218086,-0.06694 -2.542297,-0.01162 -0.143556,0.02449 -0.428803,0.06192 -0.633881,0.08315 -0.205079,0.02123 -0.572653,0.06958 -0.81683,0.107545 -0.662871,0.10301 -1.981827,0.08438 -2.025176,-0.02854 z m 6.734632,-1.412388 c 0.100157,-0.100155 0.122949,-0.551838 0.104865,-2.078254 -0.0062,-0.522252 0.0083,-1.027179 0.03206,-1.122068 0.02381,-0.09489 -0.0096,-0.328335 -0.07425,-0.518764 -0.08695,-0.256102 -0.116638,-0.633753 -0.114051,-1.450748 0.0019,-0.607478 0.0037,-1.503189 0.004,-1.990465 2.99e-4,-0.487275 0.02979,-0.940711 0.06561,-1.007634 0.12594,-0.235314 0.19465,-1.225359 0.149356,-2.152066 -0.0056,-0.112795 -0.0011,-0.439985 0.0097,-0.727099 0.01753,-0.4636 -0.176106,-1.12723 -0.315243,-1.080433 -0.01426,0.0044 -0.08654,-0.01453 -0.1606,-0.04289 -0.220675,-0.08464 -2.655406,0.02484 -3.631345,0.163353 -0.820551,0.116451 -1.276712,0.09894 -1.230316,-0.04721 0.04782,-0.150687 -0.103992,-0.213276 -0.391676,-0.161468 -0.232004,0.04176 -0.217052,0.179604 0.114666,1.056872 0.112168,0.296644 0.07108,1.070673 -0.100345,1.890538 -0.121084,0.579081 -0.222899,1.45324 -0.29532,2.535521 -0.06079,0.908466 -0.145778,1.953772 -0.188862,2.322915 -0.04308,0.369143 -0.07438,0.755065 -0.06955,0.857607 0.0072,0.150856 -0.01805,0.535068 -0.06988,1.067705 -0.0033,0.03356 -0.07304,0.03964 -0.155081,0.01366 -0.08556,-0.02713 -0.149149,-0.01339 -0.149149,0.03224 0,0.04378 0.08749,0.07962 0.194415,0.07962 0.155643,0 0.183838,0.02598 0.141381,0.130499 -0.139718,0.343829 -0.161754,0.540141 -0.10641,0.947978 0.03297,0.242959 0.03804,0.477208 0.01125,0.520552 -0.05048,0.08165 -0.03525,0.432772 0.02826,0.652047 0.02003,0.06915 0.09357,0.137739 0.163416,0.15244 0.247692,0.05214 5.978792,0.01004 6.033134,-0.04431 z m 1.961459,-0.308393 c 0,-0.02052 -0.01678,-0.03726 -0.03728,-0.03726 -0.0205,0 -0.03728,0.01682 -0.03728,0.03726 0,0.02052 0.01678,0.03726 0.03728,0.03726 0.0205,0 0.03728,-0.01674 0.03728,-0.03726 z m -0.969466,-0.149146 c 0,-0.02052 -0.01677,-0.03726 -0.03728,-0.03726 -0.0205,0 -0.03728,0.01673 -0.03728,0.03726 0,0.02052 0.01678,0.03726 0.03728,0.03726 0.0205,0 0.03728,-0.01674 0.03728,-0.03726 z m 0.969466,-0.111862 c 0,-0.04105 -0.03554,-0.07461 -0.07897,-0.07461 -0.04343,0 -0.05824,0.03356 -0.03289,0.07461 0.02535,0.04105 0.06089,0.07461 0.07897,0.07461 0.01808,0 0.03289,-0.03356 0.03289,-0.07461 z m -0.786308,-0.745746 c -0.03517,-0.297376 -0.01813,-0.35084 0.149589,-0.469572 0.104101,-0.07372 0.189273,-0.101662 0.189273,-0.06219 0,0.03955 -0.03222,0.08306 -0.07158,0.09671 -0.03936,0.01366 -0.08343,0.184264 -0.09791,0.379088 -0.0251,0.337531 -0.01732,0.354169 0.164791,0.353085 0.129379,-7.74e-4 0.159779,-0.02105 0.09409,-0.06272 -0.09786,-0.0621 0.08303,-1.036498 0.209659,-1.129352 0.02797,-0.02052 0.07381,-0.13796 0.101883,-0.261008 0.0372,-0.163035 0.0305,-0.193379 -0.02466,-0.111861 -0.05694,0.08412 -0.07597,0.03329 -0.07684,-0.205086 -6.28e-4,-0.174319 0.03242,-0.316938 0.07343,-0.316938 0.138251,0 0.07594,-0.131397 -0.08188,-0.172671 -0.153573,-0.04017 -0.153915,-0.04431 -0.01865,-0.224736 0.125704,-0.167669 0.309453,-0.207093 0.209201,-0.04492 -0.02359,0.03823 0.0094,0.06941 0.07336,0.06941 0.12395,0 0.143145,-0.06694 0.07224,-0.251697 -0.03229,-0.08412 -0.105303,-0.102498 -0.273527,-0.06888 -0.200309,0.04008 -0.22284,0.02854 -0.177165,-0.09047 0.02879,-0.07505 0.02186,-0.155831 -0.01538,-0.179621 -0.102216,-0.06527 0.04025,-0.378832 0.172119,-0.378832 0.06285,0 0.114264,0.04025 0.114264,0.08949 0,0.06667 0.02155,0.06791 0.08448,0.0053 0.1327,-0.132701 0.01743,-0.33695 -0.158626,-0.281071 -0.112324,0.03567 -0.164765,0.0044 -0.211064,-0.125365 -0.07187,-0.201571 -0.02533,-0.881257 0.06032,-0.881257 0.0842,0 0.04184,-0.381219 -0.06439,-0.579751 -0.04977,-0.09299 -0.06639,-0.208054 -0.03695,-0.255687 0.08075,-0.130649 0.08818,-0.5069 0.01003,-0.5069 -0.03768,0 -0.04609,-0.102049 -0.0187,-0.226779 0.02739,-0.124722 0.018,-0.26735 -0.02086,-0.316939 -0.12587,-0.160569 -0.168381,-0.558118 -0.06396,-0.598186 0.09035,-0.03471 0.101715,-0.692281 0.01587,-0.918479 -0.01756,-0.04633 -0.0025,-0.214087 0.03351,-0.372878 0.04047,-0.178485 0.03826,-0.298186 -0.0058,-0.313556 -0.09939,-0.03471 -0.08955,-0.514351 0.01182,-0.577003 0.04924,-0.03039 0.06763,-0.166708 0.04512,-0.334448 -0.02095,-0.156201 0.0032,-0.362308 0.05373,-0.45983 0.0528,-0.101768 0.06751,-0.238573 0.03469,-0.322487 -0.03136,-0.08015 -0.05937,-0.249204 -0.06225,-0.37567 -0.0071,-0.30961 -0.07235,-0.355129 -0.230037,-0.160375 -0.08748,0.10802 -0.113007,0.213399 -0.07602,0.313766 0.06289,0.170646 0.02418,0.337559 -0.07827,0.337559 -0.0376,0 -0.06836,-0.09828 -0.06836,-0.218403 0,-0.120115 -0.05273,-0.271128 -0.117189,-0.335585 -0.161196,-0.161196 -0.18879,-0.147093 -0.111257,0.05682 0.03871,0.101793 0.03842,0.217865 -6.71e-4,0.279653 -0.0771,0.121797 -0.095,2.132574 -0.01831,2.055883 0.02796,-0.02792 0.04636,-0.192957 0.04088,-0.36666 -0.0055,-0.173702 0.0212,-0.466833 0.05929,-0.651403 0.03809,-0.184572 0.08745,-0.427875 0.109693,-0.540661 0.02225,-0.112796 0.06977,-0.205086 0.105618,-0.205086 0.09909,0 0.175469,0.254428 0.0854,0.284445 -0.108692,0.0362 -0.09941,0.654109 0.01252,0.833333 0.07695,0.123224 0.06814,0.163345 -0.05593,0.254463 -0.08101,0.05946 -0.150707,0.169396 -0.154889,0.244219 -0.0042,0.07478 -0.01257,0.228321 -0.01865,0.341117 -0.0082,0.151682 -0.04991,0.205085 -0.160223,0.205085 -0.176922,0 -0.19271,0.09473 -0.03728,0.223723 0.06152,0.05108 0.111862,0.135476 0.111862,0.187584 0,0.05214 -0.05034,0.114071 -0.111862,0.137678 -0.06152,0.0236 -0.111862,0.125892 -0.111862,0.227298 0,0.101407 -0.03356,0.205121 -0.07458,0.230471 -0.04102,0.02537 -0.07458,0.147578 -0.07458,0.27162 0,0.368412 0.181919,0.208045 0.223723,-0.19722 0.03728,-0.36147 0.03728,-0.36147 0.143107,-0.162005 0.08046,0.151656 0.08632,0.239674 0.02444,0.367258 -0.11873,0.244818 -0.180935,0.561086 -0.201677,1.025391 -0.01008,0.225591 -0.07162,0.53527 -0.136763,0.688186 -0.07611,0.178662 -0.0915,0.294671 -0.04309,0.324592 0.04627,0.02863 0.05366,0.165935 0.01916,0.355861 -0.06982,0.384319 -0.08417,2.502121 -0.01713,2.527753 0.07054,0.02695 0.120087,0.418054 0.180102,1.42161 0.05267,0.880835 0.05267,0.880835 0.190965,0.671169 0.103501,-0.156914 0.128305,-0.294072 0.0986,-0.545242 z m 0.562585,-1.081331 c 0,-0.02052 0.01678,-0.03726 0.03728,-0.03726 0.0205,0 0.03728,0.01674 0.03728,0.03726 0,0.02052 -0.01677,0.03726 -0.03728,0.03726 -0.0205,0 -0.03728,-0.01674 -0.03728,-0.03726 z m -0.820318,-1.118615 c 0,-0.02052 0.01678,-0.03726 0.03729,-0.03726 0.0205,0 0.03728,0.01683 0.03728,0.03726 0,0.02052 -0.01677,0.03726 -0.03728,0.03726 -0.0205,0 -0.03729,-0.01674 -0.03729,-0.03726 z m 0,-2.199938 c 0,-0.0547 0.02237,-0.07707 0.04971,-0.04977 0.02734,0.0273 0.02734,0.07214 0,0.09944 -0.02734,0.0273 -0.04971,0.0053 -0.04971,-0.04968 z m 0.223724,-1.7525 c 0,-0.02052 0.01677,-0.03726 0.03729,-0.03726 0.0205,0 0.03728,0.01674 0.03728,0.03726 0,0.02052 -0.01678,0.03726 -0.03728,0.03726 -0.0205,0 -0.03729,-0.01674 -0.03729,-0.03726 z m 0.342177,6.618847 c -0.08021,-0.08015 -0.122783,0.03214 -0.06648,0.175384 0.05281,0.134392 0.05681,0.134621 0.08292,0.0053 0.01509,-0.07496 0.0077,-0.156087 -0.01644,-0.180221 z m 0.776438,-2.479971 c 0,-0.04105 -0.01479,-0.07461 -0.03289,-0.07461 -0.01809,0 -0.05363,0.03356 -0.07897,0.07461 -0.02535,0.04105 -0.01056,0.07461 0.03289,0.07461 0.04343,0 0.07897,-0.03356 0.07897,-0.07461 z m 0.04971,-1.093758 c -0.02734,-0.0273 -0.0721,-0.0273 -0.09944,0 -0.02734,0.0273 -0.0049,0.04977 0.04971,0.04977 0.05469,0 0.07706,-0.02237 0.04971,-0.04977 z m -1.914075,-0.584164 c 0,-0.02052 -0.01678,-0.03726 -0.03729,-0.03726 -0.0205,0 -0.03728,0.01674 -0.03728,0.03726 0,0.02052 0.01677,0.03726 0.03728,0.03726 0.0205,0 0.03729,-0.01674 0.03729,-0.03726 z m 1.566061,-0.03726 c 0,-0.04105 -0.03356,-0.07461 -0.07458,-0.07461 -0.04102,0 -0.07458,0.03356 -0.07458,0.07461 0,0.04105 0.03356,0.07461 0.07458,0.07461 0.04102,0 0.07458,-0.03356 0.07458,-0.07461 z m -8.725196,-2.423667 c 0,-0.02052 -0.01678,-0.03726 -0.03728,-0.03726 -0.0205,0 -0.03728,0.01674 -0.03728,0.03726 0,0.02052 0.01678,0.03726 0.03728,0.03726 0.02051,0 0.03728,-0.01673 0.03728,-0.03726 z m 8.501474,-0.331181 c 0,-0.03857 -0.03356,-0.09091 -0.07458,-0.116265 -0.04102,-0.02537 -0.07458,0.0062 -0.07458,0.0702 0,0.06394 0.03356,0.116265 0.07458,0.116265 0.04102,0 0.07458,-0.03162 0.07458,-0.0702 z M 19.22866,30.845603 c 0,-0.02052 -0.01678,-0.03726 -0.03729,-0.03726 -0.0205,0 -0.03728,0.01674 -0.03728,0.03726 0,0.02052 0.01678,0.03726 0.03728,0.03726 0.0205,0 0.03729,-0.01674 0.03729,-0.03726 z m 0.223723,-0.708453 c 0,-0.04105 -0.03356,-0.07461 -0.07458,-0.07461 -0.04102,0 -0.07458,0.03356 -0.07458,0.07461 0,0.04105 0.03356,0.07461 0.07458,0.07461 0.04102,0 0.07458,-0.03356 0.07458,-0.07461 z m -6.562537,-1.379658 c 0,-0.02052 -0.01678,-0.03726 -0.03728,-0.03726 -0.0205,0 -0.03728,0.01683 -0.03728,0.03726 0,0.02052 0.01677,0.03726 0.03728,0.03726 0.0205,0 0.03728,-0.01683 0.03728,-0.03726 z m -1.044042,-1.48708 c 0,-0.178317 0.136262,-0.205111 0.222605,-0.04378 0.06898,0.128906 0.05853,0.151234 -0.07083,0.151234 -0.08347,0 -0.151773,-0.04835 -0.151773,-0.107458 z"
       id="path8499" />
    <g
       id="g5655">
      <path
         style="opacity:1;fill:#d40000;stroke:#ffffff;stroke-width:0.529167;stroke-linecap:square;stroke-dasharray:none"
         d="m 8.4666674,42.862502 15.8749996,-15.875"
         id="path1001" />
      <path
         style="opacity:1;fill:#d40000;stroke:#ffffff;stroke-width:0.529167;stroke-linecap:square;stroke-dasharray:none"
         d="m 8.4666674,26.987502 15.8749996,15.875"
         id="path4037" />
    </g>
  </g>
</svg>
