<?xml version="1.0" encoding="UTF-8" standalone="no"?>
<!-- Created with Inkscape (http://www.inkscape.org/) -->

<svg
   width="16.933334mm"
   height="16.933334mm"
   viewBox="0 0 16.933334 16.933334"
   version="1.1"
   id="svg5"
   inkscape:version="1.2.1 (9c6d41e410, 2022-07-14)"
   sodipodi:docname="triangle.svg"
   xmlns:inkscape="http://www.inkscape.org/namespaces/inkscape"
   xmlns:sodipodi="http://sodipodi.sourceforge.net/DTD/sodipodi-0.dtd"
   xmlns="http://www.w3.org/2000/svg"
   xmlns:svg="http://www.w3.org/2000/svg">
  <sodipodi:namedview
     id="namedview7"
     pagecolor="#ffffff"
     bordercolor="#000000"
     borderopacity="0.25"
     inkscape:showpageshadow="2"
     inkscape:pageopacity="0.0"
     inkscape:pagecheckerboard="true"
     inkscape:deskcolor="#d1d1d1"
     inkscape:document-units="mm"
     showgrid="true"
     inkscape:zoom="9.5144352"
     inkscape:cx="13.032828"
     inkscape:cy="29.376415"
     inkscape:window-width="1920"
     inkscape:window-height="1137"
     inkscape:window-x="3832"
     inkscape:window-y="113"
     inkscape:window-maximized="1"
     inkscape:current-layer="layer1">
    <inkscape:grid
       type="xygrid"
       id="grid236"
       originx="-7.9374994"
       originy="-26.45833" />
  </sodipodi:namedview>
  <defs
     id="defs2" />
  <g
     inkscape:label="Layer 1"
     inkscape:groupmode="layer"
     id="layer1"
     transform="translate(-7.9375001,-26.458332)">
    <path
       style="fill:#ffffff;stroke-width:1;opacity:0.3"
       d="m 10.977524,41.141198 c -0.158455,-0.02843 -0.473186,-0.09492 -0.699403,-0.147777 -0.297297,-0.06949 -0.4459545,-0.07757 -0.5363224,-0.02919 -0.1280409,0.06851 -0.2667257,-0.03811 -0.1967682,-0.151324 0.03185,-0.0515 -0.2631042,-0.08258 -0.5444624,-0.05732 -0.11442,0.01029 -0.1428012,-0.01111 -0.1140473,-0.08608 0.029566,-0.07704 -0.00673,-0.09975 -0.1592447,-0.09975 -0.1659718,0 -0.1921782,-0.02042 -0.1640564,-0.12798 0.018405,-0.0704 0.00733,-0.144118 -0.024546,-0.163831 -0.1767894,-0.109266 0.00227,-0.732545 0.2104698,-0.732545 0.062232,0 0.094311,-0.06571 0.094311,-0.193207 0,-0.113047 0.04841,-0.228612 0.1166742,-0.278526 0.076516,-0.05595 0.1042866,-0.132685 0.080686,-0.222933 -0.031449,-0.120246 -0.00936,-0.137615 0.1749822,-0.137615 0.1616299,0 0.2088902,-0.02624 0.202078,-0.112041 -0.00492,-0.06162 0.027123,-0.104835 0.071133,-0.09603 0.044016,0.0087 0.080027,-0.0248 0.080027,-0.07471 0,-0.04991 0.023305,-0.100295 0.05179,-0.112041 0.028485,-0.01172 0.1440331,-0.183839 0.2567752,-0.382453 0.1127415,-0.198608 0.319916,-0.479538 0.460386,-0.624284 0.140471,-0.144745 0.255401,-0.291955 0.255401,-0.327124 0,-0.03516 0.03031,-0.06397 0.06736,-0.06397 0.03704,0 0.0982,-0.08849 0.135901,-0.196641 0.03784,-0.10854 0.136733,-0.222563 0.220746,-0.254504 0.08371,-0.03183 0.1522,-0.10519 0.1522,-0.163036 0,-0.05785 0.08823,-0.209807 0.196064,-0.337697 0.339602,-0.402764 0.436762,-0.531554 1.068963,-1.416943 0.33943,-0.475363 0.634908,-0.878702 0.65662,-0.896305 0.02171,-0.01762 0.128446,-0.162834 0.237187,-0.322732 0.108742,-0.159892 0.301308,-0.379202 0.427924,-0.487357 0.126617,-0.108154 0.230212,-0.22778 0.230212,-0.265831 0,-0.05724 0.641485,-0.866559 0.771079,-0.972784 0.0629,-0.05157 1.36137,-1.497815 1.501706,-1.672626 0.306015,-0.38119 0.42414,-0.583011 0.391306,-0.668578 -0.01934,-0.05044 -0.01,-0.09164 0.02075,-0.09164 0.03076,0 0.04096,-0.111504 0.02268,-0.247788 -0.05187,-0.386756 0.201725,-0.392533 0.602936,-0.01376 0.07775,0.07342 0.155769,0.133478 0.173365,0.133478 0.0176,0 0.153134,0.115241 0.301197,0.256091 0.148062,0.140844 0.30773,0.256084 0.354817,0.256084 0.04709,0 0.0857,0.02163 0.0858,0.04802 1.28e-4,0.02639 0.0839,0.104102 0.186214,0.172648 0.102316,0.06858 0.232276,0.212604 0.288799,0.320116 0.05653,0.107511 0.170617,0.315298 0.25354,0.461752 0.08292,0.146455 0.16984,0.342257 0.193144,0.435113 0.04159,0.165676 0.457017,1.06429 0.637672,1.379331 0.05048,0.08803 0.14209,0.281914 0.203575,0.430856 0.09545,0.231198 0.215799,0.401963 0.531093,0.75355 0.03158,0.03524 0.1189,0.106393 0.194049,0.158182 0.07515,0.0518 0.136635,0.146734 0.136635,0.210986 0,0.06427 0.06482,0.181699 0.144049,0.260998 0.171708,0.17187 0.304105,0.445549 0.304105,0.628617 0,0.07282 0.06838,0.265921 0.151949,0.429139 0.283433,0.553559 0.74436,1.527199 0.74436,1.572349 0,0.09226 0.342867,0.741111 0.39162,0.741111 0.0279,0 0.06932,0.09907 0.09203,0.220143 0.02271,0.121077 0.138894,0.371625 0.258178,0.556773 0.119284,0.185148 0.250488,0.439008 0.291564,0.56413 0.04107,0.125123 0.171818,0.355035 0.290536,0.51092 0.118717,0.155883 0.232387,0.349318 0.2526,0.429857 0.02021,0.08053 0.08665,0.162266 0.147641,0.181616 0.283342,0.08993 0.512268,0.668466 0.412227,1.041771 -0.04082,0.152299 -0.359325,0.210259 -0.439814,0.08002 -0.02176,-0.03524 -0.124297,-0.06405 -0.227856,-0.06405 -0.103558,0 -0.188287,-0.02979 -0.188287,-0.06624 0,-0.04461 -0.04241,-0.04356 -0.129837,0.003 -0.07141,0.03819 -0.112925,0.09685 -0.09225,0.130294 0.02314,0.03743 -0.351594,0.06057 -0.974543,0.06027 -1.218314,-6.73e-4 -1.684358,-0.04726 -1.684358,-0.168413 0,-0.04794 -0.05672,-0.08711 -0.126035,-0.08711 -0.08573,0 -0.114251,0.0307 -0.08919,0.09603 0.02027,0.05278 0.005,0.09603 -0.03402,0.09603 -0.03898,0 -0.07086,-0.03872 -0.07086,-0.08611 0,-0.19466 -0.223712,-0.284644 -0.800277,-0.3219 -0.31691,-0.02049 -0.950728,-0.06662 -1.408486,-0.102544 -1.056593,-0.08291 -3.066046,-0.07774 -3.287981,0.0084 -0.09307,0.03615 -0.471421,0.09251 -0.840787,0.125259 -0.369367,0.03274 -0.758302,0.08595 -0.864298,0.118227 -0.313354,0.09542 -1.526397,0.324667 -1.66523,0.314709 -0.07042,-0.0053 -0.257689,-0.03244 -0.416143,-0.06087 z m 1.632563,-1.988203 c 1.82181,-0.14203 2.210751,-0.163951 2.592894,-0.146128 0.228879,0.01066 1.194012,0.0366 2.14474,0.05762 0.950727,0.02102 1.97348,0.0605 2.272784,0.08773 0.299303,0.02722 0.669479,0.02639 0.822614,-0.0023 0.187949,-0.03478 0.43379,-0.01943 0.75653,0.04726 0.582961,0.120412 1.025675,0.104177 0.987943,-0.03622 -0.0142,-0.05286 -0.05208,-0.306073 -0.0842,-0.562791 -0.06775,-0.541536 -0.323533,-1.093198 -0.561133,-1.210222 -0.08743,-0.0431 -0.188266,-0.115505 -0.224078,-0.160988 -0.03581,-0.04545 -0.148878,-0.125909 -0.251259,-0.178728 -0.102381,-0.05286 -0.199372,-0.146446 -0.215539,-0.208066 -0.01617,-0.06162 -0.06755,-0.112041 -0.114179,-0.112041 -0.114937,0 -0.165186,-0.09459 -0.116982,-0.220211 0.02571,-0.06699 0.08246,-0.09018 0.160262,-0.06549 0.137207,0.04356 0.14835,0.0094 0.05419,-0.166666 -0.03645,-0.06813 -0.107499,-0.123838 -0.157884,-0.123838 -0.22236,0 -0.539418,-0.21705 -0.578768,-0.396201 -0.02212,-0.100683 -0.111903,-0.268272 -0.19953,-0.372411 -0.104023,-0.123626 -0.14568,-0.232325 -0.120016,-0.31319 0.02162,-0.06813 0.01058,-0.141592 -0.02452,-0.163294 -0.03511,-0.0217 -0.0476,-0.08174 -0.02777,-0.133433 0.022,-0.05732 -0.002,-0.09397 -0.06169,-0.09397 -0.09186,0 -0.296388,-0.680353 -0.302116,-1.004983 -0.0027,-0.15509 -0.149293,-0.339481 -0.269819,-0.339481 -0.05372,0 -0.216645,-0.20024 -0.362041,-0.444981 -0.145395,-0.244733 -0.291769,-0.46192 -0.325273,-0.482623 -0.0335,-0.02072 -0.136186,-0.187507 -0.228182,-0.370665 -0.09199,-0.183159 -0.186586,-0.347708 -0.210203,-0.365667 -0.05289,-0.04023 -0.188893,-0.2743 -0.345729,-0.595042 -0.127858,-0.261483 -0.277289,-0.261543 -0.211668,-9.1e-5 0.04394,0.175067 -0.132495,0.786556 -0.226945,0.786556 -0.03238,0 -0.05887,0.02753 -0.05887,0.06117 0,0.03365 -0.06482,0.161487 -0.14405,0.284091 -0.07923,0.122606 -0.213292,0.337788 -0.297921,0.478185 -0.08463,0.140397 -0.214274,0.32562 -0.2881,0.411612 -0.07382,0.08599 -0.206252,0.251501 -0.294282,0.367814 -0.08803,0.116314 -0.246486,0.316146 -0.352122,0.444074 -0.105636,0.127928 -0.292901,0.358121 -0.416144,0.511532 -0.123242,0.153411 -0.353721,0.4278 -0.512177,0.609765 -0.546112,0.627126 -0.864457,1.01215 -0.921548,1.114558 -0.03149,0.05649 -0.197144,0.293491 -0.368126,0.526677 -0.170982,0.233187 -0.310877,0.44511 -0.310877,0.470949 0,0.02586 -0.07032,0.102294 -0.156271,0.169903 -0.08595,0.0676 -0.176395,0.186992 -0.200991,0.265301 -0.02459,0.07831 -0.141537,0.234078 -0.259871,0.34615 -0.118336,0.112079 -0.215154,0.245565 -0.215154,0.296643 0,0.05104 -0.05774,0.107958 -0.128309,0.126417 -0.08017,0.02094 -0.114818,0.06873 -0.09235,0.127248 0.01992,0.05187 -0.0085,0.110763 -0.06376,0.131958 -0.05485,0.02102 -0.09971,0.08239 -0.09971,0.136306 0,0.05391 -0.02161,0.09822 -0.04802,0.09844 -0.07045,5.82e-4 -0.267273,0.36721 -0.221639,0.412844 0.0214,0.0214 0.08361,0.01853 0.138267,-0.006 0.05466,-0.02488 0.387476,-0.06768 0.739598,-0.09511 z m 8.803036,-2.656208 c 0,-0.05286 -0.02881,-0.07823 -0.06403,-0.05649 -0.03521,0.02178 -0.06403,0.08279 -0.06403,0.135604 0,0.05286 0.02881,0.07823 0.06403,0.05649 0.03521,-0.02178 0.06403,-0.08279 0.06403,-0.135604 z"
       id="path5424"
       sodipodi:nodetypes="ccccccsscsssssccscssssscssscssscscsccscsccsssssccscscssssssscscsscscsscssccscccccccsccccscccsssscssssscscsscscsssssssssscssscssscscssscccscscs" />
  </g>
</svg>
